G75*
G71*
%OFA0B0*%
%FSLAX23Y23*%
%IPPOS*%
%LPD*%
%ADD10C,0.1*%
%ADD11C,0.508*%
%ADD12C,0.305*%
%LPD*%G36*
X24941Y101219D02*
X25018Y101142D01*
X25018Y100604D01*
X25018Y99608D01*
X25018Y98612D01*
X25018Y97616D01*
X25018Y96620D01*
X25018Y95624D01*
X25018Y94628D01*
X25018Y93632D01*
X25018Y92636D01*
X25018Y88652D01*
X25018Y87655D01*
X25018Y86659D01*
X25018Y85663D01*
X25018Y84667D01*
X25018Y83671D01*
X25018Y75703D01*
X25018Y74707D01*
X25018Y73710D01*
X25018Y72714D01*
X25018Y71718D01*
X25018Y70722D01*
X25018Y60761D01*
X25018Y59765D01*
X25018Y58769D01*
X25018Y57773D01*
X25018Y56777D01*
X25018Y55781D01*
X25018Y52793D01*
X25018Y51797D01*
X25018Y50801D01*
X25018Y48809D01*
X25018Y47812D01*
X25018Y46816D01*
X25018Y45820D01*
X25018Y39844D01*
X25018Y38848D01*
X25018Y37852D01*
X25018Y5977D01*
X25018Y4981D01*
X25018Y3985D01*
X25018Y1993D01*
X25018Y997D01*
X25018Y459D01*
X24941Y383D01*
X21492Y383D01*
X20515Y383D01*
X19538Y383D01*
X18561Y383D01*
X17584Y383D01*
X16607Y383D01*
X14653Y383D01*
X13676Y383D01*
X12700Y383D01*
X11723Y383D01*
X10746Y383D01*
X9769Y383D01*
X8792Y383D01*
X7815Y383D01*
X6838Y383D01*
X1953Y383D01*
X976Y383D01*
X458Y383D01*
X382Y459D01*
X382Y101142D01*
X458Y101219D01*
X24941Y101219D01*
G37*
%LPC*%G36*
X3891Y35542D02*
X3897Y35429D01*
X3902Y35394D01*
X3924Y35283D01*
X3933Y35247D01*
X3967Y35140D01*
X3980Y35107D01*
X4029Y35003D01*
X4046Y34972D01*
X4107Y34876D01*
X4129Y34847D01*
X4201Y34759D01*
X4225Y34733D01*
X4307Y34656D01*
X4336Y34633D01*
X4427Y34566D01*
X4458Y34547D01*
X4557Y34492D01*
X4589Y34477D01*
X4629Y34461D01*
X4678Y34390D01*
X4678Y30484D01*
X4685Y30402D01*
X4708Y30326D01*
X4745Y30257D01*
X4795Y30196D01*
X4856Y30146D01*
X4925Y30109D01*
X5001Y30086D01*
X5084Y30078D01*
X7141Y30078D01*
X7218Y30001D01*
X7218Y20799D01*
X7141Y20723D01*
X5084Y20723D01*
X5001Y20715D01*
X4925Y20692D01*
X4856Y20655D01*
X4795Y20605D01*
X4789Y20597D01*
X4766Y20578D01*
X4687Y20536D01*
X4640Y20505D01*
X4571Y20447D01*
X4531Y20407D01*
X4473Y20337D01*
X4442Y20291D01*
X4399Y20211D01*
X4377Y20158D01*
X4351Y20071D01*
X4340Y20016D01*
X4332Y19926D01*
X4332Y19870D01*
X4340Y19780D01*
X4351Y19725D01*
X4377Y19638D01*
X4399Y19586D01*
X4442Y19505D01*
X4473Y19459D01*
X4531Y19389D01*
X4571Y19349D01*
X4639Y19292D01*
X4687Y19261D01*
X4767Y19217D01*
X4819Y19196D01*
X4905Y19169D01*
X4961Y19159D01*
X5052Y19150D01*
X5107Y19150D01*
X5198Y19159D01*
X5254Y19169D01*
X5340Y19196D01*
X5392Y19217D01*
X5472Y19261D01*
X5520Y19292D01*
X5588Y19349D01*
X5628Y19389D01*
X5686Y19459D01*
X5717Y19505D01*
X5760Y19586D01*
X5782Y19638D01*
X5808Y19725D01*
X5819Y19780D01*
X5826Y19848D01*
X5902Y19918D01*
X7616Y19918D01*
X7698Y19926D01*
X7774Y19949D01*
X7843Y19986D01*
X7904Y20036D01*
X7954Y20097D01*
X7991Y20166D01*
X8014Y20242D01*
X8023Y20324D01*
X8023Y30476D01*
X8014Y30559D01*
X7991Y30635D01*
X7954Y30704D01*
X7904Y30765D01*
X7843Y30815D01*
X7774Y30852D01*
X7698Y30875D01*
X7616Y30883D01*
X5559Y30883D01*
X5483Y30959D01*
X5483Y34391D01*
X5531Y34462D01*
X5570Y34477D01*
X5602Y34492D01*
X5701Y34547D01*
X5732Y34566D01*
X5823Y34633D01*
X5852Y34656D01*
X5934Y34733D01*
X5958Y34759D01*
X6030Y34847D01*
X6052Y34876D01*
X6113Y34972D01*
X6130Y35003D01*
X6179Y35107D01*
X6192Y35140D01*
X6226Y35247D01*
X6235Y35283D01*
X6257Y35394D01*
X6262Y35429D01*
X6269Y35542D01*
X6269Y35579D01*
X6262Y35692D01*
X6257Y35727D01*
X6235Y35838D01*
X6226Y35874D01*
X6192Y35981D01*
X6179Y36014D01*
X6130Y36118D01*
X6113Y36149D01*
X6052Y36245D01*
X6030Y36274D01*
X5958Y36362D01*
X5934Y36388D01*
X5852Y36465D01*
X5823Y36488D01*
X5732Y36555D01*
X5701Y36574D01*
X5602Y36629D01*
X5570Y36644D01*
X5464Y36686D01*
X5429Y36698D01*
X5320Y36725D01*
X5285Y36732D01*
X5172Y36746D01*
X5136Y36749D01*
X5023Y36749D01*
X4987Y36746D01*
X4874Y36732D01*
X4839Y36725D01*
X4730Y36698D01*
X4695Y36686D01*
X4589Y36644D01*
X4557Y36629D01*
X4458Y36574D01*
X4427Y36555D01*
X4336Y36488D01*
X4307Y36465D01*
X4225Y36388D01*
X4201Y36362D01*
X4129Y36274D01*
X4107Y36245D01*
X4046Y36149D01*
X4029Y36118D01*
X3980Y36014D01*
X3967Y35981D01*
X3933Y35874D01*
X3924Y35838D01*
X3902Y35727D01*
X3897Y35692D01*
X3891Y35579D01*
X3891Y35542D01*
G37*
G36*
X6464Y35283D02*
X6473Y35247D01*
X6507Y35140D01*
X6520Y35107D01*
X6569Y35003D01*
X6586Y34972D01*
X6647Y34876D01*
X6669Y34847D01*
X6741Y34759D01*
X6765Y34733D01*
X6847Y34656D01*
X6876Y34633D01*
X6967Y34566D01*
X6998Y34547D01*
X7097Y34492D01*
X7129Y34477D01*
X7235Y34435D01*
X7270Y34423D01*
X7378Y34396D01*
X7303Y34409D01*
X7303Y35245D01*
X6471Y35245D01*
X6464Y35283D01*
G37*
G36*
X7303Y36712D02*
X7378Y36725D01*
X7270Y36698D01*
X7235Y36686D01*
X7129Y36644D01*
X7097Y36629D01*
X6998Y36574D01*
X6967Y36555D01*
X6876Y36488D01*
X6847Y36465D01*
X6765Y36388D01*
X6741Y36362D01*
X6669Y36274D01*
X6647Y36245D01*
X6586Y36149D01*
X6569Y36118D01*
X6520Y36014D01*
X6507Y35981D01*
X6473Y35874D01*
X6464Y35838D01*
X6471Y35877D01*
X7303Y35877D01*
X7303Y36712D01*
G37*
G36*
X7861Y34396D02*
X7969Y34423D01*
X8004Y34435D01*
X8110Y34477D01*
X8142Y34492D01*
X8241Y34547D01*
X8272Y34566D01*
X8363Y34633D01*
X8392Y34656D01*
X8474Y34733D01*
X8498Y34759D01*
X8570Y34847D01*
X8592Y34876D01*
X8653Y34972D01*
X8670Y35003D01*
X8719Y35107D01*
X8732Y35140D01*
X8766Y35247D01*
X8775Y35283D01*
X8768Y35245D01*
X7937Y35245D01*
X7937Y34409D01*
X7861Y34396D01*
G37*
G36*
X8775Y35838D02*
X8766Y35874D01*
X8732Y35981D01*
X8719Y36014D01*
X8670Y36118D01*
X8653Y36149D01*
X8592Y36245D01*
X8570Y36274D01*
X8498Y36362D01*
X8474Y36388D01*
X8392Y36465D01*
X8363Y36488D01*
X8272Y36555D01*
X8241Y36574D01*
X8142Y36629D01*
X8110Y36644D01*
X8004Y36686D01*
X7969Y36698D01*
X7861Y36725D01*
X7937Y36712D01*
X7937Y35877D01*
X8768Y35877D01*
X8775Y35838D01*
G37*
G36*
X15321Y35542D02*
X15327Y35429D01*
X15332Y35394D01*
X15354Y35283D01*
X15363Y35247D01*
X15397Y35140D01*
X15410Y35107D01*
X15459Y35003D01*
X15476Y34972D01*
X15537Y34876D01*
X15559Y34847D01*
X15631Y34759D01*
X15655Y34733D01*
X15737Y34656D01*
X15766Y34633D01*
X15857Y34566D01*
X15888Y34547D01*
X15987Y34492D01*
X16019Y34477D01*
X16125Y34435D01*
X16160Y34423D01*
X16239Y34403D01*
X16297Y34329D01*
X16297Y17837D01*
X16220Y17761D01*
X5752Y17761D01*
X5688Y17795D01*
X5628Y17867D01*
X5588Y17907D01*
X5519Y17965D01*
X5472Y17996D01*
X5392Y18039D01*
X5340Y18061D01*
X5253Y18087D01*
X5198Y18098D01*
X5107Y18107D01*
X5052Y18107D01*
X4961Y18098D01*
X4906Y18087D01*
X4819Y18061D01*
X4767Y18039D01*
X4687Y17996D01*
X4640Y17965D01*
X4571Y17907D01*
X4531Y17867D01*
X4473Y17797D01*
X4442Y17751D01*
X4399Y17671D01*
X4377Y17618D01*
X4351Y17531D01*
X4340Y17476D01*
X4332Y17386D01*
X4332Y17330D01*
X4340Y17240D01*
X4351Y17185D01*
X4377Y17098D01*
X4399Y17046D01*
X4442Y16965D01*
X4473Y16919D01*
X4531Y16849D01*
X4571Y16809D01*
X4639Y16752D01*
X4687Y16721D01*
X4767Y16677D01*
X4819Y16656D01*
X4905Y16629D01*
X4961Y16619D01*
X5052Y16610D01*
X5107Y16610D01*
X5198Y16619D01*
X5254Y16629D01*
X5340Y16656D01*
X5392Y16677D01*
X5472Y16721D01*
X5520Y16752D01*
X5588Y16809D01*
X5628Y16849D01*
X5686Y16919D01*
X5752Y16956D01*
X16695Y16956D01*
X16777Y16963D01*
X16852Y16987D01*
X16922Y17024D01*
X16983Y17073D01*
X17033Y17135D01*
X17070Y17205D01*
X17094Y17280D01*
X17102Y17362D01*
X17102Y34486D01*
X17137Y34551D01*
X17162Y34566D01*
X17253Y34633D01*
X17282Y34656D01*
X17364Y34733D01*
X17388Y34759D01*
X17460Y34847D01*
X17482Y34876D01*
X17543Y34972D01*
X17560Y35003D01*
X17609Y35107D01*
X17622Y35140D01*
X17656Y35247D01*
X17665Y35283D01*
X17687Y35394D01*
X17692Y35429D01*
X17699Y35542D01*
X17699Y35579D01*
X17692Y35692D01*
X17687Y35727D01*
X17665Y35838D01*
X17656Y35874D01*
X17622Y35981D01*
X17609Y36014D01*
X17560Y36118D01*
X17543Y36149D01*
X17482Y36245D01*
X17460Y36274D01*
X17388Y36362D01*
X17364Y36388D01*
X17282Y36465D01*
X17253Y36488D01*
X17162Y36555D01*
X17131Y36574D01*
X17032Y36629D01*
X17000Y36644D01*
X16894Y36686D01*
X16859Y36698D01*
X16750Y36725D01*
X16715Y36732D01*
X16602Y36746D01*
X16566Y36749D01*
X16453Y36749D01*
X16417Y36746D01*
X16304Y36732D01*
X16269Y36725D01*
X16160Y36698D01*
X16125Y36686D01*
X16019Y36644D01*
X15987Y36629D01*
X15888Y36574D01*
X15857Y36555D01*
X15766Y36488D01*
X15737Y36465D01*
X15655Y36388D01*
X15631Y36362D01*
X15559Y36274D01*
X15537Y36245D01*
X15476Y36149D01*
X15459Y36118D01*
X15410Y36014D01*
X15397Y35981D01*
X15363Y35874D01*
X15354Y35838D01*
X15332Y35727D01*
X15327Y35692D01*
X15321Y35579D01*
X15321Y35542D01*
G37*
G36*
X17894Y35283D02*
X17903Y35247D01*
X17937Y35140D01*
X17950Y35107D01*
X17999Y35003D01*
X18016Y34972D01*
X18077Y34876D01*
X18099Y34847D01*
X18171Y34759D01*
X18195Y34733D01*
X18277Y34656D01*
X18306Y34633D01*
X18397Y34566D01*
X18428Y34547D01*
X18527Y34492D01*
X18559Y34477D01*
X18665Y34435D01*
X18700Y34423D01*
X18808Y34396D01*
X18733Y34409D01*
X18733Y35245D01*
X17901Y35245D01*
X17894Y35283D01*
G37*
G36*
X18733Y36712D02*
X18808Y36725D01*
X18700Y36698D01*
X18665Y36686D01*
X18559Y36644D01*
X18527Y36629D01*
X18428Y36574D01*
X18397Y36555D01*
X18306Y36488D01*
X18277Y36465D01*
X18195Y36388D01*
X18171Y36362D01*
X18099Y36274D01*
X18077Y36245D01*
X18016Y36149D01*
X17999Y36118D01*
X17950Y36014D01*
X17937Y35981D01*
X17903Y35874D01*
X17894Y35838D01*
X17901Y35877D01*
X18733Y35877D01*
X18733Y36712D01*
G37*
G36*
X19291Y34396D02*
X19399Y34423D01*
X19434Y34435D01*
X19540Y34477D01*
X19572Y34492D01*
X19671Y34547D01*
X19702Y34566D01*
X19793Y34633D01*
X19822Y34656D01*
X19904Y34733D01*
X19928Y34759D01*
X20000Y34847D01*
X20022Y34876D01*
X20083Y34972D01*
X20100Y35003D01*
X20149Y35107D01*
X20162Y35140D01*
X20196Y35247D01*
X20205Y35283D01*
X20198Y35245D01*
X19367Y35245D01*
X19367Y34409D01*
X19291Y34396D01*
G37*
G36*
X20205Y35838D02*
X20196Y35874D01*
X20162Y35981D01*
X20149Y36014D01*
X20100Y36118D01*
X20083Y36149D01*
X20022Y36245D01*
X20000Y36274D01*
X19928Y36362D01*
X19904Y36388D01*
X19822Y36465D01*
X19793Y36488D01*
X19702Y36555D01*
X19671Y36574D01*
X19572Y36629D01*
X19540Y36644D01*
X19434Y36686D01*
X19399Y36698D01*
X19291Y36725D01*
X19367Y36712D01*
X19367Y35877D01*
X20198Y35877D01*
X20205Y35838D01*
G37*
G36*
X22958Y12206D02*
X23052Y12235D01*
X23139Y12282D01*
X23216Y12344D01*
X23278Y12421D01*
X23325Y12508D01*
X23354Y12602D01*
X23364Y12704D01*
X23364Y38096D01*
X23354Y38199D01*
X23325Y38293D01*
X23278Y38380D01*
X23216Y38457D01*
X23139Y38519D01*
X23052Y38566D01*
X22958Y38595D01*
X22856Y38605D01*
X4390Y38605D01*
X4314Y38681D01*
X4314Y44454D01*
X4336Y44508D01*
X4358Y44531D01*
X4416Y44601D01*
X4447Y44647D01*
X4490Y44727D01*
X4512Y44780D01*
X4538Y44866D01*
X4549Y44921D01*
X4558Y45012D01*
X4558Y45067D01*
X4549Y45158D01*
X4538Y45213D01*
X4512Y45300D01*
X4490Y45352D01*
X4447Y45433D01*
X4417Y45479D01*
X4359Y45548D01*
X4336Y45571D01*
X4314Y45625D01*
X4314Y58962D01*
X4390Y59039D01*
X10156Y59039D01*
X10258Y59049D01*
X10353Y59078D01*
X10439Y59124D01*
X10516Y59186D01*
X10578Y59263D01*
X10625Y59350D01*
X10654Y59445D01*
X10664Y59547D01*
X10664Y62266D01*
X10686Y62320D01*
X10709Y62343D01*
X10767Y62412D01*
X10797Y62458D01*
X10840Y62539D01*
X10862Y62591D01*
X10888Y62678D01*
X10899Y62733D01*
X10908Y62824D01*
X10908Y62879D01*
X10899Y62970D01*
X10888Y63025D01*
X10862Y63111D01*
X10840Y63164D01*
X10797Y63244D01*
X10766Y63290D01*
X10708Y63360D01*
X10686Y63383D01*
X10664Y63437D01*
X10664Y66036D01*
X10654Y66139D01*
X10625Y66233D01*
X10578Y66320D01*
X10516Y66397D01*
X10439Y66459D01*
X10352Y66506D01*
X10258Y66535D01*
X10156Y66545D01*
X4390Y66545D01*
X4314Y66621D01*
X4314Y85913D01*
X4336Y85967D01*
X4358Y85990D01*
X4416Y86060D01*
X4447Y86106D01*
X4490Y86187D01*
X4512Y86239D01*
X4538Y86326D01*
X4549Y86381D01*
X4558Y86471D01*
X4558Y86527D01*
X4549Y86617D01*
X4538Y86672D01*
X4512Y86759D01*
X4490Y86812D01*
X4447Y86892D01*
X4416Y86938D01*
X4358Y87008D01*
X4318Y87048D01*
X4249Y87106D01*
X4202Y87137D01*
X4122Y87180D01*
X4070Y87202D01*
X3983Y87228D01*
X3928Y87239D01*
X3837Y87248D01*
X3782Y87248D01*
X3691Y87239D01*
X3636Y87228D01*
X3549Y87202D01*
X3497Y87180D01*
X3417Y87137D01*
X3370Y87106D01*
X3301Y87048D01*
X3261Y87008D01*
X3203Y86938D01*
X3172Y86892D01*
X3129Y86812D01*
X3107Y86759D01*
X3081Y86672D01*
X3070Y86617D01*
X3062Y86527D01*
X3062Y86471D01*
X3070Y86381D01*
X3081Y86326D01*
X3107Y86239D01*
X3129Y86187D01*
X3172Y86106D01*
X3203Y86060D01*
X3261Y85990D01*
X3283Y85967D01*
X3306Y85913D01*
X3306Y66044D01*
X3315Y65942D01*
X3344Y65848D01*
X3391Y65761D01*
X3453Y65684D01*
X3530Y65622D01*
X3617Y65575D01*
X3711Y65546D01*
X3814Y65537D01*
X9579Y65537D01*
X9656Y65460D01*
X9656Y63437D01*
X9633Y63383D01*
X9611Y63360D01*
X9553Y63290D01*
X9522Y63244D01*
X9479Y63164D01*
X9457Y63111D01*
X9431Y63025D01*
X9420Y62970D01*
X9412Y62879D01*
X9412Y62824D01*
X9420Y62733D01*
X9431Y62678D01*
X9457Y62591D01*
X9479Y62539D01*
X9522Y62458D01*
X9552Y62412D01*
X9610Y62343D01*
X9633Y62320D01*
X9656Y62266D01*
X9656Y60123D01*
X9579Y60047D01*
X3814Y60047D01*
X3711Y60037D01*
X3616Y60008D01*
X3530Y59962D01*
X3454Y59899D01*
X3391Y59822D01*
X3344Y59735D01*
X3315Y59641D01*
X3306Y59539D01*
X3306Y45625D01*
X3283Y45571D01*
X3260Y45548D01*
X3202Y45479D01*
X3172Y45433D01*
X3129Y45352D01*
X3107Y45300D01*
X3081Y45213D01*
X3070Y45158D01*
X3062Y45067D01*
X3062Y45012D01*
X3070Y44921D01*
X3081Y44866D01*
X3107Y44780D01*
X3129Y44727D01*
X3172Y44647D01*
X3203Y44601D01*
X3261Y44531D01*
X3283Y44508D01*
X3306Y44454D01*
X3306Y38104D01*
X3315Y38002D01*
X3344Y37908D01*
X3391Y37821D01*
X3453Y37744D01*
X3530Y37682D01*
X3617Y37635D01*
X3711Y37606D01*
X3814Y37597D01*
X22279Y37597D01*
X22356Y37520D01*
X22356Y13281D01*
X22279Y13205D01*
X20324Y13205D01*
X20221Y13195D01*
X20127Y13166D01*
X20040Y13119D01*
X19963Y13057D01*
X19901Y12980D01*
X19854Y12893D01*
X19848Y12875D01*
X19824Y12838D01*
X19811Y12827D01*
X19771Y12787D01*
X19713Y12717D01*
X19682Y12671D01*
X19639Y12591D01*
X19617Y12538D01*
X19591Y12451D01*
X19580Y12396D01*
X19572Y12306D01*
X19572Y12250D01*
X19580Y12160D01*
X19591Y12105D01*
X19617Y12018D01*
X19639Y11966D01*
X19682Y11885D01*
X19713Y11839D01*
X19771Y11769D01*
X19793Y11746D01*
X19816Y11692D01*
X19816Y8201D01*
X19739Y8125D01*
X11126Y8125D01*
X11024Y8115D01*
X10930Y8086D01*
X10843Y8039D01*
X10766Y7977D01*
X10704Y7900D01*
X10657Y7813D01*
X10628Y7719D01*
X10619Y7616D01*
X10619Y4842D01*
X10594Y4786D01*
X10575Y4768D01*
X10551Y4742D01*
X10479Y4654D01*
X10457Y4625D01*
X10396Y4529D01*
X10379Y4498D01*
X10330Y4395D01*
X10317Y4362D01*
X10283Y4254D01*
X10274Y4219D01*
X10252Y4108D01*
X10247Y4072D01*
X10241Y3959D01*
X10241Y3922D01*
X10247Y3809D01*
X10252Y3774D01*
X10274Y3663D01*
X10283Y3627D01*
X10317Y3520D01*
X10330Y3487D01*
X10379Y3383D01*
X10396Y3352D01*
X10457Y3256D01*
X10479Y3227D01*
X10551Y3139D01*
X10575Y3113D01*
X10658Y3036D01*
X10686Y3012D01*
X10777Y2946D01*
X10808Y2927D01*
X10907Y2872D01*
X10939Y2857D01*
X11044Y2815D01*
X11079Y2805D01*
X11188Y2776D01*
X11223Y2770D01*
X11338Y2755D01*
X11373Y2753D01*
X11486Y2753D01*
X11521Y2755D01*
X11636Y2770D01*
X11671Y2776D01*
X11780Y2805D01*
X11815Y2815D01*
X11920Y2857D01*
X11952Y2872D01*
X12051Y2927D01*
X12082Y2946D01*
X12173Y3012D01*
X12201Y3036D01*
X12284Y3113D01*
X12308Y3139D01*
X12380Y3227D01*
X12402Y3256D01*
X12463Y3352D01*
X12480Y3383D01*
X12529Y3487D01*
X12542Y3520D01*
X12576Y3627D01*
X12585Y3663D01*
X12607Y3774D01*
X12612Y3809D01*
X12619Y3922D01*
X12619Y3959D01*
X12612Y4072D01*
X12607Y4108D01*
X12585Y4219D01*
X12576Y4254D01*
X12542Y4362D01*
X12529Y4395D01*
X12480Y4498D01*
X12463Y4529D01*
X12402Y4625D01*
X12380Y4654D01*
X12308Y4742D01*
X12284Y4768D01*
X12202Y4845D01*
X12173Y4868D01*
X12082Y4935D01*
X12051Y4954D01*
X11952Y5009D01*
X11919Y5025D01*
X11814Y5066D01*
X11779Y5078D01*
X11684Y5102D01*
X11627Y5176D01*
X11627Y7040D01*
X11703Y7117D01*
X20316Y7117D01*
X20418Y7126D01*
X20512Y7155D01*
X20599Y7202D01*
X20676Y7264D01*
X20738Y7341D01*
X20785Y7428D01*
X20814Y7522D01*
X20824Y7624D01*
X20824Y11692D01*
X20846Y11746D01*
X20868Y11769D01*
X20926Y11839D01*
X20957Y11885D01*
X21000Y11966D01*
X21022Y12018D01*
X21048Y12105D01*
X21054Y12135D01*
X21129Y12197D01*
X22856Y12197D01*
X22958Y12206D01*
G37*
G36*
X15781Y86232D02*
X15807Y86145D01*
X15829Y86093D01*
X15872Y86013D01*
X15903Y85966D01*
X15960Y85897D01*
X16001Y85856D01*
X16070Y85799D01*
X16117Y85768D01*
X16197Y85725D01*
X16249Y85703D01*
X16336Y85677D01*
X16303Y85684D01*
X16303Y86199D01*
X15788Y86199D01*
X15781Y86232D01*
G37*
G36*
X16683Y85677D02*
X16770Y85703D01*
X16822Y85725D01*
X16902Y85768D01*
X16949Y85799D01*
X17018Y85856D01*
X17059Y85897D01*
X17116Y85966D01*
X17147Y86013D01*
X17190Y86093D01*
X17212Y86145D01*
X17238Y86232D01*
X17231Y86199D01*
X16717Y86199D01*
X16717Y85684D01*
X16683Y85677D01*
G37*
G36*
X17238Y86579D02*
X17212Y86666D01*
X17190Y86718D01*
X17147Y86798D01*
X17116Y86845D01*
X17059Y86914D01*
X17018Y86955D01*
X16949Y87012D01*
X16902Y87043D01*
X16822Y87086D01*
X16770Y87108D01*
X16683Y87134D01*
X16717Y87127D01*
X16717Y86613D01*
X17231Y86613D01*
X17238Y86579D01*
G37*
G36*
X16336Y87134D02*
X16249Y87108D01*
X16197Y87086D01*
X16117Y87043D01*
X16070Y87012D01*
X16001Y86955D01*
X15960Y86914D01*
X15903Y86845D01*
X15872Y86798D01*
X15829Y86718D01*
X15807Y86666D01*
X15781Y86579D01*
X15788Y86613D01*
X16303Y86613D01*
X16303Y87127D01*
X16336Y87134D01*
G37*
G36*
X5602Y86395D02*
X5610Y86304D01*
X5621Y86249D01*
X5647Y86163D01*
X5669Y86110D01*
X5712Y86030D01*
X5743Y85984D01*
X5801Y85914D01*
X5841Y85874D01*
X5910Y85816D01*
X5957Y85785D01*
X6037Y85742D01*
X6089Y85720D01*
X6176Y85694D01*
X6231Y85683D01*
X6322Y85675D01*
X6377Y85675D01*
X6468Y85683D01*
X6523Y85694D01*
X6610Y85720D01*
X6662Y85742D01*
X6742Y85785D01*
X6789Y85816D01*
X6858Y85874D01*
X6898Y85914D01*
X6956Y85984D01*
X6987Y86030D01*
X7030Y86110D01*
X7052Y86163D01*
X7078Y86249D01*
X7089Y86304D01*
X7098Y86395D01*
X7098Y86450D01*
X7089Y86541D01*
X7078Y86596D01*
X7052Y86683D01*
X7030Y86735D01*
X6987Y86816D01*
X6956Y86862D01*
X6898Y86932D01*
X6858Y86972D01*
X6790Y87029D01*
X6742Y87060D01*
X6662Y87104D01*
X6610Y87125D01*
X6524Y87152D01*
X6468Y87162D01*
X6377Y87172D01*
X6322Y87172D01*
X6231Y87162D01*
X6175Y87152D01*
X6089Y87125D01*
X6037Y87104D01*
X5957Y87060D01*
X5909Y87029D01*
X5841Y86972D01*
X5801Y86932D01*
X5743Y86862D01*
X5712Y86816D01*
X5669Y86735D01*
X5647Y86683D01*
X5621Y86596D01*
X5610Y86541D01*
X5602Y86450D01*
X5602Y86395D01*
G37*
G36*
X8142Y86378D02*
X8150Y86287D01*
X8161Y86232D01*
X8187Y86145D01*
X8209Y86093D01*
X8252Y86013D01*
X8283Y85966D01*
X8340Y85897D01*
X8381Y85856D01*
X8450Y85799D01*
X8497Y85768D01*
X8577Y85725D01*
X8629Y85703D01*
X8716Y85677D01*
X8771Y85666D01*
X8862Y85658D01*
X8917Y85658D01*
X9008Y85666D01*
X9063Y85677D01*
X9150Y85703D01*
X9202Y85725D01*
X9282Y85768D01*
X9329Y85799D01*
X9398Y85856D01*
X9439Y85897D01*
X9496Y85966D01*
X9527Y86013D01*
X9570Y86093D01*
X9592Y86145D01*
X9618Y86232D01*
X9629Y86287D01*
X9638Y86378D01*
X9638Y86433D01*
X9629Y86524D01*
X9618Y86579D01*
X9592Y86666D01*
X9570Y86718D01*
X9527Y86798D01*
X9496Y86845D01*
X9439Y86914D01*
X9398Y86955D01*
X9329Y87012D01*
X9282Y87043D01*
X9202Y87086D01*
X9150Y87108D01*
X9063Y87134D01*
X9008Y87145D01*
X8917Y87154D01*
X8862Y87154D01*
X8771Y87145D01*
X8716Y87134D01*
X8629Y87108D01*
X8577Y87086D01*
X8497Y87043D01*
X8450Y87012D01*
X8381Y86955D01*
X8340Y86914D01*
X8283Y86845D01*
X8252Y86798D01*
X8209Y86718D01*
X8187Y86666D01*
X8161Y86579D01*
X8150Y86524D01*
X8142Y86433D01*
X8142Y86378D01*
G37*
G36*
X10682Y86395D02*
X10690Y86304D01*
X10701Y86249D01*
X10727Y86163D01*
X10749Y86110D01*
X10792Y86030D01*
X10823Y85984D01*
X10881Y85914D01*
X10921Y85874D01*
X10990Y85816D01*
X11037Y85785D01*
X11117Y85742D01*
X11169Y85720D01*
X11256Y85694D01*
X11311Y85683D01*
X11402Y85675D01*
X11457Y85675D01*
X11548Y85683D01*
X11603Y85694D01*
X11690Y85720D01*
X11742Y85742D01*
X11822Y85785D01*
X11869Y85816D01*
X11938Y85874D01*
X11978Y85914D01*
X12036Y85984D01*
X12067Y86030D01*
X12110Y86110D01*
X12132Y86163D01*
X12158Y86249D01*
X12169Y86304D01*
X12178Y86395D01*
X12178Y86450D01*
X12169Y86541D01*
X12158Y86596D01*
X12132Y86683D01*
X12110Y86735D01*
X12067Y86816D01*
X12036Y86862D01*
X11978Y86932D01*
X11938Y86972D01*
X11870Y87029D01*
X11822Y87060D01*
X11742Y87104D01*
X11690Y87125D01*
X11604Y87152D01*
X11548Y87162D01*
X11457Y87172D01*
X11402Y87172D01*
X11311Y87162D01*
X11255Y87152D01*
X11169Y87125D01*
X11117Y87104D01*
X11037Y87060D01*
X10989Y87029D01*
X10921Y86972D01*
X10881Y86932D01*
X10823Y86862D01*
X10792Y86816D01*
X10749Y86735D01*
X10727Y86683D01*
X10701Y86596D01*
X10690Y86541D01*
X10682Y86450D01*
X10682Y86395D01*
G37*
G36*
X13222Y86395D02*
X13230Y86304D01*
X13241Y86249D01*
X13267Y86163D01*
X13289Y86110D01*
X13332Y86030D01*
X13363Y85984D01*
X13421Y85914D01*
X13461Y85874D01*
X13530Y85816D01*
X13577Y85785D01*
X13657Y85742D01*
X13709Y85720D01*
X13796Y85694D01*
X13851Y85683D01*
X13942Y85675D01*
X13997Y85675D01*
X14088Y85683D01*
X14143Y85694D01*
X14230Y85720D01*
X14282Y85742D01*
X14362Y85785D01*
X14409Y85816D01*
X14478Y85874D01*
X14518Y85914D01*
X14576Y85984D01*
X14607Y86030D01*
X14650Y86110D01*
X14672Y86163D01*
X14698Y86249D01*
X14709Y86304D01*
X14718Y86395D01*
X14718Y86450D01*
X14709Y86541D01*
X14698Y86596D01*
X14672Y86683D01*
X14650Y86735D01*
X14607Y86816D01*
X14576Y86862D01*
X14518Y86932D01*
X14478Y86972D01*
X14410Y87029D01*
X14362Y87060D01*
X14282Y87104D01*
X14230Y87125D01*
X14144Y87152D01*
X14088Y87162D01*
X13997Y87172D01*
X13942Y87172D01*
X13851Y87162D01*
X13795Y87152D01*
X13709Y87125D01*
X13657Y87104D01*
X13577Y87060D01*
X13529Y87029D01*
X13461Y86972D01*
X13421Y86932D01*
X13363Y86862D01*
X13332Y86816D01*
X13289Y86735D01*
X13267Y86683D01*
X13241Y86596D01*
X13230Y86541D01*
X13222Y86450D01*
X13222Y86395D01*
G37*
G36*
X18321Y86187D02*
X18347Y86100D01*
X18369Y86048D01*
X18412Y85968D01*
X18443Y85921D01*
X18500Y85852D01*
X18541Y85811D01*
X18610Y85754D01*
X18657Y85723D01*
X18737Y85680D01*
X18789Y85658D01*
X18876Y85632D01*
X18843Y85639D01*
X18843Y86154D01*
X18328Y86154D01*
X18321Y86187D01*
G37*
G36*
X19223Y85632D02*
X19310Y85658D01*
X19362Y85680D01*
X19442Y85723D01*
X19489Y85754D01*
X19558Y85811D01*
X19599Y85852D01*
X19656Y85921D01*
X19687Y85968D01*
X19730Y86048D01*
X19752Y86100D01*
X19778Y86187D01*
X19771Y86154D01*
X19257Y86154D01*
X19257Y85639D01*
X19223Y85632D01*
G37*
G36*
X19778Y86534D02*
X19752Y86621D01*
X19730Y86673D01*
X19687Y86753D01*
X19656Y86800D01*
X19599Y86869D01*
X19558Y86910D01*
X19489Y86967D01*
X19442Y86998D01*
X19362Y87041D01*
X19310Y87063D01*
X19223Y87089D01*
X19257Y87082D01*
X19257Y86568D01*
X19771Y86568D01*
X19778Y86534D01*
G37*
G36*
X18876Y87089D02*
X18789Y87063D01*
X18737Y87041D01*
X18657Y86998D01*
X18610Y86967D01*
X18541Y86910D01*
X18500Y86869D01*
X18443Y86800D01*
X18412Y86753D01*
X18369Y86673D01*
X18347Y86621D01*
X18321Y86534D01*
X18328Y86568D01*
X18843Y86568D01*
X18843Y87082D01*
X18876Y87089D01*
G37*
G36*
X20861Y86187D02*
X20887Y86100D01*
X20909Y86048D01*
X20952Y85968D01*
X20983Y85921D01*
X21040Y85852D01*
X21081Y85811D01*
X21150Y85754D01*
X21197Y85723D01*
X21277Y85680D01*
X21329Y85658D01*
X21416Y85632D01*
X21383Y85639D01*
X21383Y86154D01*
X20868Y86154D01*
X20861Y86187D01*
G37*
G36*
X21763Y85632D02*
X21850Y85658D01*
X21902Y85680D01*
X21982Y85723D01*
X22029Y85754D01*
X22098Y85811D01*
X22139Y85852D01*
X22196Y85921D01*
X22227Y85968D01*
X22270Y86048D01*
X22292Y86100D01*
X22318Y86187D01*
X22311Y86154D01*
X21797Y86154D01*
X21797Y85639D01*
X21763Y85632D01*
G37*
G36*
X22318Y86534D02*
X22292Y86621D01*
X22270Y86673D01*
X22227Y86753D01*
X22196Y86800D01*
X22139Y86869D01*
X22098Y86910D01*
X22029Y86967D01*
X21982Y86998D01*
X21902Y87041D01*
X21850Y87063D01*
X21763Y87089D01*
X21797Y87082D01*
X21797Y86568D01*
X22311Y86568D01*
X22318Y86534D01*
G37*
G36*
X21416Y87089D02*
X21329Y87063D01*
X21277Y87041D01*
X21197Y86998D01*
X21150Y86967D01*
X21081Y86910D01*
X21040Y86869D01*
X20983Y86800D01*
X20952Y86753D01*
X20909Y86673D01*
X20887Y86621D01*
X20861Y86534D01*
X20868Y86568D01*
X21383Y86568D01*
X21383Y87082D01*
X21416Y87089D01*
G37*
G36*
X15762Y45012D02*
X15770Y44921D01*
X15781Y44866D01*
X15807Y44780D01*
X15829Y44727D01*
X15872Y44647D01*
X15903Y44601D01*
X15961Y44531D01*
X16001Y44491D01*
X16070Y44433D01*
X16117Y44402D01*
X16197Y44359D01*
X16249Y44337D01*
X16336Y44311D01*
X16391Y44300D01*
X16482Y44292D01*
X16537Y44292D01*
X16628Y44300D01*
X16683Y44311D01*
X16770Y44337D01*
X16822Y44359D01*
X16902Y44402D01*
X16949Y44433D01*
X17018Y44491D01*
X17058Y44531D01*
X17116Y44601D01*
X17147Y44647D01*
X17190Y44727D01*
X17212Y44780D01*
X17238Y44866D01*
X17249Y44921D01*
X17258Y45012D01*
X17258Y45067D01*
X17249Y45158D01*
X17238Y45213D01*
X17212Y45300D01*
X17190Y45352D01*
X17147Y45433D01*
X17117Y45479D01*
X17059Y45548D01*
X17018Y45589D01*
X16949Y45646D01*
X16902Y45677D01*
X16822Y45720D01*
X16770Y45742D01*
X16684Y45769D01*
X16628Y45779D01*
X16537Y45789D01*
X16482Y45789D01*
X16391Y45779D01*
X16335Y45769D01*
X16249Y45742D01*
X16197Y45720D01*
X16117Y45677D01*
X16070Y45646D01*
X16001Y45589D01*
X15960Y45548D01*
X15902Y45479D01*
X15872Y45433D01*
X15829Y45352D01*
X15807Y45300D01*
X15781Y45213D01*
X15770Y45158D01*
X15762Y45067D01*
X15762Y45012D01*
G37*
G36*
X6872Y62824D02*
X6880Y62733D01*
X6891Y62678D01*
X6917Y62591D01*
X6939Y62539D01*
X6982Y62458D01*
X7012Y62412D01*
X7070Y62343D01*
X7111Y62302D01*
X7180Y62245D01*
X7227Y62214D01*
X7307Y62170D01*
X7359Y62149D01*
X7445Y62122D01*
X7501Y62112D01*
X7592Y62103D01*
X7647Y62103D01*
X7738Y62112D01*
X7794Y62122D01*
X7880Y62149D01*
X7932Y62170D01*
X8012Y62214D01*
X8059Y62245D01*
X8128Y62302D01*
X8169Y62343D01*
X8227Y62412D01*
X8257Y62458D01*
X8300Y62539D01*
X8322Y62591D01*
X8348Y62678D01*
X8359Y62733D01*
X8368Y62824D01*
X8368Y62879D01*
X8359Y62970D01*
X8348Y63025D01*
X8322Y63111D01*
X8300Y63164D01*
X8257Y63244D01*
X8226Y63290D01*
X8168Y63360D01*
X8128Y63400D01*
X8059Y63458D01*
X8012Y63489D01*
X7932Y63532D01*
X7880Y63554D01*
X7793Y63580D01*
X7738Y63591D01*
X7647Y63600D01*
X7592Y63600D01*
X7501Y63591D01*
X7446Y63580D01*
X7359Y63554D01*
X7307Y63532D01*
X7227Y63489D01*
X7180Y63458D01*
X7111Y63400D01*
X7071Y63360D01*
X7013Y63290D01*
X6982Y63244D01*
X6939Y63164D01*
X6917Y63111D01*
X6891Y63025D01*
X6880Y62970D01*
X6872Y62879D01*
X6872Y62824D01*
G37*
G36*
X11971Y62678D02*
X11997Y62591D01*
X12019Y62539D01*
X12062Y62458D01*
X12092Y62412D01*
X12150Y62343D01*
X12191Y62302D01*
X12260Y62245D01*
X12307Y62214D01*
X12387Y62170D01*
X12439Y62149D01*
X12526Y62122D01*
X12493Y62129D01*
X12493Y62645D01*
X11978Y62645D01*
X11971Y62678D01*
G37*
G36*
X12493Y63573D02*
X12526Y63580D01*
X12439Y63554D01*
X12387Y63532D01*
X12307Y63489D01*
X12260Y63458D01*
X12191Y63400D01*
X12151Y63360D01*
X12093Y63290D01*
X12062Y63244D01*
X12019Y63164D01*
X11997Y63111D01*
X11971Y63025D01*
X11978Y63058D01*
X12493Y63058D01*
X12493Y63573D01*
G37*
G36*
X12873Y62122D02*
X12960Y62149D01*
X13012Y62170D01*
X13092Y62214D01*
X13139Y62245D01*
X13208Y62302D01*
X13249Y62343D01*
X13307Y62412D01*
X13337Y62458D01*
X13380Y62539D01*
X13402Y62591D01*
X13428Y62678D01*
X13421Y62645D01*
X12907Y62645D01*
X12907Y62129D01*
X12873Y62122D01*
G37*
G36*
X13428Y63025D02*
X13402Y63111D01*
X13380Y63164D01*
X13337Y63244D01*
X13306Y63290D01*
X13248Y63360D01*
X13208Y63400D01*
X13139Y63458D01*
X13092Y63489D01*
X13012Y63532D01*
X12960Y63554D01*
X12873Y63580D01*
X12907Y63573D01*
X12907Y63058D01*
X13421Y63058D01*
X13428Y63025D01*
G37*
G36*
X14492Y62864D02*
X14500Y62774D01*
X14511Y62719D01*
X14537Y62632D01*
X14559Y62580D01*
X14602Y62499D01*
X14633Y62453D01*
X14691Y62383D01*
X14731Y62343D01*
X14799Y62286D01*
X14847Y62255D01*
X14927Y62211D01*
X14979Y62190D01*
X15065Y62163D01*
X15121Y62153D01*
X15212Y62144D01*
X15267Y62144D01*
X15358Y62153D01*
X15414Y62163D01*
X15500Y62190D01*
X15552Y62211D01*
X15632Y62255D01*
X15680Y62286D01*
X15748Y62343D01*
X15788Y62383D01*
X15846Y62453D01*
X15877Y62499D01*
X15920Y62580D01*
X15942Y62632D01*
X15968Y62719D01*
X15979Y62774D01*
X15988Y62864D01*
X15988Y62920D01*
X15979Y63010D01*
X15968Y63065D01*
X15942Y63152D01*
X15920Y63205D01*
X15877Y63285D01*
X15846Y63331D01*
X15788Y63401D01*
X15748Y63441D01*
X15679Y63499D01*
X15632Y63530D01*
X15552Y63573D01*
X15500Y63595D01*
X15413Y63621D01*
X15358Y63632D01*
X15267Y63641D01*
X15212Y63641D01*
X15121Y63632D01*
X15066Y63621D01*
X14979Y63595D01*
X14927Y63573D01*
X14847Y63530D01*
X14800Y63499D01*
X14731Y63441D01*
X14691Y63401D01*
X14633Y63331D01*
X14602Y63285D01*
X14559Y63205D01*
X14537Y63152D01*
X14511Y63065D01*
X14500Y63010D01*
X14492Y62920D01*
X14492Y62864D01*
G37*
G36*
X17032Y62824D02*
X17040Y62733D01*
X17051Y62678D01*
X17077Y62591D01*
X17099Y62539D01*
X17142Y62458D01*
X17172Y62412D01*
X17230Y62343D01*
X17271Y62302D01*
X17340Y62245D01*
X17387Y62214D01*
X17467Y62170D01*
X17519Y62149D01*
X17605Y62122D01*
X17661Y62112D01*
X17752Y62103D01*
X17807Y62103D01*
X17898Y62112D01*
X17954Y62122D01*
X18040Y62149D01*
X18092Y62170D01*
X18172Y62214D01*
X18219Y62245D01*
X18288Y62302D01*
X18329Y62343D01*
X18387Y62412D01*
X18417Y62458D01*
X18460Y62539D01*
X18482Y62591D01*
X18508Y62678D01*
X18519Y62733D01*
X18528Y62824D01*
X18528Y62879D01*
X18519Y62970D01*
X18508Y63025D01*
X18482Y63111D01*
X18460Y63164D01*
X18417Y63244D01*
X18386Y63290D01*
X18328Y63360D01*
X18288Y63400D01*
X18219Y63458D01*
X18172Y63489D01*
X18092Y63532D01*
X18040Y63554D01*
X17953Y63580D01*
X17898Y63591D01*
X17807Y63600D01*
X17752Y63600D01*
X17661Y63591D01*
X17606Y63580D01*
X17519Y63554D01*
X17467Y63532D01*
X17387Y63489D01*
X17340Y63458D01*
X17271Y63400D01*
X17231Y63360D01*
X17173Y63290D01*
X17142Y63244D01*
X17099Y63164D01*
X17077Y63111D01*
X17051Y63025D01*
X17040Y62970D01*
X17032Y62879D01*
X17032Y62824D01*
G37*
G36*
X5621Y44866D02*
X5647Y44780D01*
X5669Y44727D01*
X5712Y44647D01*
X5743Y44601D01*
X5801Y44531D01*
X5841Y44491D01*
X5910Y44433D01*
X5957Y44402D01*
X6037Y44359D01*
X6089Y44337D01*
X6176Y44311D01*
X6143Y44318D01*
X6143Y44833D01*
X5628Y44833D01*
X5621Y44866D01*
G37*
G36*
X6143Y45762D02*
X6176Y45769D01*
X6089Y45742D01*
X6037Y45720D01*
X5957Y45677D01*
X5910Y45646D01*
X5841Y45589D01*
X5800Y45548D01*
X5742Y45479D01*
X5712Y45433D01*
X5669Y45352D01*
X5647Y45300D01*
X5621Y45213D01*
X5628Y45247D01*
X6143Y45247D01*
X6143Y45762D01*
G37*
G36*
X6523Y44311D02*
X6610Y44337D01*
X6662Y44359D01*
X6742Y44402D01*
X6789Y44433D01*
X6858Y44491D01*
X6898Y44531D01*
X6956Y44601D01*
X6987Y44647D01*
X7030Y44727D01*
X7052Y44780D01*
X7078Y44866D01*
X7071Y44833D01*
X6557Y44833D01*
X6557Y44318D01*
X6523Y44311D01*
G37*
G36*
X7078Y45213D02*
X7052Y45300D01*
X7030Y45352D01*
X6987Y45433D01*
X6957Y45479D01*
X6899Y45548D01*
X6858Y45589D01*
X6789Y45646D01*
X6742Y45677D01*
X6662Y45720D01*
X6610Y45742D01*
X6523Y45769D01*
X6557Y45762D01*
X6557Y45247D01*
X7071Y45247D01*
X7078Y45213D01*
G37*
G36*
X8142Y45012D02*
X8150Y44921D01*
X8161Y44866D01*
X8187Y44780D01*
X8209Y44727D01*
X8252Y44647D01*
X8283Y44601D01*
X8341Y44531D01*
X8381Y44491D01*
X8450Y44433D01*
X8497Y44402D01*
X8577Y44359D01*
X8629Y44337D01*
X8716Y44311D01*
X8771Y44300D01*
X8862Y44292D01*
X8917Y44292D01*
X9008Y44300D01*
X9063Y44311D01*
X9150Y44337D01*
X9202Y44359D01*
X9282Y44402D01*
X9329Y44433D01*
X9398Y44491D01*
X9438Y44531D01*
X9496Y44601D01*
X9527Y44647D01*
X9570Y44727D01*
X9592Y44780D01*
X9618Y44866D01*
X9629Y44921D01*
X9638Y45012D01*
X9638Y45067D01*
X9629Y45158D01*
X9618Y45213D01*
X9592Y45300D01*
X9570Y45352D01*
X9527Y45433D01*
X9497Y45479D01*
X9439Y45548D01*
X9398Y45589D01*
X9329Y45646D01*
X9282Y45677D01*
X9202Y45720D01*
X9150Y45742D01*
X9064Y45769D01*
X9008Y45779D01*
X8917Y45789D01*
X8862Y45789D01*
X8771Y45779D01*
X8715Y45769D01*
X8629Y45742D01*
X8577Y45720D01*
X8497Y45677D01*
X8450Y45646D01*
X8381Y45589D01*
X8340Y45548D01*
X8282Y45479D01*
X8252Y45433D01*
X8209Y45352D01*
X8187Y45300D01*
X8161Y45213D01*
X8150Y45158D01*
X8142Y45067D01*
X8142Y45012D01*
G37*
G36*
X10682Y45012D02*
X10690Y44921D01*
X10701Y44866D01*
X10727Y44780D01*
X10749Y44727D01*
X10792Y44647D01*
X10823Y44601D01*
X10881Y44531D01*
X10921Y44491D01*
X10990Y44433D01*
X11037Y44402D01*
X11117Y44359D01*
X11169Y44337D01*
X11256Y44311D01*
X11311Y44300D01*
X11402Y44292D01*
X11457Y44292D01*
X11548Y44300D01*
X11603Y44311D01*
X11690Y44337D01*
X11742Y44359D01*
X11822Y44402D01*
X11869Y44433D01*
X11938Y44491D01*
X11978Y44531D01*
X12036Y44601D01*
X12067Y44647D01*
X12110Y44727D01*
X12132Y44780D01*
X12158Y44866D01*
X12169Y44921D01*
X12178Y45012D01*
X12178Y45067D01*
X12169Y45158D01*
X12158Y45213D01*
X12132Y45300D01*
X12110Y45352D01*
X12067Y45433D01*
X12037Y45479D01*
X11979Y45548D01*
X11938Y45589D01*
X11869Y45646D01*
X11822Y45677D01*
X11742Y45720D01*
X11690Y45742D01*
X11604Y45769D01*
X11548Y45779D01*
X11457Y45789D01*
X11402Y45789D01*
X11311Y45779D01*
X11255Y45769D01*
X11169Y45742D01*
X11117Y45720D01*
X11037Y45677D01*
X10990Y45646D01*
X10921Y45589D01*
X10880Y45548D01*
X10822Y45479D01*
X10792Y45433D01*
X10749Y45352D01*
X10727Y45300D01*
X10701Y45213D01*
X10690Y45158D01*
X10682Y45067D01*
X10682Y45012D01*
G37*
G36*
X13222Y45012D02*
X13230Y44921D01*
X13241Y44866D01*
X13267Y44780D01*
X13289Y44727D01*
X13332Y44647D01*
X13363Y44601D01*
X13421Y44531D01*
X13461Y44491D01*
X13530Y44433D01*
X13577Y44402D01*
X13657Y44359D01*
X13709Y44337D01*
X13796Y44311D01*
X13851Y44300D01*
X13942Y44292D01*
X13997Y44292D01*
X14088Y44300D01*
X14143Y44311D01*
X14230Y44337D01*
X14282Y44359D01*
X14362Y44402D01*
X14409Y44433D01*
X14478Y44491D01*
X14518Y44531D01*
X14576Y44601D01*
X14607Y44647D01*
X14650Y44727D01*
X14672Y44780D01*
X14698Y44866D01*
X14709Y44921D01*
X14718Y45012D01*
X14718Y45067D01*
X14709Y45158D01*
X14698Y45213D01*
X14672Y45300D01*
X14650Y45352D01*
X14607Y45433D01*
X14577Y45479D01*
X14519Y45548D01*
X14478Y45589D01*
X14409Y45646D01*
X14362Y45677D01*
X14282Y45720D01*
X14230Y45742D01*
X14144Y45769D01*
X14088Y45779D01*
X13997Y45789D01*
X13942Y45789D01*
X13851Y45779D01*
X13795Y45769D01*
X13709Y45742D01*
X13657Y45720D01*
X13577Y45677D01*
X13530Y45646D01*
X13461Y45589D01*
X13420Y45548D01*
X13362Y45479D01*
X13332Y45433D01*
X13289Y45352D01*
X13267Y45300D01*
X13241Y45213D01*
X13230Y45158D01*
X13222Y45067D01*
X13222Y45012D01*
G37*
G36*
X18302Y45012D02*
X18310Y44921D01*
X18321Y44866D01*
X18347Y44780D01*
X18369Y44727D01*
X18412Y44647D01*
X18443Y44601D01*
X18501Y44531D01*
X18541Y44491D01*
X18610Y44433D01*
X18657Y44402D01*
X18737Y44359D01*
X18789Y44337D01*
X18876Y44311D01*
X18931Y44300D01*
X19022Y44292D01*
X19077Y44292D01*
X19168Y44300D01*
X19223Y44311D01*
X19310Y44337D01*
X19362Y44359D01*
X19442Y44402D01*
X19489Y44433D01*
X19558Y44491D01*
X19598Y44531D01*
X19656Y44601D01*
X19687Y44647D01*
X19730Y44727D01*
X19752Y44780D01*
X19778Y44866D01*
X19789Y44921D01*
X19798Y45012D01*
X19798Y45067D01*
X19789Y45158D01*
X19778Y45213D01*
X19752Y45300D01*
X19730Y45352D01*
X19687Y45433D01*
X19657Y45479D01*
X19599Y45548D01*
X19558Y45589D01*
X19489Y45646D01*
X19442Y45677D01*
X19362Y45720D01*
X19310Y45742D01*
X19224Y45769D01*
X19168Y45779D01*
X19077Y45789D01*
X19022Y45789D01*
X18931Y45779D01*
X18875Y45769D01*
X18789Y45742D01*
X18737Y45720D01*
X18657Y45677D01*
X18610Y45646D01*
X18541Y45589D01*
X18500Y45548D01*
X18442Y45479D01*
X18412Y45433D01*
X18369Y45352D01*
X18347Y45300D01*
X18321Y45213D01*
X18310Y45158D01*
X18302Y45067D01*
X18302Y45012D01*
G37*
G36*
X20842Y45012D02*
X20850Y44921D01*
X20861Y44866D01*
X20887Y44780D01*
X20909Y44727D01*
X20952Y44647D01*
X20983Y44601D01*
X21041Y44531D01*
X21081Y44491D01*
X21150Y44433D01*
X21197Y44402D01*
X21277Y44359D01*
X21329Y44337D01*
X21416Y44311D01*
X21471Y44300D01*
X21562Y44292D01*
X21617Y44292D01*
X21708Y44300D01*
X21763Y44311D01*
X21850Y44337D01*
X21902Y44359D01*
X21982Y44402D01*
X22029Y44433D01*
X22098Y44491D01*
X22138Y44531D01*
X22196Y44601D01*
X22227Y44647D01*
X22270Y44727D01*
X22292Y44780D01*
X22318Y44866D01*
X22329Y44921D01*
X22338Y45012D01*
X22338Y45067D01*
X22329Y45158D01*
X22318Y45213D01*
X22292Y45300D01*
X22270Y45352D01*
X22227Y45433D01*
X22197Y45479D01*
X22139Y45548D01*
X22098Y45589D01*
X22029Y45646D01*
X21982Y45677D01*
X21902Y45720D01*
X21850Y45742D01*
X21764Y45769D01*
X21708Y45779D01*
X21617Y45789D01*
X21562Y45789D01*
X21471Y45779D01*
X21415Y45769D01*
X21329Y45742D01*
X21277Y45720D01*
X21197Y45677D01*
X21150Y45646D01*
X21081Y45589D01*
X21040Y45548D01*
X20982Y45479D01*
X20952Y45433D01*
X20909Y45352D01*
X20887Y45300D01*
X20861Y45213D01*
X20850Y45158D01*
X20842Y45067D01*
X20842Y45012D01*
G37*
G36*
X12814Y3663D02*
X12823Y3627D01*
X12857Y3520D01*
X12870Y3487D01*
X12919Y3383D01*
X12936Y3352D01*
X12997Y3256D01*
X13019Y3227D01*
X13091Y3139D01*
X13115Y3113D01*
X13198Y3036D01*
X13226Y3012D01*
X13317Y2946D01*
X13348Y2927D01*
X13447Y2872D01*
X13479Y2857D01*
X13584Y2815D01*
X13619Y2805D01*
X13728Y2776D01*
X13653Y2789D01*
X13653Y3625D01*
X12821Y3625D01*
X12814Y3663D01*
G37*
G36*
X13653Y5092D02*
X13728Y5105D01*
X13620Y5078D01*
X13585Y5066D01*
X13480Y5025D01*
X13447Y5009D01*
X13348Y4954D01*
X13317Y4935D01*
X13226Y4868D01*
X13197Y4845D01*
X13115Y4768D01*
X13091Y4742D01*
X13019Y4654D01*
X12997Y4625D01*
X12936Y4529D01*
X12919Y4498D01*
X12870Y4395D01*
X12857Y4362D01*
X12823Y4254D01*
X12814Y4219D01*
X12821Y4257D01*
X13653Y4257D01*
X13653Y5092D01*
G37*
G36*
X14211Y2776D02*
X14320Y2805D01*
X14355Y2815D01*
X14460Y2857D01*
X14492Y2872D01*
X14591Y2927D01*
X14622Y2946D01*
X14713Y3012D01*
X14741Y3036D01*
X14824Y3113D01*
X14848Y3139D01*
X14920Y3227D01*
X14942Y3256D01*
X15003Y3352D01*
X15020Y3383D01*
X15069Y3487D01*
X15082Y3520D01*
X15116Y3627D01*
X15125Y3663D01*
X15118Y3625D01*
X14287Y3625D01*
X14287Y2789D01*
X14211Y2776D01*
G37*
G36*
X15125Y4219D02*
X15116Y4254D01*
X15082Y4362D01*
X15069Y4395D01*
X15020Y4498D01*
X15003Y4529D01*
X14942Y4625D01*
X14920Y4654D01*
X14848Y4742D01*
X14824Y4768D01*
X14742Y4845D01*
X14713Y4868D01*
X14622Y4935D01*
X14591Y4954D01*
X14492Y5009D01*
X14459Y5025D01*
X14354Y5066D01*
X14319Y5078D01*
X14211Y5105D01*
X14287Y5092D01*
X14287Y4257D01*
X15118Y4257D01*
X15125Y4219D01*
G37*
G36*
X19572Y19870D02*
X19580Y19780D01*
X19591Y19725D01*
X19617Y19638D01*
X19639Y19586D01*
X19682Y19505D01*
X19713Y19459D01*
X19771Y19389D01*
X19811Y19349D01*
X19879Y19292D01*
X19927Y19261D01*
X20007Y19217D01*
X20059Y19196D01*
X20145Y19169D01*
X20201Y19159D01*
X20292Y19150D01*
X20347Y19150D01*
X20438Y19159D01*
X20494Y19169D01*
X20580Y19196D01*
X20632Y19217D01*
X20712Y19261D01*
X20760Y19292D01*
X20828Y19349D01*
X20868Y19389D01*
X20926Y19459D01*
X20957Y19505D01*
X21000Y19586D01*
X21022Y19638D01*
X21048Y19725D01*
X21059Y19780D01*
X21068Y19870D01*
X21068Y19926D01*
X21059Y20016D01*
X21048Y20071D01*
X21022Y20158D01*
X21000Y20211D01*
X20957Y20291D01*
X20926Y20337D01*
X20868Y20407D01*
X20828Y20447D01*
X20759Y20505D01*
X20712Y20536D01*
X20632Y20579D01*
X20580Y20601D01*
X20493Y20627D01*
X20438Y20638D01*
X20347Y20647D01*
X20292Y20647D01*
X20201Y20638D01*
X20146Y20627D01*
X20059Y20601D01*
X20007Y20579D01*
X19927Y20536D01*
X19880Y20505D01*
X19811Y20447D01*
X19771Y20407D01*
X19713Y20337D01*
X19682Y20291D01*
X19639Y20211D01*
X19617Y20158D01*
X19591Y20071D01*
X19580Y20016D01*
X19572Y19926D01*
X19572Y19870D01*
G37*
G36*
X4332Y24950D02*
X4340Y24860D01*
X4351Y24805D01*
X4377Y24718D01*
X4399Y24666D01*
X4442Y24585D01*
X4473Y24539D01*
X4531Y24469D01*
X4571Y24429D01*
X4639Y24372D01*
X4687Y24341D01*
X4767Y24297D01*
X4819Y24276D01*
X4905Y24249D01*
X4961Y24239D01*
X5052Y24230D01*
X5107Y24230D01*
X5198Y24239D01*
X5254Y24249D01*
X5340Y24276D01*
X5392Y24297D01*
X5472Y24341D01*
X5520Y24372D01*
X5588Y24429D01*
X5628Y24469D01*
X5686Y24539D01*
X5717Y24585D01*
X5760Y24666D01*
X5782Y24718D01*
X5808Y24805D01*
X5819Y24860D01*
X5828Y24950D01*
X5828Y25006D01*
X5819Y25096D01*
X5808Y25151D01*
X5782Y25238D01*
X5760Y25291D01*
X5717Y25371D01*
X5686Y25417D01*
X5628Y25487D01*
X5588Y25527D01*
X5519Y25585D01*
X5472Y25616D01*
X5392Y25659D01*
X5340Y25681D01*
X5253Y25707D01*
X5198Y25718D01*
X5107Y25727D01*
X5052Y25727D01*
X4961Y25718D01*
X4906Y25707D01*
X4819Y25681D01*
X4767Y25659D01*
X4687Y25616D01*
X4640Y25585D01*
X4571Y25527D01*
X4531Y25487D01*
X4473Y25417D01*
X4442Y25371D01*
X4399Y25291D01*
X4377Y25238D01*
X4351Y25151D01*
X4340Y25096D01*
X4332Y25006D01*
X4332Y24950D01*
G37*
G36*
X4332Y22410D02*
X4340Y22320D01*
X4351Y22265D01*
X4377Y22178D01*
X4399Y22126D01*
X4442Y22045D01*
X4473Y21999D01*
X4531Y21929D01*
X4571Y21889D01*
X4639Y21832D01*
X4687Y21801D01*
X4767Y21757D01*
X4819Y21736D01*
X4905Y21709D01*
X4961Y21699D01*
X5052Y21690D01*
X5107Y21690D01*
X5198Y21699D01*
X5254Y21709D01*
X5340Y21736D01*
X5392Y21757D01*
X5472Y21801D01*
X5520Y21832D01*
X5588Y21889D01*
X5628Y21929D01*
X5686Y21999D01*
X5717Y22045D01*
X5760Y22126D01*
X5782Y22178D01*
X5808Y22265D01*
X5819Y22320D01*
X5828Y22410D01*
X5828Y22466D01*
X5819Y22556D01*
X5808Y22611D01*
X5782Y22698D01*
X5760Y22751D01*
X5717Y22831D01*
X5686Y22877D01*
X5628Y22947D01*
X5588Y22987D01*
X5519Y23045D01*
X5472Y23076D01*
X5392Y23119D01*
X5340Y23141D01*
X5253Y23167D01*
X5198Y23178D01*
X5107Y23187D01*
X5052Y23187D01*
X4961Y23178D01*
X4906Y23167D01*
X4819Y23141D01*
X4767Y23119D01*
X4687Y23076D01*
X4640Y23045D01*
X4571Y22987D01*
X4531Y22947D01*
X4473Y22877D01*
X4442Y22831D01*
X4399Y22751D01*
X4377Y22698D01*
X4351Y22611D01*
X4340Y22556D01*
X4332Y22466D01*
X4332Y22410D01*
G37*
G36*
X19572Y22410D02*
X19580Y22320D01*
X19591Y22265D01*
X19617Y22178D01*
X19639Y22126D01*
X19682Y22045D01*
X19713Y21999D01*
X19771Y21929D01*
X19811Y21889D01*
X19879Y21832D01*
X19927Y21801D01*
X20007Y21757D01*
X20059Y21736D01*
X20145Y21709D01*
X20201Y21699D01*
X20292Y21690D01*
X20347Y21690D01*
X20438Y21699D01*
X20494Y21709D01*
X20580Y21736D01*
X20632Y21757D01*
X20712Y21801D01*
X20760Y21832D01*
X20828Y21889D01*
X20868Y21929D01*
X20926Y21999D01*
X20957Y22045D01*
X21000Y22126D01*
X21022Y22178D01*
X21048Y22265D01*
X21059Y22320D01*
X21068Y22410D01*
X21068Y22466D01*
X21059Y22556D01*
X21048Y22611D01*
X21022Y22698D01*
X21000Y22751D01*
X20957Y22831D01*
X20926Y22877D01*
X20868Y22947D01*
X20828Y22987D01*
X20759Y23045D01*
X20712Y23076D01*
X20632Y23119D01*
X20580Y23141D01*
X20493Y23167D01*
X20438Y23178D01*
X20347Y23187D01*
X20292Y23187D01*
X20201Y23178D01*
X20146Y23167D01*
X20059Y23141D01*
X20007Y23119D01*
X19927Y23076D01*
X19880Y23045D01*
X19811Y22987D01*
X19771Y22947D01*
X19713Y22877D01*
X19682Y22831D01*
X19639Y22751D01*
X19617Y22698D01*
X19591Y22611D01*
X19580Y22556D01*
X19572Y22466D01*
X19572Y22410D01*
G37*
G36*
X19572Y24950D02*
X19580Y24860D01*
X19591Y24805D01*
X19617Y24718D01*
X19639Y24666D01*
X19682Y24585D01*
X19713Y24539D01*
X19771Y24469D01*
X19811Y24429D01*
X19879Y24372D01*
X19927Y24341D01*
X20007Y24297D01*
X20059Y24276D01*
X20145Y24249D01*
X20201Y24239D01*
X20292Y24230D01*
X20347Y24230D01*
X20438Y24239D01*
X20494Y24249D01*
X20580Y24276D01*
X20632Y24297D01*
X20712Y24341D01*
X20760Y24372D01*
X20828Y24429D01*
X20868Y24469D01*
X20926Y24539D01*
X20957Y24585D01*
X21000Y24666D01*
X21022Y24718D01*
X21048Y24805D01*
X21059Y24860D01*
X21068Y24950D01*
X21068Y25006D01*
X21059Y25096D01*
X21048Y25151D01*
X21022Y25238D01*
X21000Y25291D01*
X20957Y25371D01*
X20926Y25417D01*
X20868Y25487D01*
X20828Y25527D01*
X20759Y25585D01*
X20712Y25616D01*
X20632Y25659D01*
X20580Y25681D01*
X20493Y25707D01*
X20438Y25718D01*
X20347Y25727D01*
X20292Y25727D01*
X20201Y25718D01*
X20146Y25707D01*
X20059Y25681D01*
X20007Y25659D01*
X19927Y25616D01*
X19880Y25585D01*
X19811Y25527D01*
X19771Y25487D01*
X19713Y25417D01*
X19682Y25371D01*
X19639Y25291D01*
X19617Y25238D01*
X19591Y25151D01*
X19580Y25096D01*
X19572Y25006D01*
X19572Y24950D01*
G37*
G36*
X4332Y14790D02*
X4340Y14700D01*
X4351Y14645D01*
X4377Y14558D01*
X4399Y14506D01*
X4442Y14425D01*
X4473Y14379D01*
X4531Y14309D01*
X4571Y14269D01*
X4639Y14212D01*
X4687Y14181D01*
X4767Y14137D01*
X4819Y14116D01*
X4905Y14089D01*
X4961Y14079D01*
X5052Y14070D01*
X5107Y14070D01*
X5198Y14079D01*
X5254Y14089D01*
X5340Y14116D01*
X5392Y14137D01*
X5472Y14181D01*
X5520Y14212D01*
X5588Y14269D01*
X5628Y14309D01*
X5686Y14379D01*
X5717Y14425D01*
X5760Y14506D01*
X5782Y14558D01*
X5808Y14645D01*
X5819Y14700D01*
X5828Y14790D01*
X5828Y14846D01*
X5819Y14936D01*
X5808Y14991D01*
X5782Y15078D01*
X5760Y15131D01*
X5717Y15211D01*
X5686Y15257D01*
X5628Y15327D01*
X5588Y15367D01*
X5519Y15425D01*
X5472Y15456D01*
X5392Y15499D01*
X5340Y15521D01*
X5253Y15547D01*
X5198Y15558D01*
X5107Y15567D01*
X5052Y15567D01*
X4961Y15558D01*
X4906Y15547D01*
X4819Y15521D01*
X4767Y15499D01*
X4687Y15456D01*
X4640Y15425D01*
X4571Y15367D01*
X4531Y15327D01*
X4473Y15257D01*
X4442Y15211D01*
X4399Y15131D01*
X4377Y15078D01*
X4351Y14991D01*
X4340Y14936D01*
X4332Y14846D01*
X4332Y14790D01*
G37*
G36*
X4332Y12250D02*
X4340Y12160D01*
X4351Y12105D01*
X4377Y12018D01*
X4399Y11966D01*
X4442Y11885D01*
X4473Y11839D01*
X4531Y11769D01*
X4571Y11729D01*
X4639Y11672D01*
X4687Y11641D01*
X4767Y11597D01*
X4819Y11576D01*
X4905Y11549D01*
X4961Y11539D01*
X5052Y11530D01*
X5107Y11530D01*
X5198Y11539D01*
X5254Y11549D01*
X5340Y11576D01*
X5392Y11597D01*
X5472Y11641D01*
X5520Y11672D01*
X5588Y11729D01*
X5628Y11769D01*
X5686Y11839D01*
X5717Y11885D01*
X5760Y11966D01*
X5782Y12018D01*
X5808Y12105D01*
X5819Y12160D01*
X5828Y12250D01*
X5828Y12306D01*
X5819Y12396D01*
X5808Y12451D01*
X5782Y12538D01*
X5760Y12591D01*
X5717Y12671D01*
X5686Y12717D01*
X5628Y12787D01*
X5588Y12827D01*
X5519Y12885D01*
X5472Y12916D01*
X5392Y12959D01*
X5340Y12981D01*
X5253Y13007D01*
X5198Y13018D01*
X5107Y13027D01*
X5052Y13027D01*
X4961Y13018D01*
X4906Y13007D01*
X4819Y12981D01*
X4767Y12959D01*
X4687Y12916D01*
X4640Y12885D01*
X4571Y12827D01*
X4531Y12787D01*
X4473Y12717D01*
X4442Y12671D01*
X4399Y12591D01*
X4377Y12538D01*
X4351Y12451D01*
X4340Y12396D01*
X4332Y12306D01*
X4332Y12250D01*
G37*
G36*
X19591Y14645D02*
X19617Y14558D01*
X19639Y14506D01*
X19682Y14425D01*
X19713Y14379D01*
X19771Y14309D01*
X19811Y14269D01*
X19879Y14212D01*
X19927Y14181D01*
X20007Y14137D01*
X20059Y14116D01*
X20146Y14089D01*
X20113Y14096D01*
X20113Y14612D01*
X19598Y14612D01*
X19591Y14645D01*
G37*
G36*
X20113Y15540D02*
X20145Y15547D01*
X20059Y15521D01*
X20007Y15499D01*
X19927Y15456D01*
X19880Y15425D01*
X19811Y15367D01*
X19771Y15327D01*
X19713Y15257D01*
X19682Y15211D01*
X19639Y15131D01*
X19617Y15078D01*
X19591Y14991D01*
X19598Y15025D01*
X20113Y15025D01*
X20113Y15540D01*
G37*
G36*
X20493Y14089D02*
X20580Y14116D01*
X20632Y14137D01*
X20712Y14181D01*
X20760Y14212D01*
X20828Y14269D01*
X20868Y14309D01*
X20926Y14379D01*
X20957Y14425D01*
X21000Y14506D01*
X21022Y14558D01*
X21048Y14645D01*
X21041Y14612D01*
X20527Y14612D01*
X20527Y14096D01*
X20493Y14089D01*
G37*
G36*
X21048Y14991D02*
X21022Y15078D01*
X21000Y15131D01*
X20957Y15211D01*
X20926Y15257D01*
X20868Y15327D01*
X20828Y15367D01*
X20759Y15425D01*
X20712Y15456D01*
X20632Y15499D01*
X20580Y15521D01*
X20494Y15547D01*
X20527Y15540D01*
X20527Y15025D01*
X21041Y15025D01*
X21048Y14991D01*
G37*
G36*
X19572Y17330D02*
X19580Y17240D01*
X19591Y17185D01*
X19617Y17098D01*
X19639Y17046D01*
X19682Y16965D01*
X19713Y16919D01*
X19771Y16849D01*
X19811Y16809D01*
X19879Y16752D01*
X19927Y16721D01*
X20007Y16677D01*
X20059Y16656D01*
X20145Y16629D01*
X20201Y16619D01*
X20292Y16610D01*
X20347Y16610D01*
X20438Y16619D01*
X20494Y16629D01*
X20580Y16656D01*
X20632Y16677D01*
X20712Y16721D01*
X20760Y16752D01*
X20828Y16809D01*
X20868Y16849D01*
X20926Y16919D01*
X20957Y16965D01*
X21000Y17046D01*
X21022Y17098D01*
X21048Y17185D01*
X21059Y17240D01*
X21068Y17330D01*
X21068Y17386D01*
X21059Y17476D01*
X21048Y17531D01*
X21022Y17618D01*
X21000Y17671D01*
X20957Y17751D01*
X20926Y17797D01*
X20868Y17867D01*
X20828Y17907D01*
X20759Y17965D01*
X20712Y17996D01*
X20632Y18039D01*
X20580Y18061D01*
X20493Y18087D01*
X20438Y18098D01*
X20347Y18107D01*
X20292Y18107D01*
X20201Y18098D01*
X20146Y18087D01*
X20059Y18061D01*
X20007Y18039D01*
X19927Y17996D01*
X19880Y17965D01*
X19811Y17907D01*
X19771Y17867D01*
X19713Y17797D01*
X19682Y17751D01*
X19639Y17671D01*
X19617Y17618D01*
X19591Y17531D01*
X19580Y17476D01*
X19572Y17386D01*
X19572Y17330D01*
G37*
%LPD*%D10*
X0Y0D02*
X0Y100D01*
X0Y200D01*
X0Y300D01*
X0Y400D01*
X0Y500D01*
X0Y600D01*
X0Y700D01*
X0Y800D01*
X0Y900D01*
X0Y1000D01*
X0Y1100D01*
X0Y1200D01*
X0Y1300D01*
X0Y1400D01*
X0Y1500D01*
X0Y1600D01*
X0Y1700D01*
X0Y1800D01*
X0Y1900D01*
X0Y2000D01*
X0Y2100D01*
X0Y2200D01*
X0Y2300D01*
X0Y2400D01*
X0Y2500D01*
X0Y2600D01*
X0Y2700D01*
X0Y2800D01*
X0Y2900D01*
X0Y3000D01*
X0Y3100D01*
X0Y3200D01*
X0Y3300D01*
X0Y3400D01*
X0Y3500D01*
X0Y3600D01*
X0Y3700D01*
X0Y3800D01*
X0Y3900D01*
X0Y4000D01*
X0Y4100D01*
X0Y4200D01*
X0Y4300D01*
X0Y4400D01*
X0Y4500D01*
X0Y4600D01*
X0Y4700D01*
X0Y4800D01*
X0Y4900D01*
X0Y5000D01*
X0Y5100D01*
X0Y5200D01*
X0Y5300D01*
X0Y5400D01*
X0Y5500D01*
X0Y5600D01*
X0Y5700D01*
X0Y5800D01*
X0Y5900D01*
X0Y6000D01*
X0Y6100D01*
X0Y6200D01*
X0Y6300D01*
X0Y6400D01*
X0Y6500D01*
X0Y6600D01*
X0Y6700D01*
X0Y6800D01*
X0Y6900D01*
X0Y7000D01*
X0Y7100D01*
X0Y7200D01*
X0Y7300D01*
X0Y7400D01*
X0Y7500D01*
X0Y7600D01*
X0Y7700D01*
X0Y7800D01*
X0Y7900D01*
X0Y8000D01*
X0Y8100D01*
X0Y8200D01*
X0Y8300D01*
X0Y8400D01*
X0Y8500D01*
X0Y8600D01*
X0Y8700D01*
X0Y8800D01*
X0Y8900D01*
X0Y9000D01*
X0Y9100D01*
X0Y9200D01*
X0Y9300D01*
X0Y9400D01*
X0Y9500D01*
X0Y9600D01*
X0Y9700D01*
X0Y9800D01*
X0Y9900D01*
X0Y10000D01*
X0Y10100D01*
X0Y10200D01*
X0Y10300D01*
X0Y10400D01*
X0Y10500D01*
X0Y10600D01*
X0Y10700D01*
X0Y10800D01*
X0Y10900D01*
X0Y11000D01*
X0Y11100D01*
X0Y11200D01*
X0Y11300D01*
X0Y11400D01*
X0Y11500D01*
X0Y11600D01*
X0Y11700D01*
X0Y11800D01*
X0Y11900D01*
X0Y12000D01*
X0Y12100D01*
X0Y12200D01*
X0Y12300D01*
X0Y12400D01*
X0Y12500D01*
X0Y12600D01*
X0Y12700D01*
X0Y12800D01*
X0Y12900D01*
X0Y13000D01*
X0Y13100D01*
X0Y13200D01*
X0Y13300D01*
X0Y13400D01*
X0Y13500D01*
X0Y13600D01*
X0Y13700D01*
X0Y13800D01*
X0Y13900D01*
X0Y14000D01*
X0Y14100D01*
X0Y14200D01*
X0Y14300D01*
X0Y14400D01*
X0Y14500D01*
X0Y14600D01*
X0Y14700D01*
X0Y14800D01*
X0Y14900D01*
X0Y15000D01*
X0Y15100D01*
X0Y15200D01*
X0Y15300D01*
X0Y15400D01*
X0Y15500D01*
X0Y15600D01*
X0Y15700D01*
X0Y15800D01*
X0Y15900D01*
X0Y16000D01*
X0Y16100D01*
X0Y16200D01*
X0Y16300D01*
X0Y16400D01*
X0Y16500D01*
X0Y16600D01*
X0Y16700D01*
X0Y16800D01*
X0Y16900D01*
X0Y17000D01*
X0Y17100D01*
X0Y17200D01*
X0Y17300D01*
X0Y17400D01*
X0Y17500D01*
X0Y17600D01*
X0Y17700D01*
X0Y17800D01*
X0Y17900D01*
X0Y18000D01*
X0Y18100D01*
X0Y18200D01*
X0Y18300D01*
X0Y18400D01*
X0Y18500D01*
X0Y18600D01*
X0Y18700D01*
X0Y18800D01*
X0Y18900D01*
X0Y19000D01*
X0Y19100D01*
X0Y19200D01*
X0Y19300D01*
X0Y19400D01*
X0Y19500D01*
X0Y19600D01*
X0Y19700D01*
X0Y19800D01*
X0Y19900D01*
X0Y20000D01*
X0Y20100D01*
X0Y20200D01*
X0Y20300D01*
X0Y20400D01*
X0Y20500D01*
X0Y20600D01*
X0Y20700D01*
X0Y20800D01*
X0Y20900D01*
X0Y21000D01*
X0Y21100D01*
X0Y21200D01*
X0Y21300D01*
X0Y21400D01*
X0Y21500D01*
X0Y21600D01*
X0Y21700D01*
X0Y21800D01*
X0Y21900D01*
X0Y22000D01*
X0Y22100D01*
X0Y22200D01*
X0Y22300D01*
X0Y22400D01*
X0Y22500D01*
X0Y22600D01*
X0Y22700D01*
X0Y22800D01*
X0Y22900D01*
X0Y23000D01*
X0Y23100D01*
X0Y23200D01*
X0Y23300D01*
X0Y23400D01*
X0Y23500D01*
X0Y23600D01*
X0Y23700D01*
X0Y23800D01*
X0Y23900D01*
X0Y24000D01*
X0Y24100D01*
X0Y24200D01*
X0Y24300D01*
X0Y24400D01*
X0Y24500D01*
X0Y24600D01*
X0Y24700D01*
X0Y24800D01*
X0Y24900D01*
X0Y25000D01*
X0Y25100D01*
X0Y25200D01*
X0Y25300D01*
X0Y25400D01*
X0Y25500D01*
X0Y25600D01*
X0Y25700D01*
X0Y25800D01*
X0Y25900D01*
X0Y26000D01*
X0Y26100D01*
X0Y26200D01*
X0Y26300D01*
X0Y26400D01*
X0Y26500D01*
X0Y26600D01*
X0Y26700D01*
X0Y26800D01*
X0Y26900D01*
X0Y27000D01*
X0Y27100D01*
X0Y27200D01*
X0Y27300D01*
X0Y27400D01*
X0Y27500D01*
X0Y27600D01*
X0Y27700D01*
X0Y27800D01*
X0Y27900D01*
X0Y28000D01*
X0Y28100D01*
X0Y28200D01*
X0Y28300D01*
X0Y28400D01*
X0Y28500D01*
X0Y28600D01*
X0Y28700D01*
X0Y28800D01*
X0Y28900D01*
X0Y29000D01*
X0Y29100D01*
X0Y29200D01*
X0Y29300D01*
X0Y29400D01*
X0Y29500D01*
X0Y29600D01*
X0Y29700D01*
X0Y29800D01*
X0Y29900D01*
X0Y30000D01*
X0Y30100D01*
X0Y30200D01*
X0Y30300D01*
X0Y30400D01*
X0Y30500D01*
X0Y30600D01*
X0Y30700D01*
X0Y30800D01*
X0Y30900D01*
X0Y31000D01*
X0Y31100D01*
X0Y31200D01*
X0Y31300D01*
X0Y31400D01*
X0Y31500D01*
X0Y31600D01*
X0Y31700D01*
X0Y31800D01*
X0Y31900D01*
X0Y32000D01*
X0Y32100D01*
X0Y32200D01*
X0Y32300D01*
X0Y32400D01*
X0Y32500D01*
X0Y32600D01*
X0Y32700D01*
X0Y32800D01*
X0Y32900D01*
X0Y33000D01*
X0Y33100D01*
X0Y33200D01*
X0Y33300D01*
X0Y33400D01*
X0Y33500D01*
X0Y33600D01*
X0Y33700D01*
X0Y33800D01*
X0Y33900D01*
X0Y34000D01*
X0Y34100D01*
X0Y34200D01*
X0Y34300D01*
X0Y34400D01*
X0Y34500D01*
X0Y34600D01*
X0Y34700D01*
X0Y34800D01*
X0Y34900D01*
X0Y35000D01*
X0Y35100D01*
X0Y35200D01*
X0Y35300D01*
X0Y35400D01*
X0Y35500D01*
X0Y35600D01*
X0Y35700D01*
X0Y35800D01*
X0Y35900D01*
X0Y36000D01*
X0Y36100D01*
X0Y36200D01*
X0Y36300D01*
X0Y36400D01*
X0Y36500D01*
X0Y36600D01*
X0Y36700D01*
X0Y36800D01*
X0Y36900D01*
X0Y37000D01*
X0Y37100D01*
X0Y37200D01*
X0Y37300D01*
X0Y37400D01*
X0Y37500D01*
X0Y37600D01*
X0Y37700D01*
X0Y37800D01*
X0Y37900D01*
X0Y38000D01*
X0Y38100D01*
X0Y38200D01*
X0Y38300D01*
X0Y38400D01*
X0Y38500D01*
X0Y38600D01*
X0Y38700D01*
X0Y38800D01*
X0Y38900D01*
X0Y39000D01*
X0Y39100D01*
X0Y39200D01*
X0Y39300D01*
X0Y39400D01*
X0Y39500D01*
X0Y39600D01*
X0Y39700D01*
X0Y39800D01*
X0Y39900D01*
X0Y40000D01*
X0Y40100D01*
X0Y40200D01*
X0Y40300D01*
X0Y40400D01*
X0Y40500D01*
X0Y40600D01*
X0Y40700D01*
X0Y40800D01*
X0Y40900D01*
X0Y41000D01*
X0Y41100D01*
X0Y41200D01*
X0Y41300D01*
X0Y41400D01*
X0Y41500D01*
X0Y41600D01*
X0Y41700D01*
X0Y41800D01*
X0Y41900D01*
X0Y42000D01*
X0Y42100D01*
X0Y42200D01*
X0Y42300D01*
X0Y42400D01*
X0Y42500D01*
X0Y42600D01*
X0Y42700D01*
X0Y42800D01*
X0Y42900D01*
X0Y43000D01*
X0Y43100D01*
X0Y43200D01*
X0Y43300D01*
X0Y43400D01*
X0Y43500D01*
X0Y43600D01*
X0Y43700D01*
X0Y43800D01*
X0Y43900D01*
X0Y44000D01*
X0Y44100D01*
X0Y44200D01*
X0Y44300D01*
X0Y44400D01*
X0Y44500D01*
X0Y44600D01*
X0Y44700D01*
X0Y44800D01*
X0Y44900D01*
X0Y45000D01*
X0Y45100D01*
X0Y45200D01*
X0Y45300D01*
X0Y45400D01*
X0Y45500D01*
X0Y45600D01*
X0Y45700D01*
X0Y45800D01*
X0Y45900D01*
X0Y46000D01*
X0Y46100D01*
X0Y46200D01*
X0Y46300D01*
X0Y46400D01*
X0Y46500D01*
X0Y46600D01*
X0Y46700D01*
X0Y46800D01*
X0Y46900D01*
X0Y47000D01*
X0Y47100D01*
X0Y47200D01*
X0Y47300D01*
X0Y47400D01*
X0Y47500D01*
X0Y47600D01*
X0Y47700D01*
X0Y47800D01*
X0Y47900D01*
X0Y48000D01*
X0Y48100D01*
X0Y48200D01*
X0Y48300D01*
X0Y48400D01*
X0Y48500D01*
X0Y48600D01*
X0Y48700D01*
X0Y48800D01*
X0Y48900D01*
X0Y49000D01*
X0Y49100D01*
X0Y49200D01*
X0Y49300D01*
X0Y49400D01*
X0Y49500D01*
X0Y49600D01*
X0Y49700D01*
X0Y49800D01*
X0Y49900D01*
X0Y50000D01*
X0Y50100D01*
X0Y50200D01*
X0Y50300D01*
X0Y50400D01*
X0Y50500D01*
X0Y50600D01*
X0Y50700D01*
X0Y50800D01*
X0Y50900D01*
X0Y51000D01*
X0Y51100D01*
X0Y51200D01*
X0Y51300D01*
X0Y51400D01*
X0Y51500D01*
X0Y51600D01*
X0Y51700D01*
X0Y51800D01*
X0Y51900D01*
X0Y52000D01*
X0Y52100D01*
X0Y52200D01*
X0Y52300D01*
X0Y52400D01*
X0Y52500D01*
X0Y52600D01*
X0Y52700D01*
X0Y52800D01*
X0Y52900D01*
X0Y53000D01*
X0Y53100D01*
X0Y53200D01*
X0Y53300D01*
X0Y53400D01*
X0Y53500D01*
X0Y53600D01*
X0Y53700D01*
X0Y53800D01*
X0Y53900D01*
X0Y54000D01*
X0Y54100D01*
X0Y54200D01*
X0Y54300D01*
X0Y54400D01*
X0Y54500D01*
X0Y54600D01*
X0Y54700D01*
X0Y54800D01*
X0Y54900D01*
X0Y55000D01*
X0Y55100D01*
X0Y55200D01*
X0Y55300D01*
X0Y55400D01*
X0Y55500D01*
X0Y55600D01*
X0Y55700D01*
X0Y55800D01*
X0Y55900D01*
X0Y56000D01*
X0Y56100D01*
X0Y56200D01*
X0Y56300D01*
X0Y56400D01*
X0Y56500D01*
X0Y56600D01*
X0Y56700D01*
X0Y56800D01*
X0Y56900D01*
X0Y57000D01*
X0Y57100D01*
X0Y57200D01*
X0Y57300D01*
X0Y57400D01*
X0Y57500D01*
X0Y57600D01*
X0Y57700D01*
X0Y57800D01*
X0Y57900D01*
X0Y58000D01*
X0Y58100D01*
X0Y58200D01*
X0Y58300D01*
X0Y58400D01*
X0Y58500D01*
X0Y58600D01*
X0Y58700D01*
X0Y58800D01*
X0Y58900D01*
X0Y59000D01*
X0Y59100D01*
X0Y59200D01*
X0Y59300D01*
X0Y59400D01*
X0Y59500D01*
X0Y59600D01*
X0Y59700D01*
X0Y59800D01*
X0Y59900D01*
X0Y60000D01*
X0Y60100D01*
X0Y60200D01*
X0Y60300D01*
X0Y60400D01*
X0Y60500D01*
X0Y60600D01*
X0Y60700D01*
X0Y60800D01*
X0Y60900D01*
X0Y61000D01*
X0Y61100D01*
X0Y61200D01*
X0Y61300D01*
X0Y61400D01*
X0Y61500D01*
X0Y61600D01*
X0Y61700D01*
X0Y61800D01*
X0Y61900D01*
X0Y62000D01*
X0Y62100D01*
X0Y62200D01*
X0Y62300D01*
X0Y62400D01*
X0Y62500D01*
X0Y62600D01*
X0Y62700D01*
X0Y62800D01*
X0Y62900D01*
X0Y63000D01*
X0Y63100D01*
X0Y63200D01*
X0Y63300D01*
X0Y63400D01*
X0Y63500D01*
X0Y63600D01*
X0Y63700D01*
X0Y63800D01*
X0Y63900D01*
X0Y64000D01*
X0Y64100D01*
X0Y64200D01*
X0Y64300D01*
X0Y64400D01*
X0Y64500D01*
X0Y64600D01*
X0Y64700D01*
X0Y64800D01*
X0Y64900D01*
X0Y65000D01*
X0Y65100D01*
X0Y65200D01*
X0Y65300D01*
X0Y65400D01*
X0Y65500D01*
X0Y65600D01*
X0Y65700D01*
X0Y65800D01*
X0Y65900D01*
X0Y66000D01*
X0Y66100D01*
X0Y66200D01*
X0Y66300D01*
X0Y66400D01*
X0Y66500D01*
X0Y66600D01*
X0Y66700D01*
X0Y66800D01*
X0Y66900D01*
X0Y67000D01*
X0Y67100D01*
X0Y67200D01*
X0Y67300D01*
X0Y67400D01*
X0Y67500D01*
X0Y67600D01*
X0Y67700D01*
X0Y67800D01*
X0Y67900D01*
X0Y68000D01*
X0Y68100D01*
X0Y68200D01*
X0Y68300D01*
X0Y68400D01*
X0Y68500D01*
X0Y68600D01*
X0Y68700D01*
X0Y68800D01*
X0Y68900D01*
X0Y69000D01*
X0Y69100D01*
X0Y69200D01*
X0Y69300D01*
X0Y69400D01*
X0Y69500D01*
X0Y69600D01*
X0Y69700D01*
X0Y69800D01*
X0Y69900D01*
X0Y70000D01*
X0Y70100D01*
X0Y70200D01*
X0Y70300D01*
X0Y70400D01*
X0Y70500D01*
X0Y70600D01*
X0Y70700D01*
X0Y70800D01*
X0Y70900D01*
X0Y71000D01*
X0Y71100D01*
X0Y71200D01*
X0Y71300D01*
X0Y71400D01*
X0Y71500D01*
X0Y71600D01*
X0Y71700D01*
X0Y71800D01*
X0Y71900D01*
X0Y72000D01*
X0Y72100D01*
X0Y72200D01*
X0Y72300D01*
X0Y72400D01*
X0Y72500D01*
X0Y72600D01*
X0Y72700D01*
X0Y72800D01*
X0Y72900D01*
X0Y73000D01*
X0Y73100D01*
X0Y73200D01*
X0Y73300D01*
X0Y73400D01*
X0Y73500D01*
X0Y73600D01*
X0Y73700D01*
X0Y73800D01*
X0Y73900D01*
X0Y74000D01*
X0Y74100D01*
X0Y74200D01*
X0Y74300D01*
X0Y74400D01*
X0Y74500D01*
X0Y74600D01*
X0Y74700D01*
X0Y74800D01*
X0Y74900D01*
X0Y75000D01*
X0Y75100D01*
X0Y75200D01*
X0Y75300D01*
X0Y75400D01*
X0Y75500D01*
X0Y75600D01*
X0Y75700D01*
X0Y75800D01*
X0Y75900D01*
X0Y76000D01*
X0Y76100D01*
X0Y76200D01*
X0Y76300D01*
X0Y76400D01*
X0Y76500D01*
X0Y76600D01*
X0Y76700D01*
X0Y76800D01*
X0Y76900D01*
X0Y77000D01*
X0Y77100D01*
X0Y77200D01*
X0Y77300D01*
X0Y77400D01*
X0Y77500D01*
X0Y77600D01*
X0Y77700D01*
X0Y77800D01*
X0Y77900D01*
X0Y78000D01*
X0Y78100D01*
X0Y78200D01*
X0Y78300D01*
X0Y78400D01*
X0Y78500D01*
X0Y78600D01*
X0Y78700D01*
X0Y78800D01*
X0Y78900D01*
X0Y79000D01*
X0Y79100D01*
X0Y79200D01*
X0Y79300D01*
X0Y79400D01*
X0Y79500D01*
X0Y79600D01*
X0Y79700D01*
X0Y79800D01*
X0Y79900D01*
X0Y80000D01*
X0Y80100D01*
X0Y80200D01*
X0Y80300D01*
X0Y80400D01*
X0Y80500D01*
X0Y80600D01*
X0Y80700D01*
X0Y80800D01*
X0Y80900D01*
X0Y81000D01*
X0Y81100D01*
X0Y81200D01*
X0Y81300D01*
X0Y81400D01*
X0Y81500D01*
X0Y81600D01*
X0Y81700D01*
X0Y81800D01*
X0Y81900D01*
X0Y82000D01*
X0Y82100D01*
X0Y82200D01*
X0Y82300D01*
X0Y82400D01*
X0Y82500D01*
X0Y82600D01*
X0Y82700D01*
X0Y82800D01*
X0Y82900D01*
X0Y83000D01*
X0Y83100D01*
X0Y83200D01*
X0Y83300D01*
X0Y83400D01*
X0Y83500D01*
X0Y83600D01*
X0Y83700D01*
X0Y83800D01*
X0Y83900D01*
X0Y84000D01*
X0Y84100D01*
X0Y84200D01*
X0Y84300D01*
X0Y84400D01*
X0Y84500D01*
X0Y84600D01*
X0Y84700D01*
X0Y84800D01*
X0Y84900D01*
X0Y85000D01*
X0Y85100D01*
X0Y85200D01*
X0Y85300D01*
X0Y85400D01*
X0Y85500D01*
X0Y85600D01*
X0Y85700D01*
X0Y85800D01*
X0Y85900D01*
X0Y86000D01*
X0Y86100D01*
X0Y86200D01*
X0Y86300D01*
X0Y86400D01*
X0Y86500D01*
X0Y86600D01*
X0Y86700D01*
X0Y86800D01*
X0Y86900D01*
X0Y87000D01*
X0Y87100D01*
X0Y87200D01*
X0Y87300D01*
X0Y87400D01*
X0Y87500D01*
X0Y87600D01*
X0Y87700D01*
X0Y87800D01*
X0Y87900D01*
X0Y88000D01*
X0Y88100D01*
X0Y88200D01*
X0Y88300D01*
X0Y88400D01*
X0Y88500D01*
X0Y88600D01*
X0Y88700D01*
X0Y88800D01*
X0Y88900D01*
X0Y89000D01*
X0Y89100D01*
X0Y89200D01*
X0Y89300D01*
X0Y89400D01*
X0Y89500D01*
X0Y89600D01*
X0Y89700D01*
X0Y89800D01*
X0Y89900D01*
X0Y90000D01*
X0Y90100D01*
X0Y90200D01*
X0Y90300D01*
X0Y90400D01*
X0Y90500D01*
X0Y90600D01*
X0Y90700D01*
X0Y90800D01*
X0Y90900D01*
X0Y91000D01*
X0Y91100D01*
X0Y91200D01*
X0Y91300D01*
X0Y91400D01*
X0Y91500D01*
X0Y91600D01*
X0Y91700D01*
X0Y91800D01*
X0Y91900D01*
X0Y92000D01*
X0Y92100D01*
X0Y92200D01*
X0Y92300D01*
X0Y92400D01*
X0Y92500D01*
X0Y92600D01*
X0Y92700D01*
X0Y92800D01*
X0Y92900D01*
X0Y93000D01*
X0Y93100D01*
X0Y93200D01*
X0Y93300D01*
X0Y93400D01*
X0Y93500D01*
X0Y93600D01*
X0Y93700D01*
X0Y93800D01*
X0Y93900D01*
X0Y94000D01*
X0Y94100D01*
X0Y94200D01*
X0Y94300D01*
X0Y94400D01*
X0Y94500D01*
X0Y94600D01*
X0Y94700D01*
X0Y94800D01*
X0Y94900D01*
X0Y95000D01*
X0Y95100D01*
X0Y95200D01*
X0Y95300D01*
X0Y95400D01*
X0Y95500D01*
X0Y95600D01*
X0Y95700D01*
X0Y95800D01*
X0Y95900D01*
X0Y96000D01*
X0Y96100D01*
X0Y96200D01*
X0Y96300D01*
X0Y96400D01*
X0Y96500D01*
X0Y96600D01*
X0Y96700D01*
X0Y96800D01*
X0Y96900D01*
X0Y97000D01*
X0Y97100D01*
X0Y97200D01*
X0Y97300D01*
X0Y97400D01*
X0Y97500D01*
X0Y97600D01*
X0Y97700D01*
X0Y97800D01*
X0Y97900D01*
X0Y98000D01*
X0Y98100D01*
X0Y98200D01*
X0Y98300D01*
X0Y98400D01*
X0Y98500D01*
X0Y98600D01*
X0Y98700D01*
X0Y98800D01*
X0Y98900D01*
X0Y99000D01*
X0Y99100D01*
X0Y99200D01*
X0Y99300D01*
X0Y99400D01*
X0Y99500D01*
X0Y99600D01*
X0Y99700D01*
X0Y99800D01*
X0Y99900D01*
X0Y100000D01*
X0Y100100D01*
X0Y100200D01*
X0Y100300D01*
X0Y100400D01*
X0Y100500D01*
X0Y100600D01*
X0Y100700D01*
X0Y100800D01*
X0Y100900D01*
X0Y101000D01*
X0Y101100D01*
X0Y101200D01*
X0Y101300D01*
X0Y101400D01*
X0Y101500D01*
X0Y101600D01*
X100Y101600D01*
X200Y101600D01*
X300Y101600D01*
X400Y101600D01*
X500Y101600D01*
X600Y101600D01*
X700Y101600D01*
X800Y101600D01*
X900Y101600D01*
X1000Y101600D01*
X1100Y101600D01*
X1200Y101600D01*
X1300Y101600D01*
X1400Y101600D01*
X1500Y101600D01*
X1600Y101600D01*
X1700Y101600D01*
X1800Y101600D01*
X1900Y101600D01*
X2000Y101600D01*
X2100Y101600D01*
X2200Y101600D01*
X2300Y101600D01*
X2400Y101600D01*
X2500Y101600D01*
X2600Y101600D01*
X2700Y101600D01*
X2800Y101600D01*
X2900Y101600D01*
X3000Y101600D01*
X3100Y101600D01*
X3200Y101600D01*
X3300Y101600D01*
X3400Y101600D01*
X3500Y101600D01*
X3600Y101600D01*
X3700Y101600D01*
X3800Y101600D01*
X3900Y101600D01*
X4000Y101600D01*
X4100Y101600D01*
X4200Y101600D01*
X4300Y101600D01*
X4400Y101600D01*
X4500Y101600D01*
X4600Y101600D01*
X4700Y101600D01*
X4800Y101600D01*
X4900Y101600D01*
X5000Y101600D01*
X5100Y101600D01*
X5200Y101600D01*
X5300Y101600D01*
X5400Y101600D01*
X5500Y101600D01*
X5600Y101600D01*
X5700Y101600D01*
X5800Y101600D01*
X5900Y101600D01*
X6000Y101600D01*
X6100Y101600D01*
X6200Y101600D01*
X6300Y101600D01*
X6400Y101600D01*
X6500Y101600D01*
X6600Y101600D01*
X6700Y101600D01*
X6800Y101600D01*
X6900Y101600D01*
X7000Y101600D01*
X7100Y101600D01*
X7200Y101600D01*
X7300Y101600D01*
X7400Y101600D01*
X7500Y101600D01*
X7600Y101600D01*
X7700Y101600D01*
X7800Y101600D01*
X7900Y101600D01*
X8000Y101600D01*
X8100Y101600D01*
X8200Y101600D01*
X8300Y101600D01*
X8400Y101600D01*
X8500Y101600D01*
X8600Y101600D01*
X8700Y101600D01*
X8800Y101600D01*
X8900Y101600D01*
X9000Y101600D01*
X9100Y101600D01*
X9200Y101600D01*
X9300Y101600D01*
X9400Y101600D01*
X9500Y101600D01*
X9600Y101600D01*
X9700Y101600D01*
X9800Y101600D01*
X9900Y101600D01*
X10000Y101600D01*
X10100Y101600D01*
X10200Y101600D01*
X10300Y101600D01*
X10400Y101600D01*
X10500Y101600D01*
X10600Y101600D01*
X10700Y101600D01*
X10800Y101600D01*
X10900Y101600D01*
X11000Y101600D01*
X11100Y101600D01*
X11200Y101600D01*
X11300Y101600D01*
X11400Y101600D01*
X11500Y101600D01*
X11600Y101600D01*
X11700Y101600D01*
X11800Y101600D01*
X11900Y101600D01*
X12000Y101600D01*
X12100Y101600D01*
X12200Y101600D01*
X12300Y101600D01*
X12400Y101600D01*
X12500Y101600D01*
X12600Y101600D01*
X12700Y101600D01*
X12800Y101600D01*
X12900Y101600D01*
X13000Y101600D01*
X13100Y101600D01*
X13200Y101600D01*
X13300Y101600D01*
X13400Y101600D01*
X13500Y101600D01*
X13600Y101600D01*
X13700Y101600D01*
X13800Y101600D01*
X13900Y101600D01*
X14000Y101600D01*
X14100Y101600D01*
X14200Y101600D01*
X14300Y101600D01*
X14400Y101600D01*
X14500Y101600D01*
X14600Y101600D01*
X14700Y101600D01*
X14800Y101600D01*
X14900Y101600D01*
X15000Y101600D01*
X15100Y101600D01*
X15200Y101600D01*
X15300Y101600D01*
X15400Y101600D01*
X15500Y101600D01*
X15600Y101600D01*
X15700Y101600D01*
X15800Y101600D01*
X15900Y101600D01*
X16000Y101600D01*
X16100Y101600D01*
X16200Y101600D01*
X16300Y101600D01*
X16400Y101600D01*
X16500Y101600D01*
X16600Y101600D01*
X16700Y101600D01*
X16800Y101600D01*
X16900Y101600D01*
X17000Y101600D01*
X17100Y101600D01*
X17200Y101600D01*
X17300Y101600D01*
X17400Y101600D01*
X17500Y101600D01*
X17600Y101600D01*
X17700Y101600D01*
X17800Y101600D01*
X17900Y101600D01*
X18000Y101600D01*
X18100Y101600D01*
X18200Y101600D01*
X18300Y101600D01*
X18400Y101600D01*
X18500Y101600D01*
X18600Y101600D01*
X18700Y101600D01*
X18800Y101600D01*
X18900Y101600D01*
X19000Y101600D01*
X19100Y101600D01*
X19200Y101600D01*
X19300Y101600D01*
X19400Y101600D01*
X19500Y101600D01*
X19600Y101600D01*
X19700Y101600D01*
X19800Y101600D01*
X19900Y101600D01*
X20000Y101600D01*
X20100Y101600D01*
X20200Y101600D01*
X20300Y101600D01*
X20400Y101600D01*
X20500Y101600D01*
X20600Y101600D01*
X20700Y101600D01*
X20800Y101600D01*
X20900Y101600D01*
X21000Y101600D01*
X21100Y101600D01*
X21200Y101600D01*
X21300Y101600D01*
X21400Y101600D01*
X21500Y101600D01*
X21600Y101600D01*
X21700Y101600D01*
X21800Y101600D01*
X21900Y101600D01*
X22000Y101600D01*
X22100Y101600D01*
X22200Y101600D01*
X22300Y101600D01*
X22400Y101600D01*
X22500Y101600D01*
X22600Y101600D01*
X22700Y101600D01*
X22800Y101600D01*
X22900Y101600D01*
X23000Y101600D01*
X23100Y101600D01*
X23200Y101600D01*
X23300Y101600D01*
X23400Y101600D01*
X23500Y101600D01*
X23600Y101600D01*
X23700Y101600D01*
X23800Y101600D01*
X23900Y101600D01*
X24000Y101600D01*
X24100Y101600D01*
X24200Y101600D01*
X24300Y101600D01*
X24400Y101600D01*
X24500Y101600D01*
X24600Y101600D01*
X24700Y101600D01*
X24800Y101600D01*
X24900Y101600D01*
X25000Y101600D01*
X25100Y101600D01*
X25200Y101600D01*
X25300Y101600D01*
X25400Y101600D01*
X25400Y101500D01*
X25400Y101400D01*
X25400Y101300D01*
X25400Y101200D01*
X25400Y101100D01*
X25400Y101000D01*
X25400Y100900D01*
X25400Y100800D01*
X25400Y100700D01*
X25400Y100600D01*
X25400Y100500D01*
X25400Y100400D01*
X25400Y100300D01*
X25400Y100200D01*
X25400Y100100D01*
X25400Y100000D01*
X25400Y99900D01*
X25400Y99800D01*
X25400Y99700D01*
X25400Y99600D01*
X25400Y99500D01*
X25400Y99400D01*
X25400Y99300D01*
X25400Y99200D01*
X25400Y99100D01*
X25400Y99000D01*
X25400Y98900D01*
X25400Y98800D01*
X25400Y98700D01*
X25400Y98600D01*
X25400Y98500D01*
X25400Y98400D01*
X25400Y98300D01*
X25400Y98200D01*
X25400Y98100D01*
X25400Y98000D01*
X25400Y97900D01*
X25400Y97800D01*
X25400Y97700D01*
X25400Y97600D01*
X25400Y97500D01*
X25400Y97400D01*
X25400Y97300D01*
X25400Y97200D01*
X25400Y97100D01*
X25400Y97000D01*
X25400Y96900D01*
X25400Y96800D01*
X25400Y96700D01*
X25400Y96600D01*
X25400Y96500D01*
X25400Y96400D01*
X25400Y96300D01*
X25400Y96200D01*
X25400Y96100D01*
X25400Y96000D01*
X25400Y95900D01*
X25400Y95800D01*
X25400Y95700D01*
X25400Y95600D01*
X25400Y95500D01*
X25400Y95400D01*
X25400Y95300D01*
X25400Y95200D01*
X25400Y95100D01*
X25400Y95000D01*
X25400Y94900D01*
X25400Y94800D01*
X25400Y94700D01*
X25400Y94600D01*
X25400Y94500D01*
X25400Y94400D01*
X25400Y94300D01*
X25400Y94200D01*
X25400Y94100D01*
X25400Y94000D01*
X25400Y93900D01*
X25400Y93800D01*
X25400Y93700D01*
X25400Y93600D01*
X25400Y93500D01*
X25400Y93400D01*
X25400Y93300D01*
X25400Y93200D01*
X25400Y93100D01*
X25400Y93000D01*
X25400Y92900D01*
X25400Y92800D01*
X25400Y92700D01*
X25400Y92600D01*
X25400Y92500D01*
X25400Y92400D01*
X25400Y92300D01*
X25400Y92200D01*
X25400Y92100D01*
X25400Y92000D01*
X25400Y91900D01*
X25400Y91800D01*
X25400Y91700D01*
X25400Y91600D01*
X25400Y91500D01*
X25400Y91400D01*
X25400Y91300D01*
X25400Y91200D01*
X25400Y91100D01*
X25400Y91000D01*
X25400Y90900D01*
X25400Y90800D01*
X25400Y90700D01*
X25400Y90600D01*
X25400Y90500D01*
X25400Y90400D01*
X25400Y90300D01*
X25400Y90200D01*
X25400Y90100D01*
X25400Y90000D01*
X25400Y89900D01*
X25400Y89800D01*
X25400Y89700D01*
X25400Y89600D01*
X25400Y89500D01*
X25400Y89400D01*
X25400Y89300D01*
X25400Y89200D01*
X25400Y89100D01*
X25400Y89000D01*
X25400Y88900D01*
X25400Y88800D01*
X25400Y88700D01*
X25400Y88600D01*
X25400Y88500D01*
X25400Y88400D01*
X25400Y88300D01*
X25400Y88200D01*
X25400Y88100D01*
X25400Y88000D01*
X25400Y87900D01*
X25400Y87800D01*
X25400Y87700D01*
X25400Y87600D01*
X25400Y87500D01*
X25400Y87400D01*
X25400Y87300D01*
X25400Y87200D01*
X25400Y87100D01*
X25400Y87000D01*
X25400Y86900D01*
X25400Y86800D01*
X25400Y86700D01*
X25400Y86600D01*
X25400Y86500D01*
X25400Y86400D01*
X25400Y86300D01*
X25400Y86200D01*
X25400Y86100D01*
X25400Y86000D01*
X25400Y85900D01*
X25400Y85800D01*
X25400Y85700D01*
X25400Y85600D01*
X25400Y85500D01*
X25400Y85400D01*
X25400Y85300D01*
X25400Y85200D01*
X25400Y85100D01*
X25400Y85000D01*
X25400Y84900D01*
X25400Y84800D01*
X25400Y84700D01*
X25400Y84600D01*
X25400Y84500D01*
X25400Y84400D01*
X25400Y84300D01*
X25400Y84200D01*
X25400Y84100D01*
X25400Y84000D01*
X25400Y83900D01*
X25400Y83800D01*
X25400Y83700D01*
X25400Y83600D01*
X25400Y83500D01*
X25400Y83400D01*
X25400Y83300D01*
X25400Y83200D01*
X25400Y83100D01*
X25400Y83000D01*
X25400Y82900D01*
X25400Y82800D01*
X25400Y82700D01*
X25400Y82600D01*
X25400Y82500D01*
X25400Y82400D01*
X25400Y82300D01*
X25400Y82200D01*
X25400Y82100D01*
X25400Y82000D01*
X25400Y81900D01*
X25400Y81800D01*
X25400Y81700D01*
X25400Y81600D01*
X25400Y81500D01*
X25400Y81400D01*
X25400Y81300D01*
X25400Y81200D01*
X25400Y81100D01*
X25400Y81000D01*
X25400Y80900D01*
X25400Y80800D01*
X25400Y80700D01*
X25400Y80600D01*
X25400Y80500D01*
X25400Y80400D01*
X25400Y80300D01*
X25400Y80200D01*
X25400Y80100D01*
X25400Y80000D01*
X25400Y79900D01*
X25400Y79800D01*
X25400Y79700D01*
X25400Y79600D01*
X25400Y79500D01*
X25400Y79400D01*
X25400Y79300D01*
X25400Y79200D01*
X25400Y79100D01*
X25400Y79000D01*
X25400Y78900D01*
X25400Y78800D01*
X25400Y78700D01*
X25400Y78600D01*
X25400Y78500D01*
X25400Y78400D01*
X25400Y78300D01*
X25400Y78200D01*
X25400Y78100D01*
X25400Y78000D01*
X25400Y77900D01*
X25400Y77800D01*
X25400Y77700D01*
X25400Y77600D01*
X25400Y77500D01*
X25400Y77400D01*
X25400Y77300D01*
X25400Y77200D01*
X25400Y77100D01*
X25400Y77000D01*
X25400Y76900D01*
X25400Y76800D01*
X25400Y76700D01*
X25400Y76600D01*
X25400Y76500D01*
X25400Y76400D01*
X25400Y76300D01*
X25400Y76200D01*
X25400Y76100D01*
X25400Y76000D01*
X25400Y75900D01*
X25400Y75800D01*
X25400Y75700D01*
X25400Y75600D01*
X25400Y75500D01*
X25400Y75400D01*
X25400Y75300D01*
X25400Y75200D01*
X25400Y75100D01*
X25400Y75000D01*
X25400Y74900D01*
X25400Y74800D01*
X25400Y74700D01*
X25400Y74600D01*
X25400Y74500D01*
X25400Y74400D01*
X25400Y74300D01*
X25400Y74200D01*
X25400Y74100D01*
X25400Y74000D01*
X25400Y73900D01*
X25400Y73800D01*
X25400Y73700D01*
X25400Y73600D01*
X25400Y73500D01*
X25400Y73400D01*
X25400Y73300D01*
X25400Y73200D01*
X25400Y73100D01*
X25400Y73000D01*
X25400Y72900D01*
X25400Y72800D01*
X25400Y72700D01*
X25400Y72600D01*
X25400Y72500D01*
X25400Y72400D01*
X25400Y72300D01*
X25400Y72200D01*
X25400Y72100D01*
X25400Y72000D01*
X25400Y71900D01*
X25400Y71800D01*
X25400Y71700D01*
X25400Y71600D01*
X25400Y71500D01*
X25400Y71400D01*
X25400Y71300D01*
X25400Y71200D01*
X25400Y71100D01*
X25400Y71000D01*
X25400Y70900D01*
X25400Y70800D01*
X25400Y70700D01*
X25400Y70600D01*
X25400Y70500D01*
X25400Y70400D01*
X25400Y70300D01*
X25400Y70200D01*
X25400Y70100D01*
X25400Y70000D01*
X25400Y69900D01*
X25400Y69800D01*
X25400Y69700D01*
X25400Y69600D01*
X25400Y69500D01*
X25400Y69400D01*
X25400Y69300D01*
X25400Y69200D01*
X25400Y69100D01*
X25400Y69000D01*
X25400Y68900D01*
X25400Y68800D01*
X25400Y68700D01*
X25400Y68600D01*
X25400Y68500D01*
X25400Y68400D01*
X25400Y68300D01*
X25400Y68200D01*
X25400Y68100D01*
X25400Y68000D01*
X25400Y67900D01*
X25400Y67800D01*
X25400Y67700D01*
X25400Y67600D01*
X25400Y67500D01*
X25400Y67400D01*
X25400Y67300D01*
X25400Y67200D01*
X25400Y67100D01*
X25400Y67000D01*
X25400Y66900D01*
X25400Y66800D01*
X25400Y66700D01*
X25400Y66600D01*
X25400Y66500D01*
X25400Y66400D01*
X25400Y66300D01*
X25400Y66200D01*
X25400Y66100D01*
X25400Y66000D01*
X25400Y65900D01*
X25400Y65800D01*
X25400Y65700D01*
X25400Y65600D01*
X25400Y65500D01*
X25400Y65400D01*
X25400Y65300D01*
X25400Y65200D01*
X25400Y65100D01*
X25400Y65000D01*
X25400Y64900D01*
X25400Y64800D01*
X25400Y64700D01*
X25400Y64600D01*
X25400Y64500D01*
X25400Y64400D01*
X25400Y64300D01*
X25400Y64200D01*
X25400Y64100D01*
X25400Y64000D01*
X25400Y63900D01*
X25400Y63800D01*
X25400Y63700D01*
X25400Y63600D01*
X25400Y63500D01*
X25400Y63400D01*
X25400Y63300D01*
X25400Y63200D01*
X25400Y63100D01*
X25400Y63000D01*
X25400Y62900D01*
X25400Y62800D01*
X25400Y62700D01*
X25400Y62600D01*
X25400Y62500D01*
X25400Y62400D01*
X25400Y62300D01*
X25400Y62200D01*
X25400Y62100D01*
X25400Y62000D01*
X25400Y61900D01*
X25400Y61800D01*
X25400Y61700D01*
X25400Y61600D01*
X25400Y61500D01*
X25400Y61400D01*
X25400Y61300D01*
X25400Y61200D01*
X25400Y61100D01*
X25400Y61000D01*
X25400Y60900D01*
X25400Y60800D01*
X25400Y60700D01*
X25400Y60600D01*
X25400Y60500D01*
X25400Y60400D01*
X25400Y60300D01*
X25400Y60200D01*
X25400Y60100D01*
X25400Y60000D01*
X25400Y59900D01*
X25400Y59800D01*
X25400Y59700D01*
X25400Y59600D01*
X25400Y59500D01*
X25400Y59400D01*
X25400Y59300D01*
X25400Y59200D01*
X25400Y59100D01*
X25400Y59000D01*
X25400Y58900D01*
X25400Y58800D01*
X25400Y58700D01*
X25400Y58600D01*
X25400Y58500D01*
X25400Y58400D01*
X25400Y58300D01*
X25400Y58200D01*
X25400Y58100D01*
X25400Y58000D01*
X25400Y57900D01*
X25400Y57800D01*
X25400Y57700D01*
X25400Y57600D01*
X25400Y57500D01*
X25400Y57400D01*
X25400Y57300D01*
X25400Y57200D01*
X25400Y57100D01*
X25400Y57000D01*
X25400Y56900D01*
X25400Y56800D01*
X25400Y56700D01*
X25400Y56600D01*
X25400Y56500D01*
X25400Y56400D01*
X25400Y56300D01*
X25400Y56200D01*
X25400Y56100D01*
X25400Y56000D01*
X25400Y55900D01*
X25400Y55800D01*
X25400Y55700D01*
X25400Y55600D01*
X25400Y55500D01*
X25400Y55400D01*
X25400Y55300D01*
X25400Y55200D01*
X25400Y55100D01*
X25400Y55000D01*
X25400Y54900D01*
X25400Y54800D01*
X25400Y54700D01*
X25400Y54600D01*
X25400Y54500D01*
X25400Y54400D01*
X25400Y54300D01*
X25400Y54200D01*
X25400Y54100D01*
X25400Y54000D01*
X25400Y53900D01*
X25400Y53800D01*
X25400Y53700D01*
X25400Y53600D01*
X25400Y53500D01*
X25400Y53400D01*
X25400Y53300D01*
X25400Y53200D01*
X25400Y53100D01*
X25400Y53000D01*
X25400Y52900D01*
X25400Y52800D01*
X25400Y52700D01*
X25400Y52600D01*
X25400Y52500D01*
X25400Y52400D01*
X25400Y52300D01*
X25400Y52200D01*
X25400Y52100D01*
X25400Y52000D01*
X25400Y51900D01*
X25400Y51800D01*
X25400Y51700D01*
X25400Y51600D01*
X25400Y51500D01*
X25400Y51400D01*
X25400Y51300D01*
X25400Y51200D01*
X25400Y51100D01*
X25400Y51000D01*
X25400Y50900D01*
X25400Y50800D01*
X25400Y50700D01*
X25400Y50600D01*
X25400Y50500D01*
X25400Y50400D01*
X25400Y50300D01*
X25400Y50200D01*
X25400Y50100D01*
X25400Y50000D01*
X25400Y49900D01*
X25400Y49800D01*
X25400Y49700D01*
X25400Y49600D01*
X25400Y49500D01*
X25400Y49400D01*
X25400Y49300D01*
X25400Y49200D01*
X25400Y49100D01*
X25400Y49000D01*
X25400Y48900D01*
X25400Y48800D01*
X25400Y48700D01*
X25400Y48600D01*
X25400Y48500D01*
X25400Y48400D01*
X25400Y48300D01*
X25400Y48200D01*
X25400Y48100D01*
X25400Y48000D01*
X25400Y47900D01*
X25400Y47800D01*
X25400Y47700D01*
X25400Y47600D01*
X25400Y47500D01*
X25400Y47400D01*
X25400Y47300D01*
X25400Y47200D01*
X25400Y47100D01*
X25400Y47000D01*
X25400Y46900D01*
X25400Y46800D01*
X25400Y46700D01*
X25400Y46600D01*
X25400Y46500D01*
X25400Y46400D01*
X25400Y46300D01*
X25400Y46200D01*
X25400Y46100D01*
X25400Y46000D01*
X25400Y45900D01*
X25400Y45800D01*
X25400Y45700D01*
X25400Y45600D01*
X25400Y45500D01*
X25400Y45400D01*
X25400Y45300D01*
X25400Y45200D01*
X25400Y45100D01*
X25400Y45000D01*
X25400Y44900D01*
X25400Y44800D01*
X25400Y44700D01*
X25400Y44600D01*
X25400Y44500D01*
X25400Y44400D01*
X25400Y44300D01*
X25400Y44200D01*
X25400Y44100D01*
X25400Y44000D01*
X25400Y43900D01*
X25400Y43800D01*
X25400Y43700D01*
X25400Y43600D01*
X25400Y43500D01*
X25400Y43400D01*
X25400Y43300D01*
X25400Y43200D01*
X25400Y43100D01*
X25400Y43000D01*
X25400Y42900D01*
X25400Y42800D01*
X25400Y42700D01*
X25400Y42600D01*
X25400Y42500D01*
X25400Y42400D01*
X25400Y42300D01*
X25400Y42200D01*
X25400Y42100D01*
X25400Y42000D01*
X25400Y41900D01*
X25400Y41800D01*
X25400Y41700D01*
X25400Y41600D01*
X25400Y41500D01*
X25400Y41400D01*
X25400Y41300D01*
X25400Y41200D01*
X25400Y41100D01*
X25400Y41000D01*
X25400Y40900D01*
X25400Y40800D01*
X25400Y40700D01*
X25400Y40600D01*
X25400Y40500D01*
X25400Y40400D01*
X25400Y40300D01*
X25400Y40200D01*
X25400Y40100D01*
X25400Y40000D01*
X25400Y39900D01*
X25400Y39800D01*
X25400Y39700D01*
X25400Y39600D01*
X25400Y39500D01*
X25400Y39400D01*
X25400Y39300D01*
X25400Y39200D01*
X25400Y39100D01*
X25400Y39000D01*
X25400Y38900D01*
X25400Y38800D01*
X25400Y38700D01*
X25400Y38600D01*
X25400Y38500D01*
X25400Y38400D01*
X25400Y38300D01*
X25400Y38200D01*
X25400Y38100D01*
X25400Y38000D01*
X25400Y37900D01*
X25400Y37800D01*
X25400Y37700D01*
X25400Y37600D01*
X25400Y37500D01*
X25400Y37400D01*
X25400Y37300D01*
X25400Y37200D01*
X25400Y37100D01*
X25400Y37000D01*
X25400Y36900D01*
X25400Y36800D01*
X25400Y36700D01*
X25400Y36600D01*
X25400Y36500D01*
X25400Y36400D01*
X25400Y36300D01*
X25400Y36200D01*
X25400Y36100D01*
X25400Y36000D01*
X25400Y35900D01*
X25400Y35800D01*
X25400Y35700D01*
X25400Y35600D01*
X25400Y35500D01*
X25400Y35400D01*
X25400Y35300D01*
X25400Y35200D01*
X25400Y35100D01*
X25400Y35000D01*
X25400Y34900D01*
X25400Y34800D01*
X25400Y34700D01*
X25400Y34600D01*
X25400Y34500D01*
X25400Y34400D01*
X25400Y34300D01*
X25400Y34200D01*
X25400Y34100D01*
X25400Y34000D01*
X25400Y33900D01*
X25400Y33800D01*
X25400Y33700D01*
X25400Y33600D01*
X25400Y33500D01*
X25400Y33400D01*
X25400Y33300D01*
X25400Y33200D01*
X25400Y33100D01*
X25400Y33000D01*
X25400Y32900D01*
X25400Y32800D01*
X25400Y32700D01*
X25400Y32600D01*
X25400Y32500D01*
X25400Y32400D01*
X25400Y32300D01*
X25400Y32200D01*
X25400Y32100D01*
X25400Y32000D01*
X25400Y31900D01*
X25400Y31800D01*
X25400Y31700D01*
X25400Y31600D01*
X25400Y31500D01*
X25400Y31400D01*
X25400Y31300D01*
X25400Y31200D01*
X25400Y31100D01*
X25400Y31000D01*
X25400Y30900D01*
X25400Y30800D01*
X25400Y30700D01*
X25400Y30600D01*
X25400Y30500D01*
X25400Y30400D01*
X25400Y30300D01*
X25400Y30200D01*
X25400Y30100D01*
X25400Y30000D01*
X25400Y29900D01*
X25400Y29800D01*
X25400Y29700D01*
X25400Y29600D01*
X25400Y29500D01*
X25400Y29400D01*
X25400Y29300D01*
X25400Y29200D01*
X25400Y29100D01*
X25400Y29000D01*
X25400Y28900D01*
X25400Y28800D01*
X25400Y28700D01*
X25400Y28600D01*
X25400Y28500D01*
X25400Y28400D01*
X25400Y28300D01*
X25400Y28200D01*
X25400Y28100D01*
X25400Y28000D01*
X25400Y27900D01*
X25400Y27800D01*
X25400Y27700D01*
X25400Y27600D01*
X25400Y27500D01*
X25400Y27400D01*
X25400Y27300D01*
X25400Y27200D01*
X25400Y27100D01*
X25400Y27000D01*
X25400Y26900D01*
X25400Y26800D01*
X25400Y26700D01*
X25400Y26600D01*
X25400Y26500D01*
X25400Y26400D01*
X25400Y26300D01*
X25400Y26200D01*
X25400Y26100D01*
X25400Y26000D01*
X25400Y25900D01*
X25400Y25800D01*
X25400Y25700D01*
X25400Y25600D01*
X25400Y25500D01*
X25400Y25400D01*
X25400Y25300D01*
X25400Y25200D01*
X25400Y25100D01*
X25400Y25000D01*
X25400Y24900D01*
X25400Y24800D01*
X25400Y24700D01*
X25400Y24600D01*
X25400Y24500D01*
X25400Y24400D01*
X25400Y24300D01*
X25400Y24200D01*
X25400Y24100D01*
X25400Y24000D01*
X25400Y23900D01*
X25400Y23800D01*
X25400Y23700D01*
X25400Y23600D01*
X25400Y23500D01*
X25400Y23400D01*
X25400Y23300D01*
X25400Y23200D01*
X25400Y23100D01*
X25400Y23000D01*
X25400Y22900D01*
X25400Y22800D01*
X25400Y22700D01*
X25400Y22600D01*
X25400Y22500D01*
X25400Y22400D01*
X25400Y22300D01*
X25400Y22200D01*
X25400Y22100D01*
X25400Y22000D01*
X25400Y21900D01*
X25400Y21800D01*
X25400Y21700D01*
X25400Y21600D01*
X25400Y21500D01*
X25400Y21400D01*
X25400Y21300D01*
X25400Y21200D01*
X25400Y21100D01*
X25400Y21000D01*
X25400Y20900D01*
X25400Y20800D01*
X25400Y20700D01*
X25400Y20600D01*
X25400Y20500D01*
X25400Y20400D01*
X25400Y20300D01*
X25400Y20200D01*
X25400Y20100D01*
X25400Y20000D01*
X25400Y19900D01*
X25400Y19800D01*
X25400Y19700D01*
X25400Y19600D01*
X25400Y19500D01*
X25400Y19400D01*
X25400Y19300D01*
X25400Y19200D01*
X25400Y19100D01*
X25400Y19000D01*
X25400Y18900D01*
X25400Y18800D01*
X25400Y18700D01*
X25400Y18600D01*
X25400Y18500D01*
X25400Y18400D01*
X25400Y18300D01*
X25400Y18200D01*
X25400Y18100D01*
X25400Y18000D01*
X25400Y17900D01*
X25400Y17800D01*
X25400Y17700D01*
X25400Y17600D01*
X25400Y17500D01*
X25400Y17400D01*
X25400Y17300D01*
X25400Y17200D01*
X25400Y17100D01*
X25400Y17000D01*
X25400Y16900D01*
X25400Y16800D01*
X25400Y16700D01*
X25400Y16600D01*
X25400Y16500D01*
X25400Y16400D01*
X25400Y16300D01*
X25400Y16200D01*
X25400Y16100D01*
X25400Y16000D01*
X25400Y15900D01*
X25400Y15800D01*
X25400Y15700D01*
X25400Y15600D01*
X25400Y15500D01*
X25400Y15400D01*
X25400Y15300D01*
X25400Y15200D01*
X25400Y15100D01*
X25400Y15000D01*
X25400Y14900D01*
X25400Y14800D01*
X25400Y14700D01*
X25400Y14600D01*
X25400Y14500D01*
X25400Y14400D01*
X25400Y14300D01*
X25400Y14200D01*
X25400Y14100D01*
X25400Y14000D01*
X25400Y13900D01*
X25400Y13800D01*
X25400Y13700D01*
X25400Y13600D01*
X25400Y13500D01*
X25400Y13400D01*
X25400Y13300D01*
X25400Y13200D01*
X25400Y13100D01*
X25400Y13000D01*
X25400Y12900D01*
X25400Y12800D01*
X25400Y12700D01*
X25400Y12600D01*
X25400Y12500D01*
X25400Y12400D01*
X25400Y12300D01*
X25400Y12200D01*
X25400Y12100D01*
X25400Y12000D01*
X25400Y11900D01*
X25400Y11800D01*
X25400Y11700D01*
X25400Y11600D01*
X25400Y11500D01*
X25400Y11400D01*
X25400Y11300D01*
X25400Y11200D01*
X25400Y11100D01*
X25400Y11000D01*
X25400Y10900D01*
X25400Y10800D01*
X25400Y10700D01*
X25400Y10600D01*
X25400Y10500D01*
X25400Y10400D01*
X25400Y10300D01*
X25400Y10200D01*
X25400Y10100D01*
X25400Y10000D01*
X25400Y9900D01*
X25400Y9800D01*
X25400Y9700D01*
X25400Y9600D01*
X25400Y9500D01*
X25400Y9400D01*
X25400Y9300D01*
X25400Y9200D01*
X25400Y9100D01*
X25400Y9000D01*
X25400Y8900D01*
X25400Y8800D01*
X25400Y8700D01*
X25400Y8600D01*
X25400Y8500D01*
X25400Y8400D01*
X25400Y8300D01*
X25400Y8200D01*
X25400Y8100D01*
X25400Y8000D01*
X25400Y7900D01*
X25400Y7800D01*
X25400Y7700D01*
X25400Y7600D01*
X25400Y7500D01*
X25400Y7400D01*
X25400Y7300D01*
X25400Y7200D01*
X25400Y7100D01*
X25400Y7000D01*
X25400Y6900D01*
X25400Y6800D01*
X25400Y6700D01*
X25400Y6600D01*
X25400Y6500D01*
X25400Y6400D01*
X25400Y6300D01*
X25400Y6200D01*
X25400Y6100D01*
X25400Y6000D01*
X25400Y5900D01*
X25400Y5800D01*
X25400Y5700D01*
X25400Y5600D01*
X25400Y5500D01*
X25400Y5400D01*
X25400Y5300D01*
X25400Y5200D01*
X25400Y5100D01*
X25400Y5000D01*
X25400Y4900D01*
X25400Y4800D01*
X25400Y4700D01*
X25400Y4600D01*
X25400Y4500D01*
X25400Y4400D01*
X25400Y4300D01*
X25400Y4200D01*
X25400Y4100D01*
X25400Y4000D01*
X25400Y3900D01*
X25400Y3800D01*
X25400Y3700D01*
X25400Y3600D01*
X25400Y3500D01*
X25400Y3400D01*
X25400Y3300D01*
X25400Y3200D01*
X25400Y3100D01*
X25400Y3000D01*
X25400Y2900D01*
X25400Y2800D01*
X25400Y2700D01*
X25400Y2600D01*
X25400Y2500D01*
X25400Y2400D01*
X25400Y2300D01*
X25400Y2200D01*
X25400Y2100D01*
X25400Y2000D01*
X25400Y1900D01*
X25400Y1800D01*
X25400Y1700D01*
X25400Y1600D01*
X25400Y1500D01*
X25400Y1400D01*
X25400Y1300D01*
X25400Y1200D01*
X25400Y1100D01*
X25400Y1000D01*
X25400Y900D01*
X25400Y800D01*
X25400Y700D01*
X25400Y600D01*
X25400Y500D01*
X25400Y400D01*
X25400Y300D01*
X25400Y200D01*
X25400Y100D01*
X25400Y0D01*
X25300Y0D01*
X25200Y0D01*
X25100Y0D01*
X25000Y0D01*
X24900Y0D01*
X24800Y0D01*
X24700Y0D01*
X24600Y0D01*
X24500Y0D01*
X24400Y0D01*
X24300Y0D01*
X24200Y0D01*
X24100Y0D01*
X24000Y0D01*
X23900Y0D01*
X23800Y0D01*
X23700Y0D01*
X23600Y0D01*
X23500Y0D01*
X23400Y0D01*
X23300Y0D01*
X23200Y0D01*
X23100Y0D01*
X23000Y0D01*
X22900Y0D01*
X22800Y0D01*
X22700Y0D01*
X22600Y0D01*
X22500Y0D01*
X22400Y0D01*
X22300Y0D01*
X22200Y0D01*
X22100Y0D01*
X22000Y0D01*
X21900Y0D01*
X21800Y0D01*
X21700Y0D01*
X21600Y0D01*
X21500Y0D01*
X21400Y0D01*
X21300Y0D01*
X21200Y0D01*
X21100Y0D01*
X21000Y0D01*
X20900Y0D01*
X20800Y0D01*
X20700Y0D01*
X20600Y0D01*
X20500Y0D01*
X20400Y0D01*
X20300Y0D01*
X20200Y0D01*
X20100Y0D01*
X20000Y0D01*
X19900Y0D01*
X19800Y0D01*
X19700Y0D01*
X19600Y0D01*
X19500Y0D01*
X19400Y0D01*
X19300Y0D01*
X19200Y0D01*
X19100Y0D01*
X19000Y0D01*
X18900Y0D01*
X18800Y0D01*
X18700Y0D01*
X18600Y0D01*
X18500Y0D01*
X18400Y0D01*
X18300Y0D01*
X18200Y0D01*
X18100Y0D01*
X18000Y0D01*
X17900Y0D01*
X17800Y0D01*
X17700Y0D01*
X17600Y0D01*
X17500Y0D01*
X17400Y0D01*
X17300Y0D01*
X17200Y0D01*
X17100Y0D01*
X17000Y0D01*
X16900Y0D01*
X16800Y0D01*
X16700Y0D01*
X16600Y0D01*
X16500Y0D01*
X16400Y0D01*
X16300Y0D01*
X16200Y0D01*
X16100Y0D01*
X16000Y0D01*
X15900Y0D01*
X15800Y0D01*
X15700Y0D01*
X15600Y0D01*
X15500Y0D01*
X15400Y0D01*
X15300Y0D01*
X15200Y0D01*
X15100Y0D01*
X15000Y0D01*
X14900Y0D01*
X14800Y0D01*
X14700Y0D01*
X14600Y0D01*
X14500Y0D01*
X14400Y0D01*
X14300Y0D01*
X14200Y0D01*
X14100Y0D01*
X14000Y0D01*
X13900Y0D01*
X13800Y0D01*
X13700Y0D01*
X13600Y0D01*
X13500Y0D01*
X13400Y0D01*
X13300Y0D01*
X13200Y0D01*
X13100Y0D01*
X13000Y0D01*
X12900Y0D01*
X12800Y0D01*
X12700Y0D01*
X12600Y0D01*
X12500Y0D01*
X12400Y0D01*
X12300Y0D01*
X12200Y0D01*
X12100Y0D01*
X12000Y0D01*
X11900Y0D01*
X11800Y0D01*
X11700Y0D01*
X11600Y0D01*
X11500Y0D01*
X11400Y0D01*
X11300Y0D01*
X11200Y0D01*
X11100Y0D01*
X11000Y0D01*
X10900Y0D01*
X10800Y0D01*
X10700Y0D01*
X10600Y0D01*
X10500Y0D01*
X10400Y0D01*
X10300Y0D01*
X10200Y0D01*
X10100Y0D01*
X10000Y0D01*
X9900Y0D01*
X9800Y0D01*
X9700Y0D01*
X9600Y0D01*
X9500Y0D01*
X9400Y0D01*
X9300Y0D01*
X9200Y0D01*
X9100Y0D01*
X9000Y0D01*
X8900Y0D01*
X8800Y0D01*
X8700Y0D01*
X8600Y0D01*
X8500Y0D01*
X8400Y0D01*
X8300Y0D01*
X8200Y0D01*
X8100Y0D01*
X8000Y0D01*
X7900Y0D01*
X7800Y0D01*
X7700Y0D01*
X7600Y0D01*
X7500Y0D01*
X7400Y0D01*
X7300Y0D01*
X7200Y0D01*
X7100Y0D01*
X7000Y0D01*
X6900Y0D01*
X6800Y0D01*
X6700Y0D01*
X6600Y0D01*
X6500Y0D01*
X6400Y0D01*
X6300Y0D01*
X6200Y0D01*
X6100Y0D01*
X6000Y0D01*
X5900Y0D01*
X5800Y0D01*
X5700Y0D01*
X5600Y0D01*
X5500Y0D01*
X5400Y0D01*
X5300Y0D01*
X5200Y0D01*
X5100Y0D01*
X5000Y0D01*
X4900Y0D01*
X4800Y0D01*
X4700Y0D01*
X4600Y0D01*
X4500Y0D01*
X4400Y0D01*
X4300Y0D01*
X4200Y0D01*
X4100Y0D01*
X4000Y0D01*
X3900Y0D01*
X3800Y0D01*
X3700Y0D01*
X3600Y0D01*
X3500Y0D01*
X3400Y0D01*
X3300Y0D01*
X3200Y0D01*
X3100Y0D01*
X3000Y0D01*
X2900Y0D01*
X2800Y0D01*
X2700Y0D01*
X2600Y0D01*
X2500Y0D01*
X2400Y0D01*
X2300Y0D01*
X2200Y0D01*
X2100Y0D01*
X2000Y0D01*
X1900Y0D01*
X1800Y0D01*
X1700Y0D01*
X1600Y0D01*
X1500Y0D01*
X1400Y0D01*
X1300Y0D01*
X1200Y0D01*
X1100Y0D01*
X1000Y0D01*
X900Y0D01*
X800Y0D01*
X700Y0D01*
X600Y0D01*
X500Y0D01*
X400Y0D01*
X300Y0D01*
X200Y0D01*
X100Y0D01*
X0Y0D01*
X0Y0D01*
D11*
X3810Y86499D02*
X3810Y66040D01*
D11*
X3810Y66040D02*
X10160Y66040D01*
D11*
X10160Y66040D02*
X10160Y62851D01*
D11*
X10160Y62851D02*
X10160Y62851D01*
D11*
X3810Y59542D02*
X3810Y45039D01*
D11*
X3810Y59542D02*
X10160Y59542D01*
D11*
X10160Y62851D02*
X10160Y59542D01*
D11*
X10160Y62851D02*
X10160Y62851D01*
D11*
X3810Y45039D02*
X3810Y38100D01*
D11*
X3810Y38100D02*
X22860Y38100D01*
D11*
X22860Y38100D02*
X22860Y12700D01*
D11*
X20320Y12700D02*
X22860Y12700D01*
D11*
X20320Y12700D02*
X20320Y12278D01*
D11*
X11123Y3940D02*
X11430Y3940D01*
D11*
X11123Y7620D02*
X11123Y3940D01*
D11*
X11123Y7620D02*
X20320Y7620D01*
D11*
X20320Y12278D02*
X20320Y7620D01*
D12*
X5080Y20320D02*
X5080Y19898D01*
D12*
X5080Y20320D02*
X7620Y20320D01*
D12*
X7620Y30480D02*
X7620Y20320D01*
D12*
X5080Y30480D02*
X7620Y30480D01*
D12*
X5080Y35560D02*
X5080Y30480D01*
D12*
X5080Y17358D02*
X16699Y17358D01*
D12*
X16699Y35560D02*
X16699Y17358D01*
D12*
X16510Y35560D02*
X16699Y35560D01*
G36*
X17010Y86405D02*
X17010Y86405D01*
X17000Y86307D01*
X16972Y86214D01*
X16926Y86127D01*
X16864Y86051D01*
X16788Y85989D01*
X16701Y85943D01*
X16608Y85915D01*
X16510Y85905D01*
X16510Y85905D01*
X16412Y85915D01*
X16319Y85943D01*
X16232Y85989D01*
X16156Y86051D01*
X16094Y86127D01*
X16048Y86214D01*
X16020Y86307D01*
X16010Y86405D01*
X16010Y86405D01*
X16020Y86503D01*
X16048Y86596D01*
X16094Y86683D01*
X16156Y86759D01*
X16232Y86821D01*
X16319Y86867D01*
X16412Y86895D01*
X16510Y86905D01*
X16510Y86905D01*
X16608Y86895D01*
X16701Y86867D01*
X16788Y86821D01*
X16864Y86759D01*
X16926Y86683D01*
X16972Y86596D01*
X17000Y86503D01*
X17010Y86405D01*
G37*
G36*
X19550Y86360D02*
X19550Y86360D01*
X19540Y86262D01*
X19512Y86169D01*
X19466Y86082D01*
X19404Y86006D01*
X19328Y85944D01*
X19241Y85898D01*
X19148Y85870D01*
X19050Y85860D01*
X19050Y85860D01*
X18952Y85870D01*
X18859Y85898D01*
X18772Y85944D01*
X18696Y86006D01*
X18634Y86082D01*
X18588Y86169D01*
X18560Y86262D01*
X18550Y86360D01*
X18550Y86360D01*
X18560Y86458D01*
X18588Y86551D01*
X18634Y86638D01*
X18696Y86714D01*
X18772Y86776D01*
X18859Y86822D01*
X18952Y86850D01*
X19050Y86860D01*
X19050Y86860D01*
X19148Y86850D01*
X19241Y86822D01*
X19328Y86776D01*
X19404Y86714D01*
X19466Y86638D01*
X19512Y86551D01*
X19540Y86458D01*
X19550Y86360D01*
G37*
G36*
X11930Y86422D02*
X11930Y86422D01*
X11920Y86325D01*
X11892Y86231D01*
X11846Y86144D01*
X11784Y86069D01*
X11708Y86006D01*
X11621Y85960D01*
X11528Y85932D01*
X11430Y85922D01*
X11430Y85922D01*
X11332Y85932D01*
X11239Y85960D01*
X11152Y86006D01*
X11076Y86069D01*
X11014Y86144D01*
X10968Y86231D01*
X10940Y86325D01*
X10930Y86422D01*
X10930Y86422D01*
X10940Y86520D01*
X10968Y86614D01*
X11014Y86700D01*
X11076Y86776D01*
X11152Y86838D01*
X11239Y86884D01*
X11332Y86913D01*
X11430Y86922D01*
X11430Y86922D01*
X11528Y86913D01*
X11621Y86884D01*
X11708Y86838D01*
X11784Y86776D01*
X11846Y86700D01*
X11892Y86614D01*
X11920Y86520D01*
X11930Y86422D01*
G37*
G36*
X6850Y86422D02*
X6850Y86422D01*
X6840Y86325D01*
X6812Y86231D01*
X6766Y86144D01*
X6704Y86069D01*
X6628Y86006D01*
X6541Y85960D01*
X6448Y85932D01*
X6350Y85922D01*
X6350Y85922D01*
X6252Y85932D01*
X6159Y85960D01*
X6072Y86006D01*
X5996Y86069D01*
X5934Y86144D01*
X5888Y86231D01*
X5860Y86325D01*
X5850Y86422D01*
X5850Y86422D01*
X5860Y86520D01*
X5888Y86614D01*
X5934Y86700D01*
X5996Y86776D01*
X6072Y86838D01*
X6159Y86884D01*
X6252Y86913D01*
X6350Y86922D01*
X6350Y86922D01*
X6448Y86913D01*
X6541Y86884D01*
X6628Y86838D01*
X6704Y86776D01*
X6766Y86700D01*
X6812Y86614D01*
X6840Y86520D01*
X6850Y86422D01*
G37*
G36*
X14470Y86422D02*
X14470Y86422D01*
X14460Y86325D01*
X14432Y86231D01*
X14386Y86144D01*
X14324Y86069D01*
X14248Y86006D01*
X14161Y85960D01*
X14068Y85932D01*
X13970Y85922D01*
X13970Y85922D01*
X13872Y85932D01*
X13779Y85960D01*
X13692Y86006D01*
X13616Y86069D01*
X13554Y86144D01*
X13508Y86231D01*
X13480Y86325D01*
X13470Y86422D01*
X13470Y86422D01*
X13480Y86520D01*
X13508Y86614D01*
X13554Y86700D01*
X13616Y86776D01*
X13692Y86838D01*
X13779Y86884D01*
X13872Y86913D01*
X13970Y86922D01*
X13970Y86922D01*
X14068Y86913D01*
X14161Y86884D01*
X14248Y86838D01*
X14324Y86776D01*
X14386Y86700D01*
X14432Y86614D01*
X14460Y86520D01*
X14470Y86422D01*
G37*
G36*
X9390Y86405D02*
X9390Y86405D01*
X9380Y86307D01*
X9352Y86214D01*
X9306Y86127D01*
X9244Y86051D01*
X9168Y85989D01*
X9081Y85943D01*
X8988Y85915D01*
X8890Y85905D01*
X8890Y85905D01*
X8792Y85915D01*
X8699Y85943D01*
X8612Y85989D01*
X8536Y86051D01*
X8474Y86127D01*
X8428Y86214D01*
X8400Y86307D01*
X8390Y86405D01*
X8390Y86405D01*
X8400Y86503D01*
X8428Y86596D01*
X8474Y86683D01*
X8536Y86759D01*
X8612Y86821D01*
X8699Y86867D01*
X8792Y86895D01*
X8890Y86905D01*
X8890Y86905D01*
X8988Y86895D01*
X9081Y86867D01*
X9168Y86821D01*
X9244Y86759D01*
X9306Y86683D01*
X9352Y86596D01*
X9380Y86503D01*
X9390Y86405D01*
G37*
G36*
X22090Y86360D02*
X22090Y86360D01*
X22080Y86262D01*
X22052Y86169D01*
X22006Y86082D01*
X21944Y86006D01*
X21868Y85944D01*
X21781Y85898D01*
X21688Y85870D01*
X21590Y85860D01*
X21590Y85860D01*
X21492Y85870D01*
X21399Y85898D01*
X21312Y85944D01*
X21236Y86006D01*
X21174Y86082D01*
X21128Y86169D01*
X21100Y86262D01*
X21090Y86360D01*
X21090Y86360D01*
X21100Y86458D01*
X21128Y86551D01*
X21174Y86638D01*
X21236Y86714D01*
X21312Y86776D01*
X21399Y86822D01*
X21492Y86850D01*
X21590Y86860D01*
X21590Y86860D01*
X21688Y86850D01*
X21781Y86822D01*
X21868Y86776D01*
X21944Y86714D01*
X22006Y86638D01*
X22052Y86551D01*
X22080Y86458D01*
X22090Y86360D01*
G37*
G36*
X4310Y86499D02*
X4310Y86499D01*
X4300Y86401D01*
X4272Y86307D01*
X4226Y86221D01*
X4164Y86145D01*
X4088Y86083D01*
X4001Y86037D01*
X3908Y86008D01*
X3810Y85999D01*
X3810Y85999D01*
X3712Y86008D01*
X3619Y86037D01*
X3532Y86083D01*
X3456Y86145D01*
X3394Y86221D01*
X3348Y86307D01*
X3320Y86401D01*
X3310Y86499D01*
X3310Y86499D01*
X3320Y86596D01*
X3348Y86690D01*
X3394Y86776D01*
X3456Y86852D01*
X3532Y86914D01*
X3619Y86961D01*
X3712Y86989D01*
X3810Y86999D01*
X3810Y86999D01*
X3908Y86989D01*
X4001Y86961D01*
X4088Y86914D01*
X4164Y86852D01*
X4226Y86776D01*
X4272Y86690D01*
X4300Y86596D01*
X4310Y86499D01*
G37*
G36*
X5080Y25478D02*
X5080Y25478D01*
X5178Y25468D01*
X5271Y25440D01*
X5358Y25393D01*
X5434Y25331D01*
X5496Y25255D01*
X5542Y25169D01*
X5570Y25075D01*
X5580Y24978D01*
X5580Y24978D01*
X5570Y24880D01*
X5542Y24786D01*
X5496Y24700D01*
X5434Y24624D01*
X5358Y24562D01*
X5271Y24516D01*
X5178Y24487D01*
X5080Y24478D01*
X5080Y24478D01*
X4982Y24487D01*
X4889Y24516D01*
X4802Y24562D01*
X4726Y24624D01*
X4664Y24700D01*
X4618Y24786D01*
X4590Y24880D01*
X4580Y24978D01*
X4580Y24978D01*
X4590Y25075D01*
X4618Y25169D01*
X4664Y25255D01*
X4726Y25331D01*
X4802Y25393D01*
X4889Y25440D01*
X4982Y25468D01*
X5080Y25478D01*
G37*
G36*
X20320Y22938D02*
X20320Y22938D01*
X20418Y22928D01*
X20511Y22900D01*
X20598Y22853D01*
X20674Y22791D01*
X20736Y22715D01*
X20782Y22629D01*
X20810Y22535D01*
X20820Y22438D01*
X20820Y22438D01*
X20810Y22340D01*
X20782Y22246D01*
X20736Y22160D01*
X20674Y22084D01*
X20598Y22022D01*
X20511Y21976D01*
X20418Y21947D01*
X20320Y21938D01*
X20320Y21938D01*
X20222Y21947D01*
X20129Y21976D01*
X20042Y22022D01*
X19966Y22084D01*
X19904Y22160D01*
X19858Y22246D01*
X19830Y22340D01*
X19820Y22438D01*
X19820Y22438D01*
X19830Y22535D01*
X19858Y22629D01*
X19904Y22715D01*
X19966Y22791D01*
X20042Y22853D01*
X20129Y22900D01*
X20222Y22928D01*
X20320Y22938D01*
G37*
G36*
X5080Y12778D02*
X5080Y12778D01*
X5178Y12768D01*
X5271Y12740D01*
X5358Y12693D01*
X5434Y12631D01*
X5496Y12555D01*
X5542Y12469D01*
X5570Y12375D01*
X5580Y12278D01*
X5580Y12278D01*
X5570Y12180D01*
X5542Y12086D01*
X5496Y12000D01*
X5434Y11924D01*
X5358Y11862D01*
X5271Y11816D01*
X5178Y11787D01*
X5080Y11778D01*
X5080Y11778D01*
X4982Y11787D01*
X4889Y11816D01*
X4802Y11862D01*
X4726Y11924D01*
X4664Y12000D01*
X4618Y12086D01*
X4590Y12180D01*
X4580Y12278D01*
X4580Y12278D01*
X4590Y12375D01*
X4618Y12469D01*
X4664Y12555D01*
X4726Y12631D01*
X4802Y12693D01*
X4889Y12740D01*
X4982Y12768D01*
X5080Y12778D01*
G37*
G36*
X20320Y12778D02*
X20320Y12778D01*
X20418Y12768D01*
X20511Y12740D01*
X20598Y12693D01*
X20674Y12631D01*
X20736Y12555D01*
X20782Y12469D01*
X20810Y12375D01*
X20820Y12278D01*
X20820Y12278D01*
X20810Y12180D01*
X20782Y12086D01*
X20736Y12000D01*
X20674Y11924D01*
X20598Y11862D01*
X20511Y11816D01*
X20418Y11787D01*
X20320Y11778D01*
X20320Y11778D01*
X20222Y11787D01*
X20129Y11816D01*
X20042Y11862D01*
X19966Y11924D01*
X19904Y12000D01*
X19858Y12086D01*
X19830Y12180D01*
X19820Y12278D01*
X19820Y12278D01*
X19830Y12375D01*
X19858Y12469D01*
X19904Y12555D01*
X19966Y12631D01*
X20042Y12693D01*
X20129Y12740D01*
X20222Y12768D01*
X20320Y12778D01*
G37*
G36*
X5080Y20398D02*
X5080Y20398D01*
X5178Y20388D01*
X5271Y20360D01*
X5358Y20313D01*
X5434Y20251D01*
X5496Y20175D01*
X5542Y20089D01*
X5570Y19995D01*
X5580Y19898D01*
X5580Y19898D01*
X5570Y19800D01*
X5542Y19706D01*
X5496Y19620D01*
X5434Y19544D01*
X5358Y19482D01*
X5271Y19436D01*
X5178Y19407D01*
X5080Y19398D01*
X5080Y19398D01*
X4982Y19407D01*
X4889Y19436D01*
X4802Y19482D01*
X4726Y19544D01*
X4664Y19620D01*
X4618Y19706D01*
X4590Y19800D01*
X4580Y19898D01*
X4580Y19898D01*
X4590Y19995D01*
X4618Y20089D01*
X4664Y20175D01*
X4726Y20251D01*
X4802Y20313D01*
X4889Y20360D01*
X4982Y20388D01*
X5080Y20398D01*
G37*
G36*
X20320Y15318D02*
X20320Y15318D01*
X20418Y15308D01*
X20511Y15280D01*
X20598Y15233D01*
X20674Y15171D01*
X20736Y15095D01*
X20782Y15009D01*
X20810Y14915D01*
X20820Y14818D01*
X20820Y14818D01*
X20810Y14720D01*
X20782Y14626D01*
X20736Y14540D01*
X20674Y14464D01*
X20598Y14402D01*
X20511Y14356D01*
X20418Y14327D01*
X20320Y14318D01*
X20320Y14318D01*
X20222Y14327D01*
X20129Y14356D01*
X20042Y14402D01*
X19966Y14464D01*
X19904Y14540D01*
X19858Y14626D01*
X19830Y14720D01*
X19820Y14818D01*
X19820Y14818D01*
X19830Y14915D01*
X19858Y15009D01*
X19904Y15095D01*
X19966Y15171D01*
X20042Y15233D01*
X20129Y15280D01*
X20222Y15308D01*
X20320Y15318D01*
G37*
G36*
X5080Y15318D02*
X5080Y15318D01*
X5178Y15308D01*
X5271Y15280D01*
X5358Y15233D01*
X5434Y15171D01*
X5496Y15095D01*
X5542Y15009D01*
X5570Y14915D01*
X5580Y14818D01*
X5580Y14818D01*
X5570Y14720D01*
X5542Y14626D01*
X5496Y14540D01*
X5434Y14464D01*
X5358Y14402D01*
X5271Y14356D01*
X5178Y14327D01*
X5080Y14318D01*
X5080Y14318D01*
X4982Y14327D01*
X4889Y14356D01*
X4802Y14402D01*
X4726Y14464D01*
X4664Y14540D01*
X4618Y14626D01*
X4590Y14720D01*
X4580Y14818D01*
X4580Y14818D01*
X4590Y14915D01*
X4618Y15009D01*
X4664Y15095D01*
X4726Y15171D01*
X4802Y15233D01*
X4889Y15280D01*
X4982Y15308D01*
X5080Y15318D01*
G37*
G36*
X5080Y22938D02*
X5080Y22938D01*
X5178Y22928D01*
X5271Y22900D01*
X5358Y22853D01*
X5434Y22791D01*
X5496Y22715D01*
X5542Y22629D01*
X5570Y22535D01*
X5580Y22438D01*
X5580Y22438D01*
X5570Y22340D01*
X5542Y22246D01*
X5496Y22160D01*
X5434Y22084D01*
X5358Y22022D01*
X5271Y21976D01*
X5178Y21947D01*
X5080Y21938D01*
X5080Y21938D01*
X4982Y21947D01*
X4889Y21976D01*
X4802Y22022D01*
X4726Y22084D01*
X4664Y22160D01*
X4618Y22246D01*
X4590Y22340D01*
X4580Y22438D01*
X4580Y22438D01*
X4590Y22535D01*
X4618Y22629D01*
X4664Y22715D01*
X4726Y22791D01*
X4802Y22853D01*
X4889Y22900D01*
X4982Y22928D01*
X5080Y22938D01*
G37*
G36*
X5080Y17858D02*
X5080Y17858D01*
X5178Y17848D01*
X5271Y17820D01*
X5358Y17773D01*
X5434Y17711D01*
X5496Y17635D01*
X5542Y17549D01*
X5570Y17455D01*
X5580Y17358D01*
X5580Y17358D01*
X5570Y17260D01*
X5542Y17166D01*
X5496Y17080D01*
X5434Y17004D01*
X5358Y16942D01*
X5271Y16896D01*
X5178Y16867D01*
X5080Y16858D01*
X5080Y16858D01*
X4982Y16867D01*
X4889Y16896D01*
X4802Y16942D01*
X4726Y17004D01*
X4664Y17080D01*
X4618Y17166D01*
X4590Y17260D01*
X4580Y17358D01*
X4580Y17358D01*
X4590Y17455D01*
X4618Y17549D01*
X4664Y17635D01*
X4726Y17711D01*
X4802Y17773D01*
X4889Y17820D01*
X4982Y17848D01*
X5080Y17858D01*
G37*
G36*
X20320Y25478D02*
X20320Y25478D01*
X20418Y25468D01*
X20511Y25440D01*
X20598Y25393D01*
X20674Y25331D01*
X20736Y25255D01*
X20782Y25169D01*
X20810Y25075D01*
X20820Y24978D01*
X20820Y24978D01*
X20810Y24880D01*
X20782Y24786D01*
X20736Y24700D01*
X20674Y24624D01*
X20598Y24562D01*
X20511Y24516D01*
X20418Y24487D01*
X20320Y24478D01*
X20320Y24478D01*
X20222Y24487D01*
X20129Y24516D01*
X20042Y24562D01*
X19966Y24624D01*
X19904Y24700D01*
X19858Y24786D01*
X19830Y24880D01*
X19820Y24978D01*
X19820Y24978D01*
X19830Y25075D01*
X19858Y25169D01*
X19904Y25255D01*
X19966Y25331D01*
X20042Y25393D01*
X20129Y25440D01*
X20222Y25468D01*
X20320Y25478D01*
G37*
G36*
X20320Y20398D02*
X20320Y20398D01*
X20418Y20388D01*
X20511Y20360D01*
X20598Y20313D01*
X20674Y20251D01*
X20736Y20175D01*
X20782Y20089D01*
X20810Y19995D01*
X20820Y19898D01*
X20820Y19898D01*
X20810Y19800D01*
X20782Y19706D01*
X20736Y19620D01*
X20674Y19544D01*
X20598Y19482D01*
X20511Y19436D01*
X20418Y19407D01*
X20320Y19398D01*
X20320Y19398D01*
X20222Y19407D01*
X20129Y19436D01*
X20042Y19482D01*
X19966Y19544D01*
X19904Y19620D01*
X19858Y19706D01*
X19830Y19800D01*
X19820Y19898D01*
X19820Y19898D01*
X19830Y19995D01*
X19858Y20089D01*
X19904Y20175D01*
X19966Y20251D01*
X20042Y20313D01*
X20129Y20360D01*
X20222Y20388D01*
X20320Y20398D01*
G37*
G36*
X20320Y17858D02*
X20320Y17858D01*
X20418Y17848D01*
X20511Y17820D01*
X20598Y17773D01*
X20674Y17711D01*
X20736Y17635D01*
X20782Y17549D01*
X20810Y17455D01*
X20820Y17358D01*
X20820Y17358D01*
X20810Y17260D01*
X20782Y17166D01*
X20736Y17080D01*
X20674Y17004D01*
X20598Y16942D01*
X20511Y16896D01*
X20418Y16867D01*
X20320Y16858D01*
X20320Y16858D01*
X20222Y16867D01*
X20129Y16896D01*
X20042Y16942D01*
X19966Y17004D01*
X19904Y17080D01*
X19858Y17166D01*
X19830Y17260D01*
X19820Y17358D01*
X19820Y17358D01*
X19830Y17455D01*
X19858Y17549D01*
X19904Y17635D01*
X19966Y17711D01*
X20042Y17773D01*
X20129Y17820D01*
X20222Y17848D01*
X20320Y17858D01*
G37*
G36*
X7620Y63351D02*
X7620Y63351D01*
X7718Y63341D01*
X7811Y63313D01*
X7898Y63267D01*
X7974Y63204D01*
X8036Y63129D01*
X8082Y63042D01*
X8110Y62948D01*
X8120Y62851D01*
X8120Y62851D01*
X8110Y62753D01*
X8082Y62659D01*
X8036Y62573D01*
X7974Y62497D01*
X7898Y62435D01*
X7811Y62389D01*
X7718Y62360D01*
X7620Y62351D01*
X7620Y62351D01*
X7522Y62360D01*
X7429Y62389D01*
X7342Y62435D01*
X7266Y62497D01*
X7204Y62573D01*
X7158Y62659D01*
X7130Y62753D01*
X7120Y62851D01*
X7120Y62851D01*
X7130Y62948D01*
X7158Y63042D01*
X7204Y63129D01*
X7266Y63204D01*
X7342Y63267D01*
X7429Y63313D01*
X7522Y63341D01*
X7620Y63351D01*
G37*
G36*
X10160Y63351D02*
X10160Y63351D01*
X10258Y63341D01*
X10351Y63313D01*
X10438Y63267D01*
X10514Y63204D01*
X10576Y63129D01*
X10622Y63042D01*
X10650Y62948D01*
X10660Y62851D01*
X10660Y62851D01*
X10650Y62753D01*
X10622Y62659D01*
X10576Y62573D01*
X10514Y62497D01*
X10438Y62435D01*
X10351Y62389D01*
X10258Y62360D01*
X10160Y62351D01*
X10160Y62351D01*
X10062Y62360D01*
X9969Y62389D01*
X9882Y62435D01*
X9806Y62497D01*
X9744Y62573D01*
X9698Y62659D01*
X9670Y62753D01*
X9660Y62851D01*
X9660Y62851D01*
X9670Y62948D01*
X9698Y63042D01*
X9744Y63129D01*
X9806Y63204D01*
X9882Y63267D01*
X9969Y63313D01*
X10062Y63341D01*
X10160Y63351D01*
G37*
G36*
X15240Y63392D02*
X15240Y63392D01*
X15338Y63382D01*
X15431Y63354D01*
X15518Y63307D01*
X15594Y63245D01*
X15656Y63169D01*
X15702Y63083D01*
X15730Y62989D01*
X15740Y62892D01*
X15740Y62892D01*
X15730Y62794D01*
X15702Y62700D01*
X15656Y62614D01*
X15594Y62538D01*
X15518Y62476D01*
X15431Y62430D01*
X15338Y62401D01*
X15240Y62392D01*
X15240Y62392D01*
X15142Y62401D01*
X15049Y62430D01*
X14962Y62476D01*
X14886Y62538D01*
X14824Y62614D01*
X14778Y62700D01*
X14750Y62794D01*
X14740Y62892D01*
X14740Y62892D01*
X14750Y62989D01*
X14778Y63083D01*
X14824Y63169D01*
X14886Y63245D01*
X14962Y63307D01*
X15049Y63354D01*
X15142Y63382D01*
X15240Y63392D01*
G37*
G36*
X17780Y63351D02*
X17780Y63351D01*
X17878Y63341D01*
X17971Y63313D01*
X18058Y63267D01*
X18134Y63204D01*
X18196Y63129D01*
X18242Y63042D01*
X18270Y62948D01*
X18280Y62851D01*
X18280Y62851D01*
X18270Y62753D01*
X18242Y62659D01*
X18196Y62573D01*
X18134Y62497D01*
X18058Y62435D01*
X17971Y62389D01*
X17878Y62360D01*
X17780Y62351D01*
X17780Y62351D01*
X17682Y62360D01*
X17589Y62389D01*
X17502Y62435D01*
X17426Y62497D01*
X17364Y62573D01*
X17318Y62659D01*
X17290Y62753D01*
X17280Y62851D01*
X17280Y62851D01*
X17290Y62948D01*
X17318Y63042D01*
X17364Y63129D01*
X17426Y63204D01*
X17502Y63267D01*
X17589Y63313D01*
X17682Y63341D01*
X17780Y63351D01*
G37*
G36*
X12700Y63351D02*
X12700Y63351D01*
X12798Y63341D01*
X12891Y63313D01*
X12978Y63267D01*
X13054Y63204D01*
X13116Y63129D01*
X13162Y63042D01*
X13190Y62948D01*
X13200Y62851D01*
X13200Y62851D01*
X13190Y62753D01*
X13162Y62659D01*
X13116Y62573D01*
X13054Y62497D01*
X12978Y62435D01*
X12891Y62389D01*
X12798Y62360D01*
X12700Y62351D01*
X12700Y62351D01*
X12602Y62360D01*
X12509Y62389D01*
X12422Y62435D01*
X12346Y62497D01*
X12284Y62573D01*
X12238Y62659D01*
X12210Y62753D01*
X12200Y62851D01*
X12200Y62851D01*
X12210Y62948D01*
X12238Y63042D01*
X12284Y63129D01*
X12346Y63204D01*
X12422Y63267D01*
X12509Y63313D01*
X12602Y63341D01*
X12700Y63351D01*
G37*
G36*
X11430Y45539D02*
X11430Y45539D01*
X11528Y45530D01*
X11621Y45501D01*
X11708Y45455D01*
X11784Y45393D01*
X11846Y45317D01*
X11892Y45230D01*
X11920Y45137D01*
X11930Y45039D01*
X11930Y45039D01*
X11920Y44942D01*
X11892Y44848D01*
X11846Y44761D01*
X11784Y44686D01*
X11708Y44623D01*
X11621Y44577D01*
X11528Y44549D01*
X11430Y44539D01*
X11430Y44539D01*
X11332Y44549D01*
X11239Y44577D01*
X11152Y44623D01*
X11076Y44686D01*
X11014Y44761D01*
X10968Y44848D01*
X10940Y44942D01*
X10930Y45039D01*
X10930Y45039D01*
X10940Y45137D01*
X10968Y45230D01*
X11014Y45317D01*
X11076Y45393D01*
X11152Y45455D01*
X11239Y45501D01*
X11332Y45530D01*
X11430Y45539D01*
G37*
G36*
X3810Y45539D02*
X3810Y45539D01*
X3908Y45530D01*
X4001Y45501D01*
X4088Y45455D01*
X4164Y45393D01*
X4226Y45317D01*
X4272Y45230D01*
X4300Y45137D01*
X4310Y45039D01*
X4310Y45039D01*
X4300Y44942D01*
X4272Y44848D01*
X4226Y44761D01*
X4164Y44686D01*
X4088Y44623D01*
X4001Y44577D01*
X3908Y44549D01*
X3810Y44539D01*
X3810Y44539D01*
X3712Y44549D01*
X3619Y44577D01*
X3532Y44623D01*
X3456Y44686D01*
X3394Y44761D01*
X3348Y44848D01*
X3320Y44942D01*
X3310Y45039D01*
X3310Y45039D01*
X3320Y45137D01*
X3348Y45230D01*
X3394Y45317D01*
X3456Y45393D01*
X3532Y45455D01*
X3619Y45501D01*
X3712Y45530D01*
X3810Y45539D01*
G37*
G36*
X6350Y45539D02*
X6350Y45539D01*
X6448Y45530D01*
X6541Y45501D01*
X6628Y45455D01*
X6704Y45393D01*
X6766Y45317D01*
X6812Y45230D01*
X6840Y45137D01*
X6850Y45039D01*
X6850Y45039D01*
X6840Y44942D01*
X6812Y44848D01*
X6766Y44761D01*
X6704Y44686D01*
X6628Y44623D01*
X6541Y44577D01*
X6448Y44549D01*
X6350Y44539D01*
X6350Y44539D01*
X6252Y44549D01*
X6159Y44577D01*
X6072Y44623D01*
X5996Y44686D01*
X5934Y44761D01*
X5888Y44848D01*
X5860Y44942D01*
X5850Y45039D01*
X5850Y45039D01*
X5860Y45137D01*
X5888Y45230D01*
X5934Y45317D01*
X5996Y45393D01*
X6072Y45455D01*
X6159Y45501D01*
X6252Y45530D01*
X6350Y45539D01*
G37*
G36*
X21590Y45539D02*
X21590Y45539D01*
X21688Y45530D01*
X21781Y45501D01*
X21868Y45455D01*
X21944Y45393D01*
X22006Y45317D01*
X22052Y45230D01*
X22080Y45137D01*
X22090Y45039D01*
X22090Y45039D01*
X22080Y44942D01*
X22052Y44848D01*
X22006Y44761D01*
X21944Y44686D01*
X21868Y44623D01*
X21781Y44577D01*
X21688Y44549D01*
X21590Y44539D01*
X21590Y44539D01*
X21492Y44549D01*
X21399Y44577D01*
X21312Y44623D01*
X21236Y44686D01*
X21174Y44761D01*
X21128Y44848D01*
X21100Y44942D01*
X21090Y45039D01*
X21090Y45039D01*
X21100Y45137D01*
X21128Y45230D01*
X21174Y45317D01*
X21236Y45393D01*
X21312Y45455D01*
X21399Y45501D01*
X21492Y45530D01*
X21590Y45539D01*
G37*
G36*
X13970Y45539D02*
X13970Y45539D01*
X14068Y45530D01*
X14161Y45501D01*
X14248Y45455D01*
X14324Y45393D01*
X14386Y45317D01*
X14432Y45230D01*
X14460Y45137D01*
X14470Y45039D01*
X14470Y45039D01*
X14460Y44942D01*
X14432Y44848D01*
X14386Y44761D01*
X14324Y44686D01*
X14248Y44623D01*
X14161Y44577D01*
X14068Y44549D01*
X13970Y44539D01*
X13970Y44539D01*
X13872Y44549D01*
X13779Y44577D01*
X13692Y44623D01*
X13616Y44686D01*
X13554Y44761D01*
X13508Y44848D01*
X13480Y44942D01*
X13470Y45039D01*
X13470Y45039D01*
X13480Y45137D01*
X13508Y45230D01*
X13554Y45317D01*
X13616Y45393D01*
X13692Y45455D01*
X13779Y45501D01*
X13872Y45530D01*
X13970Y45539D01*
G37*
G36*
X8890Y45539D02*
X8890Y45539D01*
X8988Y45530D01*
X9081Y45501D01*
X9168Y45455D01*
X9244Y45393D01*
X9306Y45317D01*
X9352Y45230D01*
X9380Y45137D01*
X9390Y45039D01*
X9390Y45039D01*
X9380Y44942D01*
X9352Y44848D01*
X9306Y44761D01*
X9244Y44686D01*
X9168Y44623D01*
X9081Y44577D01*
X8988Y44549D01*
X8890Y44539D01*
X8890Y44539D01*
X8792Y44549D01*
X8699Y44577D01*
X8612Y44623D01*
X8536Y44686D01*
X8474Y44761D01*
X8428Y44848D01*
X8400Y44942D01*
X8390Y45039D01*
X8390Y45039D01*
X8400Y45137D01*
X8428Y45230D01*
X8474Y45317D01*
X8536Y45393D01*
X8612Y45455D01*
X8699Y45501D01*
X8792Y45530D01*
X8890Y45539D01*
G37*
G36*
X19050Y45539D02*
X19050Y45539D01*
X19148Y45530D01*
X19241Y45501D01*
X19328Y45455D01*
X19404Y45393D01*
X19466Y45317D01*
X19512Y45230D01*
X19540Y45137D01*
X19550Y45039D01*
X19550Y45039D01*
X19540Y44942D01*
X19512Y44848D01*
X19466Y44761D01*
X19404Y44686D01*
X19328Y44623D01*
X19241Y44577D01*
X19148Y44549D01*
X19050Y44539D01*
X19050Y44539D01*
X18952Y44549D01*
X18859Y44577D01*
X18772Y44623D01*
X18696Y44686D01*
X18634Y44761D01*
X18588Y44848D01*
X18560Y44942D01*
X18550Y45039D01*
X18550Y45039D01*
X18560Y45137D01*
X18588Y45230D01*
X18634Y45317D01*
X18696Y45393D01*
X18772Y45455D01*
X18859Y45501D01*
X18952Y45530D01*
X19050Y45539D01*
G37*
G36*
X16510Y45539D02*
X16510Y45539D01*
X16608Y45530D01*
X16701Y45501D01*
X16788Y45455D01*
X16864Y45393D01*
X16926Y45317D01*
X16972Y45230D01*
X17000Y45137D01*
X17010Y45039D01*
X17010Y45039D01*
X17000Y44942D01*
X16972Y44848D01*
X16926Y44761D01*
X16864Y44686D01*
X16788Y44623D01*
X16701Y44577D01*
X16608Y44549D01*
X16510Y44539D01*
X16510Y44539D01*
X16412Y44549D01*
X16319Y44577D01*
X16232Y44623D01*
X16156Y44686D01*
X16094Y44761D01*
X16048Y44848D01*
X16020Y44942D01*
X16010Y45039D01*
X16010Y45039D01*
X16020Y45137D01*
X16048Y45230D01*
X16094Y45317D01*
X16156Y45393D01*
X16232Y45455D01*
X16319Y45501D01*
X16412Y45530D01*
X16510Y45539D01*
G37*
G36*
X6020Y35560D02*
X6012Y35442D01*
X5990Y35326D01*
X5954Y35214D01*
X5904Y35107D01*
X5840Y35008D01*
X5765Y34917D01*
X5679Y34836D01*
X5584Y34767D01*
X5480Y34710D01*
X5370Y34666D01*
X5256Y34637D01*
X5139Y34622D01*
X5021Y34622D01*
X4904Y34637D01*
X4790Y34666D01*
X4680Y34710D01*
X4576Y34767D01*
X4481Y34836D01*
X4395Y34917D01*
X4320Y35008D01*
X4256Y35107D01*
X4206Y35214D01*
X4170Y35326D01*
X4148Y35442D01*
X4140Y35560D01*
X4148Y35678D01*
X4170Y35794D01*
X4206Y35906D01*
X4256Y36013D01*
X4320Y36112D01*
X4395Y36203D01*
X4481Y36284D01*
X4576Y36353D01*
X4680Y36410D01*
X4790Y36454D01*
X4904Y36483D01*
X5021Y36498D01*
X5139Y36498D01*
X5256Y36483D01*
X5370Y36454D01*
X5480Y36410D01*
X5584Y36353D01*
X5679Y36284D01*
X5765Y36203D01*
X5840Y36112D01*
X5904Y36013D01*
X5954Y35906D01*
X5990Y35794D01*
X6012Y35678D01*
X6020Y35560D01*
G37*
G36*
X8560Y35560D02*
X8552Y35442D01*
X8530Y35326D01*
X8494Y35214D01*
X8444Y35107D01*
X8380Y35008D01*
X8305Y34917D01*
X8219Y34836D01*
X8124Y34767D01*
X8020Y34710D01*
X7910Y34666D01*
X7796Y34637D01*
X7679Y34622D01*
X7561Y34622D01*
X7444Y34637D01*
X7330Y34666D01*
X7220Y34710D01*
X7116Y34767D01*
X7021Y34836D01*
X6935Y34917D01*
X6860Y35008D01*
X6796Y35107D01*
X6746Y35214D01*
X6710Y35326D01*
X6688Y35442D01*
X6680Y35560D01*
X6688Y35678D01*
X6710Y35794D01*
X6746Y35906D01*
X6796Y36013D01*
X6860Y36112D01*
X6935Y36203D01*
X7021Y36284D01*
X7116Y36353D01*
X7220Y36410D01*
X7330Y36454D01*
X7444Y36483D01*
X7561Y36498D01*
X7679Y36498D01*
X7796Y36483D01*
X7910Y36454D01*
X8020Y36410D01*
X8124Y36353D01*
X8219Y36284D01*
X8305Y36203D01*
X8380Y36112D01*
X8444Y36013D01*
X8494Y35906D01*
X8530Y35794D01*
X8552Y35678D01*
X8560Y35560D01*
G37*
G36*
X12370Y3940D02*
X12362Y3822D01*
X12340Y3706D01*
X12304Y3594D01*
X12254Y3487D01*
X12190Y3388D01*
X12115Y3297D01*
X12029Y3216D01*
X11934Y3147D01*
X11830Y3090D01*
X11720Y3046D01*
X11606Y3017D01*
X11489Y3002D01*
X11371Y3002D01*
X11254Y3017D01*
X11140Y3046D01*
X11030Y3090D01*
X10926Y3147D01*
X10831Y3216D01*
X10745Y3297D01*
X10670Y3388D01*
X10606Y3487D01*
X10556Y3594D01*
X10520Y3706D01*
X10498Y3822D01*
X10490Y3940D01*
X10498Y4058D01*
X10520Y4174D01*
X10556Y4286D01*
X10606Y4393D01*
X10670Y4493D01*
X10745Y4583D01*
X10831Y4664D01*
X10926Y4734D01*
X11030Y4791D01*
X11140Y4834D01*
X11254Y4863D01*
X11371Y4878D01*
X11489Y4878D01*
X11606Y4863D01*
X11720Y4834D01*
X11830Y4791D01*
X11934Y4734D01*
X12029Y4664D01*
X12115Y4583D01*
X12190Y4493D01*
X12254Y4393D01*
X12304Y4286D01*
X12340Y4174D01*
X12362Y4058D01*
X12370Y3940D01*
G37*
G36*
X14910Y3940D02*
X14902Y3822D01*
X14880Y3706D01*
X14844Y3594D01*
X14794Y3487D01*
X14730Y3388D01*
X14655Y3297D01*
X14569Y3216D01*
X14474Y3147D01*
X14370Y3090D01*
X14260Y3046D01*
X14146Y3017D01*
X14029Y3002D01*
X13911Y3002D01*
X13794Y3017D01*
X13680Y3046D01*
X13570Y3090D01*
X13466Y3147D01*
X13371Y3216D01*
X13285Y3297D01*
X13210Y3388D01*
X13146Y3487D01*
X13096Y3594D01*
X13060Y3706D01*
X13038Y3822D01*
X13030Y3940D01*
X13038Y4058D01*
X13060Y4174D01*
X13096Y4286D01*
X13146Y4393D01*
X13210Y4493D01*
X13285Y4583D01*
X13371Y4664D01*
X13466Y4734D01*
X13570Y4791D01*
X13680Y4834D01*
X13794Y4863D01*
X13911Y4878D01*
X14029Y4878D01*
X14146Y4863D01*
X14260Y4834D01*
X14370Y4791D01*
X14474Y4734D01*
X14569Y4664D01*
X14655Y4583D01*
X14730Y4493D01*
X14794Y4393D01*
X14844Y4286D01*
X14880Y4174D01*
X14902Y4058D01*
X14910Y3940D01*
G37*
G36*
X17450Y35560D02*
X17442Y35442D01*
X17420Y35326D01*
X17384Y35214D01*
X17334Y35107D01*
X17270Y35008D01*
X17195Y34917D01*
X17109Y34836D01*
X17014Y34767D01*
X16910Y34710D01*
X16800Y34666D01*
X16686Y34637D01*
X16569Y34622D01*
X16451Y34622D01*
X16334Y34637D01*
X16220Y34666D01*
X16110Y34710D01*
X16006Y34767D01*
X15911Y34836D01*
X15825Y34917D01*
X15750Y35008D01*
X15686Y35107D01*
X15636Y35214D01*
X15600Y35326D01*
X15578Y35442D01*
X15570Y35560D01*
X15578Y35678D01*
X15600Y35794D01*
X15636Y35906D01*
X15686Y36013D01*
X15750Y36112D01*
X15825Y36203D01*
X15911Y36284D01*
X16006Y36353D01*
X16110Y36410D01*
X16220Y36454D01*
X16334Y36483D01*
X16451Y36498D01*
X16569Y36498D01*
X16686Y36483D01*
X16800Y36454D01*
X16910Y36410D01*
X17014Y36353D01*
X17109Y36284D01*
X17195Y36203D01*
X17270Y36112D01*
X17334Y36013D01*
X17384Y35906D01*
X17420Y35794D01*
X17442Y35678D01*
X17450Y35560D01*
G37*
G36*
X19990Y35560D02*
X19982Y35442D01*
X19960Y35326D01*
X19924Y35214D01*
X19874Y35107D01*
X19810Y35008D01*
X19735Y34917D01*
X19649Y34836D01*
X19554Y34767D01*
X19450Y34710D01*
X19340Y34666D01*
X19226Y34637D01*
X19109Y34622D01*
X18991Y34622D01*
X18874Y34637D01*
X18760Y34666D01*
X18650Y34710D01*
X18546Y34767D01*
X18451Y34836D01*
X18365Y34917D01*
X18290Y35008D01*
X18226Y35107D01*
X18176Y35214D01*
X18140Y35326D01*
X18118Y35442D01*
X18110Y35560D01*
X18118Y35678D01*
X18140Y35794D01*
X18176Y35906D01*
X18226Y36013D01*
X18290Y36112D01*
X18365Y36203D01*
X18451Y36284D01*
X18546Y36353D01*
X18650Y36410D01*
X18760Y36454D01*
X18874Y36483D01*
X18991Y36498D01*
X19109Y36498D01*
X19226Y36483D01*
X19340Y36454D01*
X19450Y36410D01*
X19554Y36353D01*
X19649Y36284D01*
X19735Y36203D01*
X19810Y36112D01*
X19874Y36013D01*
X19924Y35906D01*
X19960Y35794D01*
X19982Y35678D01*
X19990Y35560D01*
G37*
M02*
