%
M48
METRIC,TZ,000.000
ICI,OFF
T1C0.5
T2C0.813
%
T1
X16510Y86405
T1
X19050Y86360
T1
X11430Y86422
T1
X6350Y86422
T1
X13970Y86422
T1
X8890Y86405
T1
X21590Y86360
T1
X3810Y86499
T1
X5080Y24978
T1
X20320Y22438
T1
X5080Y12278
T1
X20320Y12278
T1
X5080Y19898
T1
X20320Y14818
T1
X5080Y14818
T1
X5080Y22438
T1
X5080Y17358
T1
X20320Y24978
T1
X20320Y19898
T1
X20320Y17358
T1
X7620Y62851
T1
X10160Y62851
T1
X15240Y62892
T1
X17780Y62851
T1
X12700Y62851
T1
X11430Y45039
T1
X3810Y45039
T1
X6350Y45039
T1
X21590Y45039
T1
X13970Y45039
T1
X8890Y45039
T1
X19050Y45039
T1
X16510Y45039
T2
X5080Y35560
T2
X7620Y35560
T2
X11430Y3940
T2
X13970Y3940
T2
X16510Y35560
T2
X19050Y35560
M30
