G75*
G71*
%OFA0B0*%
%FSLAX23Y23*%
%IPPOS*%
%LPD*%
%ADD10C,0.1*%
%ADD11C,0.111*%
%ADD12C,0.254*%
%ADD13C,0.254*%
%LPD*%D10*
X0Y0D02*
X0Y100D01*
X0Y200D01*
X0Y300D01*
X0Y400D01*
X0Y500D01*
X0Y600D01*
X0Y700D01*
X0Y800D01*
X0Y900D01*
X0Y1000D01*
X0Y1100D01*
X0Y1200D01*
X0Y1300D01*
X0Y1400D01*
X0Y1500D01*
X0Y1600D01*
X0Y1700D01*
X0Y1800D01*
X0Y1900D01*
X0Y2000D01*
X0Y2100D01*
X0Y2200D01*
X0Y2300D01*
X0Y2400D01*
X0Y2500D01*
X0Y2600D01*
X0Y2700D01*
X0Y2800D01*
X0Y2900D01*
X0Y3000D01*
X0Y3100D01*
X0Y3200D01*
X0Y3300D01*
X0Y3400D01*
X0Y3500D01*
X0Y3600D01*
X0Y3700D01*
X0Y3800D01*
X0Y3900D01*
X0Y4000D01*
X0Y4100D01*
X0Y4200D01*
X0Y4300D01*
X0Y4400D01*
X0Y4500D01*
X0Y4600D01*
X0Y4700D01*
X0Y4800D01*
X0Y4900D01*
X0Y5000D01*
X0Y5100D01*
X0Y5200D01*
X0Y5300D01*
X0Y5400D01*
X0Y5500D01*
X0Y5600D01*
X0Y5700D01*
X0Y5800D01*
X0Y5900D01*
X0Y6000D01*
X0Y6100D01*
X0Y6200D01*
X0Y6300D01*
X0Y6400D01*
X0Y6500D01*
X0Y6600D01*
X0Y6700D01*
X0Y6800D01*
X0Y6900D01*
X0Y7000D01*
X0Y7100D01*
X0Y7200D01*
X0Y7300D01*
X0Y7400D01*
X0Y7500D01*
X0Y7600D01*
X0Y7700D01*
X0Y7800D01*
X0Y7900D01*
X0Y8000D01*
X0Y8100D01*
X0Y8200D01*
X0Y8300D01*
X0Y8400D01*
X0Y8500D01*
X0Y8600D01*
X0Y8700D01*
X0Y8800D01*
X0Y8900D01*
X0Y9000D01*
X0Y9100D01*
X0Y9200D01*
X0Y9300D01*
X0Y9400D01*
X0Y9500D01*
X0Y9600D01*
X0Y9700D01*
X0Y9800D01*
X0Y9900D01*
X0Y10000D01*
X0Y10100D01*
X0Y10200D01*
X0Y10300D01*
X0Y10400D01*
X0Y10500D01*
X0Y10600D01*
X0Y10700D01*
X0Y10800D01*
X0Y10900D01*
X0Y11000D01*
X0Y11100D01*
X0Y11200D01*
X0Y11300D01*
X0Y11400D01*
X0Y11500D01*
X0Y11600D01*
X0Y11700D01*
X0Y11800D01*
X0Y11900D01*
X0Y12000D01*
X0Y12100D01*
X0Y12200D01*
X0Y12300D01*
X0Y12400D01*
X0Y12500D01*
X0Y12600D01*
X0Y12700D01*
X0Y12800D01*
X0Y12900D01*
X0Y13000D01*
X0Y13100D01*
X0Y13200D01*
X0Y13300D01*
X0Y13400D01*
X0Y13500D01*
X0Y13600D01*
X0Y13700D01*
X0Y13800D01*
X0Y13900D01*
X0Y14000D01*
X0Y14100D01*
X0Y14200D01*
X0Y14300D01*
X0Y14400D01*
X0Y14500D01*
X0Y14600D01*
X0Y14700D01*
X0Y14800D01*
X0Y14900D01*
X0Y15000D01*
X0Y15100D01*
X0Y15200D01*
X0Y15300D01*
X0Y15400D01*
X0Y15500D01*
X0Y15600D01*
X0Y15700D01*
X0Y15800D01*
X0Y15900D01*
X0Y16000D01*
X0Y16100D01*
X0Y16200D01*
X0Y16300D01*
X0Y16400D01*
X0Y16500D01*
X0Y16600D01*
X0Y16700D01*
X0Y16800D01*
X0Y16900D01*
X0Y17000D01*
X0Y17100D01*
X0Y17200D01*
X0Y17300D01*
X0Y17400D01*
X0Y17500D01*
X0Y17600D01*
X0Y17700D01*
X0Y17800D01*
X0Y17900D01*
X0Y18000D01*
X0Y18100D01*
X0Y18200D01*
X0Y18300D01*
X0Y18400D01*
X0Y18500D01*
X0Y18600D01*
X0Y18700D01*
X0Y18800D01*
X0Y18900D01*
X0Y19000D01*
X0Y19100D01*
X0Y19200D01*
X0Y19300D01*
X0Y19400D01*
X0Y19500D01*
X0Y19600D01*
X0Y19700D01*
X0Y19800D01*
X0Y19900D01*
X0Y20000D01*
X0Y20100D01*
X0Y20200D01*
X0Y20300D01*
X0Y20400D01*
X0Y20500D01*
X0Y20600D01*
X0Y20700D01*
X0Y20800D01*
X0Y20900D01*
X0Y21000D01*
X0Y21100D01*
X0Y21200D01*
X0Y21300D01*
X0Y21400D01*
X0Y21500D01*
X0Y21600D01*
X0Y21700D01*
X0Y21800D01*
X0Y21900D01*
X0Y22000D01*
X0Y22100D01*
X0Y22200D01*
X0Y22300D01*
X0Y22400D01*
X0Y22500D01*
X0Y22600D01*
X0Y22700D01*
X0Y22800D01*
X0Y22900D01*
X0Y23000D01*
X0Y23100D01*
X0Y23200D01*
X0Y23300D01*
X0Y23400D01*
X0Y23500D01*
X0Y23600D01*
X0Y23700D01*
X0Y23800D01*
X0Y23900D01*
X0Y24000D01*
X0Y24100D01*
X0Y24200D01*
X0Y24300D01*
X0Y24400D01*
X0Y24500D01*
X0Y24600D01*
X0Y24700D01*
X0Y24800D01*
X0Y24900D01*
X0Y25000D01*
X0Y25100D01*
X0Y25200D01*
X0Y25300D01*
X0Y25400D01*
X0Y25500D01*
X0Y25600D01*
X0Y25700D01*
X0Y25800D01*
X0Y25900D01*
X0Y26000D01*
X0Y26100D01*
X0Y26200D01*
X0Y26300D01*
X0Y26400D01*
X0Y26500D01*
X0Y26600D01*
X0Y26700D01*
X0Y26800D01*
X0Y26900D01*
X0Y27000D01*
X0Y27100D01*
X0Y27200D01*
X0Y27300D01*
X0Y27400D01*
X0Y27500D01*
X0Y27600D01*
X0Y27700D01*
X0Y27800D01*
X0Y27900D01*
X0Y28000D01*
X0Y28100D01*
X0Y28200D01*
X0Y28300D01*
X0Y28400D01*
X0Y28500D01*
X0Y28600D01*
X0Y28700D01*
X0Y28800D01*
X0Y28900D01*
X0Y29000D01*
X0Y29100D01*
X0Y29200D01*
X0Y29300D01*
X0Y29400D01*
X0Y29500D01*
X0Y29600D01*
X0Y29700D01*
X0Y29800D01*
X0Y29900D01*
X0Y30000D01*
X0Y30100D01*
X0Y30200D01*
X0Y30300D01*
X0Y30400D01*
X0Y30500D01*
X0Y30600D01*
X0Y30700D01*
X0Y30800D01*
X0Y30900D01*
X0Y31000D01*
X0Y31100D01*
X0Y31200D01*
X0Y31300D01*
X0Y31400D01*
X0Y31500D01*
X0Y31600D01*
X0Y31700D01*
X0Y31800D01*
X0Y31900D01*
X0Y32000D01*
X0Y32100D01*
X0Y32200D01*
X0Y32300D01*
X0Y32400D01*
X0Y32500D01*
X0Y32600D01*
X0Y32700D01*
X0Y32800D01*
X0Y32900D01*
X0Y33000D01*
X0Y33100D01*
X0Y33200D01*
X0Y33300D01*
X0Y33400D01*
X0Y33500D01*
X0Y33600D01*
X0Y33700D01*
X0Y33800D01*
X0Y33900D01*
X0Y34000D01*
X0Y34100D01*
X0Y34200D01*
X0Y34300D01*
X0Y34400D01*
X0Y34500D01*
X0Y34600D01*
X0Y34700D01*
X0Y34800D01*
X0Y34900D01*
X0Y35000D01*
X0Y35100D01*
X0Y35200D01*
X0Y35300D01*
X0Y35400D01*
X0Y35500D01*
X0Y35600D01*
X0Y35700D01*
X0Y35800D01*
X0Y35900D01*
X0Y36000D01*
X0Y36100D01*
X0Y36200D01*
X0Y36300D01*
X0Y36400D01*
X0Y36500D01*
X0Y36600D01*
X0Y36700D01*
X0Y36800D01*
X0Y36900D01*
X0Y37000D01*
X0Y37100D01*
X0Y37200D01*
X0Y37300D01*
X0Y37400D01*
X0Y37500D01*
X0Y37600D01*
X0Y37700D01*
X0Y37800D01*
X0Y37900D01*
X0Y38000D01*
X0Y38100D01*
X0Y38200D01*
X0Y38300D01*
X0Y38400D01*
X0Y38500D01*
X0Y38600D01*
X0Y38700D01*
X0Y38800D01*
X0Y38900D01*
X0Y39000D01*
X0Y39100D01*
X0Y39200D01*
X0Y39300D01*
X0Y39400D01*
X0Y39500D01*
X0Y39600D01*
X0Y39700D01*
X0Y39800D01*
X0Y39900D01*
X0Y40000D01*
X0Y40100D01*
X0Y40200D01*
X0Y40300D01*
X0Y40400D01*
X0Y40500D01*
X0Y40600D01*
X0Y40700D01*
X0Y40800D01*
X0Y40900D01*
X0Y41000D01*
X0Y41100D01*
X0Y41200D01*
X0Y41300D01*
X0Y41400D01*
X0Y41500D01*
X0Y41600D01*
X0Y41700D01*
X0Y41800D01*
X0Y41900D01*
X0Y42000D01*
X0Y42100D01*
X0Y42200D01*
X0Y42300D01*
X0Y42400D01*
X0Y42500D01*
X0Y42600D01*
X0Y42700D01*
X0Y42800D01*
X0Y42900D01*
X0Y43000D01*
X0Y43100D01*
X0Y43200D01*
X0Y43300D01*
X0Y43400D01*
X0Y43500D01*
X0Y43600D01*
X0Y43700D01*
X0Y43800D01*
X0Y43900D01*
X0Y44000D01*
X0Y44100D01*
X0Y44200D01*
X0Y44300D01*
X0Y44400D01*
X0Y44500D01*
X0Y44600D01*
X0Y44700D01*
X0Y44800D01*
X0Y44900D01*
X0Y45000D01*
X0Y45100D01*
X0Y45200D01*
X0Y45300D01*
X0Y45400D01*
X0Y45500D01*
X0Y45600D01*
X0Y45700D01*
X0Y45800D01*
X0Y45900D01*
X0Y46000D01*
X0Y46100D01*
X0Y46200D01*
X0Y46300D01*
X0Y46400D01*
X0Y46500D01*
X0Y46600D01*
X0Y46700D01*
X0Y46800D01*
X0Y46900D01*
X0Y47000D01*
X0Y47100D01*
X0Y47200D01*
X0Y47300D01*
X0Y47400D01*
X0Y47500D01*
X0Y47600D01*
X0Y47700D01*
X0Y47800D01*
X0Y47900D01*
X0Y48000D01*
X0Y48100D01*
X0Y48200D01*
X0Y48300D01*
X0Y48400D01*
X0Y48500D01*
X0Y48600D01*
X0Y48700D01*
X0Y48800D01*
X0Y48900D01*
X0Y49000D01*
X0Y49100D01*
X0Y49200D01*
X0Y49300D01*
X0Y49400D01*
X0Y49500D01*
X0Y49600D01*
X0Y49700D01*
X0Y49800D01*
X0Y49900D01*
X0Y50000D01*
X0Y50100D01*
X0Y50200D01*
X0Y50300D01*
X0Y50400D01*
X0Y50500D01*
X0Y50600D01*
X0Y50700D01*
X0Y50800D01*
X0Y50900D01*
X0Y51000D01*
X0Y51100D01*
X0Y51200D01*
X0Y51300D01*
X0Y51400D01*
X0Y51500D01*
X0Y51600D01*
X0Y51700D01*
X0Y51800D01*
X0Y51900D01*
X0Y52000D01*
X0Y52100D01*
X0Y52200D01*
X0Y52300D01*
X0Y52400D01*
X0Y52500D01*
X0Y52600D01*
X0Y52700D01*
X0Y52800D01*
X0Y52900D01*
X0Y53000D01*
X0Y53100D01*
X0Y53200D01*
X0Y53300D01*
X0Y53400D01*
X0Y53500D01*
X0Y53600D01*
X0Y53700D01*
X0Y53800D01*
X0Y53900D01*
X0Y54000D01*
X0Y54100D01*
X0Y54200D01*
X0Y54300D01*
X0Y54400D01*
X0Y54500D01*
X0Y54600D01*
X0Y54700D01*
X0Y54800D01*
X0Y54900D01*
X0Y55000D01*
X0Y55100D01*
X0Y55200D01*
X0Y55300D01*
X0Y55400D01*
X0Y55500D01*
X0Y55600D01*
X0Y55700D01*
X0Y55800D01*
X0Y55900D01*
X0Y56000D01*
X0Y56100D01*
X0Y56200D01*
X0Y56300D01*
X0Y56400D01*
X0Y56500D01*
X0Y56600D01*
X0Y56700D01*
X0Y56800D01*
X0Y56900D01*
X0Y57000D01*
X0Y57100D01*
X0Y57200D01*
X0Y57300D01*
X0Y57400D01*
X0Y57500D01*
X0Y57600D01*
X0Y57700D01*
X0Y57800D01*
X0Y57900D01*
X0Y58000D01*
X0Y58100D01*
X0Y58200D01*
X0Y58300D01*
X0Y58400D01*
X0Y58500D01*
X0Y58600D01*
X0Y58700D01*
X0Y58800D01*
X0Y58900D01*
X0Y59000D01*
X0Y59100D01*
X0Y59200D01*
X0Y59300D01*
X0Y59400D01*
X0Y59500D01*
X0Y59600D01*
X0Y59700D01*
X0Y59800D01*
X0Y59900D01*
X0Y60000D01*
X0Y60100D01*
X0Y60200D01*
X0Y60300D01*
X0Y60400D01*
X0Y60500D01*
X0Y60600D01*
X0Y60700D01*
X0Y60800D01*
X0Y60900D01*
X0Y61000D01*
X0Y61100D01*
X0Y61200D01*
X0Y61300D01*
X0Y61400D01*
X0Y61500D01*
X0Y61600D01*
X0Y61700D01*
X0Y61800D01*
X0Y61900D01*
X0Y62000D01*
X0Y62100D01*
X0Y62200D01*
X0Y62300D01*
X0Y62400D01*
X0Y62500D01*
X0Y62600D01*
X0Y62700D01*
X0Y62800D01*
X0Y62900D01*
X0Y63000D01*
X0Y63100D01*
X0Y63200D01*
X0Y63300D01*
X0Y63400D01*
X0Y63500D01*
X0Y63600D01*
X0Y63700D01*
X0Y63800D01*
X0Y63900D01*
X0Y64000D01*
X0Y64100D01*
X0Y64200D01*
X0Y64300D01*
X0Y64400D01*
X0Y64500D01*
X0Y64600D01*
X0Y64700D01*
X0Y64800D01*
X0Y64900D01*
X0Y65000D01*
X0Y65100D01*
X0Y65200D01*
X0Y65300D01*
X0Y65400D01*
X0Y65500D01*
X0Y65600D01*
X0Y65700D01*
X0Y65800D01*
X0Y65900D01*
X0Y66000D01*
X0Y66100D01*
X0Y66200D01*
X0Y66300D01*
X0Y66400D01*
X0Y66500D01*
X0Y66600D01*
X0Y66700D01*
X0Y66800D01*
X0Y66900D01*
X0Y67000D01*
X0Y67100D01*
X0Y67200D01*
X0Y67300D01*
X0Y67400D01*
X0Y67500D01*
X0Y67600D01*
X0Y67700D01*
X0Y67800D01*
X0Y67900D01*
X0Y68000D01*
X0Y68100D01*
X0Y68200D01*
X0Y68300D01*
X0Y68400D01*
X0Y68500D01*
X0Y68600D01*
X0Y68700D01*
X0Y68800D01*
X0Y68900D01*
X0Y69000D01*
X0Y69100D01*
X0Y69200D01*
X0Y69300D01*
X0Y69400D01*
X0Y69500D01*
X0Y69600D01*
X0Y69700D01*
X0Y69800D01*
X0Y69900D01*
X0Y70000D01*
X0Y70100D01*
X0Y70200D01*
X0Y70300D01*
X0Y70400D01*
X0Y70500D01*
X0Y70600D01*
X0Y70700D01*
X0Y70800D01*
X0Y70900D01*
X0Y71000D01*
X0Y71100D01*
X0Y71200D01*
X0Y71300D01*
X0Y71400D01*
X0Y71500D01*
X0Y71600D01*
X0Y71700D01*
X0Y71800D01*
X0Y71900D01*
X0Y72000D01*
X0Y72100D01*
X0Y72200D01*
X0Y72300D01*
X0Y72400D01*
X0Y72500D01*
X0Y72600D01*
X0Y72700D01*
X0Y72800D01*
X0Y72900D01*
X0Y73000D01*
X0Y73100D01*
X0Y73200D01*
X0Y73300D01*
X0Y73400D01*
X0Y73500D01*
X0Y73600D01*
X0Y73700D01*
X0Y73800D01*
X0Y73900D01*
X0Y74000D01*
X0Y74100D01*
X0Y74200D01*
X0Y74300D01*
X0Y74400D01*
X0Y74500D01*
X0Y74600D01*
X0Y74700D01*
X0Y74800D01*
X0Y74900D01*
X0Y75000D01*
X0Y75100D01*
X0Y75200D01*
X0Y75300D01*
X0Y75400D01*
X0Y75500D01*
X0Y75600D01*
X0Y75700D01*
X0Y75800D01*
X0Y75900D01*
X0Y76000D01*
X0Y76100D01*
X0Y76200D01*
X0Y76300D01*
X0Y76400D01*
X0Y76500D01*
X0Y76600D01*
X0Y76700D01*
X0Y76800D01*
X0Y76900D01*
X0Y77000D01*
X0Y77100D01*
X0Y77200D01*
X0Y77300D01*
X0Y77400D01*
X0Y77500D01*
X0Y77600D01*
X0Y77700D01*
X0Y77800D01*
X0Y77900D01*
X0Y78000D01*
X0Y78100D01*
X0Y78200D01*
X0Y78300D01*
X0Y78400D01*
X0Y78500D01*
X0Y78600D01*
X0Y78700D01*
X0Y78800D01*
X0Y78900D01*
X0Y79000D01*
X0Y79100D01*
X0Y79200D01*
X0Y79300D01*
X0Y79400D01*
X0Y79500D01*
X0Y79600D01*
X0Y79700D01*
X0Y79800D01*
X0Y79900D01*
X0Y80000D01*
X0Y80100D01*
X0Y80200D01*
X0Y80300D01*
X0Y80400D01*
X0Y80500D01*
X0Y80600D01*
X0Y80700D01*
X0Y80800D01*
X0Y80900D01*
X0Y81000D01*
X0Y81100D01*
X0Y81200D01*
X0Y81300D01*
X0Y81400D01*
X0Y81500D01*
X0Y81600D01*
X0Y81700D01*
X0Y81800D01*
X0Y81900D01*
X0Y82000D01*
X0Y82100D01*
X0Y82200D01*
X0Y82300D01*
X0Y82400D01*
X0Y82500D01*
X0Y82600D01*
X0Y82700D01*
X0Y82800D01*
X0Y82900D01*
X0Y83000D01*
X0Y83100D01*
X0Y83200D01*
X0Y83300D01*
X0Y83400D01*
X0Y83500D01*
X0Y83600D01*
X0Y83700D01*
X0Y83800D01*
X0Y83900D01*
X0Y84000D01*
X0Y84100D01*
X0Y84200D01*
X0Y84300D01*
X0Y84400D01*
X0Y84500D01*
X0Y84600D01*
X0Y84700D01*
X0Y84800D01*
X0Y84900D01*
X0Y85000D01*
X0Y85100D01*
X0Y85200D01*
X0Y85300D01*
X0Y85400D01*
X0Y85500D01*
X0Y85600D01*
X0Y85700D01*
X0Y85800D01*
X0Y85900D01*
X0Y86000D01*
X0Y86100D01*
X0Y86200D01*
X0Y86300D01*
X0Y86400D01*
X0Y86500D01*
X0Y86600D01*
X0Y86700D01*
X0Y86800D01*
X0Y86900D01*
X0Y87000D01*
X0Y87100D01*
X0Y87200D01*
X0Y87300D01*
X0Y87400D01*
X0Y87500D01*
X0Y87600D01*
X0Y87700D01*
X0Y87800D01*
X0Y87900D01*
X0Y88000D01*
X0Y88100D01*
X0Y88200D01*
X0Y88300D01*
X0Y88400D01*
X0Y88500D01*
X0Y88600D01*
X0Y88700D01*
X0Y88800D01*
X0Y88900D01*
X0Y89000D01*
X0Y89100D01*
X0Y89200D01*
X0Y89300D01*
X0Y89400D01*
X0Y89500D01*
X0Y89600D01*
X0Y89700D01*
X0Y89800D01*
X0Y89900D01*
X0Y90000D01*
X0Y90100D01*
X0Y90200D01*
X0Y90300D01*
X0Y90400D01*
X0Y90500D01*
X0Y90600D01*
X0Y90700D01*
X0Y90800D01*
X0Y90900D01*
X0Y91000D01*
X0Y91100D01*
X0Y91200D01*
X0Y91300D01*
X0Y91400D01*
X0Y91500D01*
X0Y91600D01*
X0Y91700D01*
X0Y91800D01*
X0Y91900D01*
X0Y92000D01*
X0Y92100D01*
X0Y92200D01*
X0Y92300D01*
X0Y92400D01*
X0Y92500D01*
X0Y92600D01*
X0Y92700D01*
X0Y92800D01*
X0Y92900D01*
X0Y93000D01*
X0Y93100D01*
X0Y93200D01*
X0Y93300D01*
X0Y93400D01*
X0Y93500D01*
X0Y93600D01*
X0Y93700D01*
X0Y93800D01*
X0Y93900D01*
X0Y94000D01*
X0Y94100D01*
X0Y94200D01*
X0Y94300D01*
X0Y94400D01*
X0Y94500D01*
X0Y94600D01*
X0Y94700D01*
X0Y94800D01*
X0Y94900D01*
X0Y95000D01*
X0Y95100D01*
X0Y95200D01*
X0Y95300D01*
X0Y95400D01*
X0Y95500D01*
X0Y95600D01*
X0Y95700D01*
X0Y95800D01*
X0Y95900D01*
X0Y96000D01*
X0Y96100D01*
X0Y96200D01*
X0Y96300D01*
X0Y96400D01*
X0Y96500D01*
X0Y96600D01*
X0Y96700D01*
X0Y96800D01*
X0Y96900D01*
X0Y97000D01*
X0Y97100D01*
X0Y97200D01*
X0Y97300D01*
X0Y97400D01*
X0Y97500D01*
X0Y97600D01*
X0Y97700D01*
X0Y97800D01*
X0Y97900D01*
X0Y98000D01*
X0Y98100D01*
X0Y98200D01*
X0Y98300D01*
X0Y98400D01*
X0Y98500D01*
X0Y98600D01*
X0Y98700D01*
X0Y98800D01*
X0Y98900D01*
X0Y99000D01*
X0Y99100D01*
X0Y99200D01*
X0Y99300D01*
X0Y99400D01*
X0Y99500D01*
X0Y99600D01*
X0Y99700D01*
X0Y99800D01*
X0Y99900D01*
X0Y100000D01*
X0Y100100D01*
X0Y100200D01*
X0Y100300D01*
X0Y100400D01*
X0Y100500D01*
X0Y100600D01*
X0Y100700D01*
X0Y100800D01*
X0Y100900D01*
X0Y101000D01*
X0Y101100D01*
X0Y101200D01*
X0Y101300D01*
X0Y101400D01*
X0Y101500D01*
X0Y101600D01*
X100Y101600D01*
X200Y101600D01*
X300Y101600D01*
X400Y101600D01*
X500Y101600D01*
X600Y101600D01*
X700Y101600D01*
X800Y101600D01*
X900Y101600D01*
X1000Y101600D01*
X1100Y101600D01*
X1200Y101600D01*
X1300Y101600D01*
X1400Y101600D01*
X1500Y101600D01*
X1600Y101600D01*
X1700Y101600D01*
X1800Y101600D01*
X1900Y101600D01*
X2000Y101600D01*
X2100Y101600D01*
X2200Y101600D01*
X2300Y101600D01*
X2400Y101600D01*
X2500Y101600D01*
X2600Y101600D01*
X2700Y101600D01*
X2800Y101600D01*
X2900Y101600D01*
X3000Y101600D01*
X3100Y101600D01*
X3200Y101600D01*
X3300Y101600D01*
X3400Y101600D01*
X3500Y101600D01*
X3600Y101600D01*
X3700Y101600D01*
X3800Y101600D01*
X3900Y101600D01*
X4000Y101600D01*
X4100Y101600D01*
X4200Y101600D01*
X4300Y101600D01*
X4400Y101600D01*
X4500Y101600D01*
X4600Y101600D01*
X4700Y101600D01*
X4800Y101600D01*
X4900Y101600D01*
X5000Y101600D01*
X5100Y101600D01*
X5200Y101600D01*
X5300Y101600D01*
X5400Y101600D01*
X5500Y101600D01*
X5600Y101600D01*
X5700Y101600D01*
X5800Y101600D01*
X5900Y101600D01*
X6000Y101600D01*
X6100Y101600D01*
X6200Y101600D01*
X6300Y101600D01*
X6400Y101600D01*
X6500Y101600D01*
X6600Y101600D01*
X6700Y101600D01*
X6800Y101600D01*
X6900Y101600D01*
X7000Y101600D01*
X7100Y101600D01*
X7200Y101600D01*
X7300Y101600D01*
X7400Y101600D01*
X7500Y101600D01*
X7600Y101600D01*
X7700Y101600D01*
X7800Y101600D01*
X7900Y101600D01*
X8000Y101600D01*
X8100Y101600D01*
X8200Y101600D01*
X8300Y101600D01*
X8400Y101600D01*
X8500Y101600D01*
X8600Y101600D01*
X8700Y101600D01*
X8800Y101600D01*
X8900Y101600D01*
X9000Y101600D01*
X9100Y101600D01*
X9200Y101600D01*
X9300Y101600D01*
X9400Y101600D01*
X9500Y101600D01*
X9600Y101600D01*
X9700Y101600D01*
X9800Y101600D01*
X9900Y101600D01*
X10000Y101600D01*
X10100Y101600D01*
X10200Y101600D01*
X10300Y101600D01*
X10400Y101600D01*
X10500Y101600D01*
X10600Y101600D01*
X10700Y101600D01*
X10800Y101600D01*
X10900Y101600D01*
X11000Y101600D01*
X11100Y101600D01*
X11200Y101600D01*
X11300Y101600D01*
X11400Y101600D01*
X11500Y101600D01*
X11600Y101600D01*
X11700Y101600D01*
X11800Y101600D01*
X11900Y101600D01*
X12000Y101600D01*
X12100Y101600D01*
X12200Y101600D01*
X12300Y101600D01*
X12400Y101600D01*
X12500Y101600D01*
X12600Y101600D01*
X12700Y101600D01*
X12800Y101600D01*
X12900Y101600D01*
X13000Y101600D01*
X13100Y101600D01*
X13200Y101600D01*
X13300Y101600D01*
X13400Y101600D01*
X13500Y101600D01*
X13600Y101600D01*
X13700Y101600D01*
X13800Y101600D01*
X13900Y101600D01*
X14000Y101600D01*
X14100Y101600D01*
X14200Y101600D01*
X14300Y101600D01*
X14400Y101600D01*
X14500Y101600D01*
X14600Y101600D01*
X14700Y101600D01*
X14800Y101600D01*
X14900Y101600D01*
X15000Y101600D01*
X15100Y101600D01*
X15200Y101600D01*
X15300Y101600D01*
X15400Y101600D01*
X15500Y101600D01*
X15600Y101600D01*
X15700Y101600D01*
X15800Y101600D01*
X15900Y101600D01*
X16000Y101600D01*
X16100Y101600D01*
X16200Y101600D01*
X16300Y101600D01*
X16400Y101600D01*
X16500Y101600D01*
X16600Y101600D01*
X16700Y101600D01*
X16800Y101600D01*
X16900Y101600D01*
X17000Y101600D01*
X17100Y101600D01*
X17200Y101600D01*
X17300Y101600D01*
X17400Y101600D01*
X17500Y101600D01*
X17600Y101600D01*
X17700Y101600D01*
X17800Y101600D01*
X17900Y101600D01*
X18000Y101600D01*
X18100Y101600D01*
X18200Y101600D01*
X18300Y101600D01*
X18400Y101600D01*
X18500Y101600D01*
X18600Y101600D01*
X18700Y101600D01*
X18800Y101600D01*
X18900Y101600D01*
X19000Y101600D01*
X19100Y101600D01*
X19200Y101600D01*
X19300Y101600D01*
X19400Y101600D01*
X19500Y101600D01*
X19600Y101600D01*
X19700Y101600D01*
X19800Y101600D01*
X19900Y101600D01*
X20000Y101600D01*
X20100Y101600D01*
X20200Y101600D01*
X20300Y101600D01*
X20400Y101600D01*
X20500Y101600D01*
X20600Y101600D01*
X20700Y101600D01*
X20800Y101600D01*
X20900Y101600D01*
X21000Y101600D01*
X21100Y101600D01*
X21200Y101600D01*
X21300Y101600D01*
X21400Y101600D01*
X21500Y101600D01*
X21600Y101600D01*
X21700Y101600D01*
X21800Y101600D01*
X21900Y101600D01*
X22000Y101600D01*
X22100Y101600D01*
X22200Y101600D01*
X22300Y101600D01*
X22400Y101600D01*
X22500Y101600D01*
X22600Y101600D01*
X22700Y101600D01*
X22800Y101600D01*
X22900Y101600D01*
X23000Y101600D01*
X23100Y101600D01*
X23200Y101600D01*
X23300Y101600D01*
X23400Y101600D01*
X23500Y101600D01*
X23600Y101600D01*
X23700Y101600D01*
X23800Y101600D01*
X23900Y101600D01*
X24000Y101600D01*
X24100Y101600D01*
X24200Y101600D01*
X24300Y101600D01*
X24400Y101600D01*
X24500Y101600D01*
X24600Y101600D01*
X24700Y101600D01*
X24800Y101600D01*
X24900Y101600D01*
X25000Y101600D01*
X25100Y101600D01*
X25200Y101600D01*
X25300Y101600D01*
X25400Y101600D01*
X25400Y101500D01*
X25400Y101400D01*
X25400Y101300D01*
X25400Y101200D01*
X25400Y101100D01*
X25400Y101000D01*
X25400Y100900D01*
X25400Y100800D01*
X25400Y100700D01*
X25400Y100600D01*
X25400Y100500D01*
X25400Y100400D01*
X25400Y100300D01*
X25400Y100200D01*
X25400Y100100D01*
X25400Y100000D01*
X25400Y99900D01*
X25400Y99800D01*
X25400Y99700D01*
X25400Y99600D01*
X25400Y99500D01*
X25400Y99400D01*
X25400Y99300D01*
X25400Y99200D01*
X25400Y99100D01*
X25400Y99000D01*
X25400Y98900D01*
X25400Y98800D01*
X25400Y98700D01*
X25400Y98600D01*
X25400Y98500D01*
X25400Y98400D01*
X25400Y98300D01*
X25400Y98200D01*
X25400Y98100D01*
X25400Y98000D01*
X25400Y97900D01*
X25400Y97800D01*
X25400Y97700D01*
X25400Y97600D01*
X25400Y97500D01*
X25400Y97400D01*
X25400Y97300D01*
X25400Y97200D01*
X25400Y97100D01*
X25400Y97000D01*
X25400Y96900D01*
X25400Y96800D01*
X25400Y96700D01*
X25400Y96600D01*
X25400Y96500D01*
X25400Y96400D01*
X25400Y96300D01*
X25400Y96200D01*
X25400Y96100D01*
X25400Y96000D01*
X25400Y95900D01*
X25400Y95800D01*
X25400Y95700D01*
X25400Y95600D01*
X25400Y95500D01*
X25400Y95400D01*
X25400Y95300D01*
X25400Y95200D01*
X25400Y95100D01*
X25400Y95000D01*
X25400Y94900D01*
X25400Y94800D01*
X25400Y94700D01*
X25400Y94600D01*
X25400Y94500D01*
X25400Y94400D01*
X25400Y94300D01*
X25400Y94200D01*
X25400Y94100D01*
X25400Y94000D01*
X25400Y93900D01*
X25400Y93800D01*
X25400Y93700D01*
X25400Y93600D01*
X25400Y93500D01*
X25400Y93400D01*
X25400Y93300D01*
X25400Y93200D01*
X25400Y93100D01*
X25400Y93000D01*
X25400Y92900D01*
X25400Y92800D01*
X25400Y92700D01*
X25400Y92600D01*
X25400Y92500D01*
X25400Y92400D01*
X25400Y92300D01*
X25400Y92200D01*
X25400Y92100D01*
X25400Y92000D01*
X25400Y91900D01*
X25400Y91800D01*
X25400Y91700D01*
X25400Y91600D01*
X25400Y91500D01*
X25400Y91400D01*
X25400Y91300D01*
X25400Y91200D01*
X25400Y91100D01*
X25400Y91000D01*
X25400Y90900D01*
X25400Y90800D01*
X25400Y90700D01*
X25400Y90600D01*
X25400Y90500D01*
X25400Y90400D01*
X25400Y90300D01*
X25400Y90200D01*
X25400Y90100D01*
X25400Y90000D01*
X25400Y89900D01*
X25400Y89800D01*
X25400Y89700D01*
X25400Y89600D01*
X25400Y89500D01*
X25400Y89400D01*
X25400Y89300D01*
X25400Y89200D01*
X25400Y89100D01*
X25400Y89000D01*
X25400Y88900D01*
X25400Y88800D01*
X25400Y88700D01*
X25400Y88600D01*
X25400Y88500D01*
X25400Y88400D01*
X25400Y88300D01*
X25400Y88200D01*
X25400Y88100D01*
X25400Y88000D01*
X25400Y87900D01*
X25400Y87800D01*
X25400Y87700D01*
X25400Y87600D01*
X25400Y87500D01*
X25400Y87400D01*
X25400Y87300D01*
X25400Y87200D01*
X25400Y87100D01*
X25400Y87000D01*
X25400Y86900D01*
X25400Y86800D01*
X25400Y86700D01*
X25400Y86600D01*
X25400Y86500D01*
X25400Y86400D01*
X25400Y86300D01*
X25400Y86200D01*
X25400Y86100D01*
X25400Y86000D01*
X25400Y85900D01*
X25400Y85800D01*
X25400Y85700D01*
X25400Y85600D01*
X25400Y85500D01*
X25400Y85400D01*
X25400Y85300D01*
X25400Y85200D01*
X25400Y85100D01*
X25400Y85000D01*
X25400Y84900D01*
X25400Y84800D01*
X25400Y84700D01*
X25400Y84600D01*
X25400Y84500D01*
X25400Y84400D01*
X25400Y84300D01*
X25400Y84200D01*
X25400Y84100D01*
X25400Y84000D01*
X25400Y83900D01*
X25400Y83800D01*
X25400Y83700D01*
X25400Y83600D01*
X25400Y83500D01*
X25400Y83400D01*
X25400Y83300D01*
X25400Y83200D01*
X25400Y83100D01*
X25400Y83000D01*
X25400Y82900D01*
X25400Y82800D01*
X25400Y82700D01*
X25400Y82600D01*
X25400Y82500D01*
X25400Y82400D01*
X25400Y82300D01*
X25400Y82200D01*
X25400Y82100D01*
X25400Y82000D01*
X25400Y81900D01*
X25400Y81800D01*
X25400Y81700D01*
X25400Y81600D01*
X25400Y81500D01*
X25400Y81400D01*
X25400Y81300D01*
X25400Y81200D01*
X25400Y81100D01*
X25400Y81000D01*
X25400Y80900D01*
X25400Y80800D01*
X25400Y80700D01*
X25400Y80600D01*
X25400Y80500D01*
X25400Y80400D01*
X25400Y80300D01*
X25400Y80200D01*
X25400Y80100D01*
X25400Y80000D01*
X25400Y79900D01*
X25400Y79800D01*
X25400Y79700D01*
X25400Y79600D01*
X25400Y79500D01*
X25400Y79400D01*
X25400Y79300D01*
X25400Y79200D01*
X25400Y79100D01*
X25400Y79000D01*
X25400Y78900D01*
X25400Y78800D01*
X25400Y78700D01*
X25400Y78600D01*
X25400Y78500D01*
X25400Y78400D01*
X25400Y78300D01*
X25400Y78200D01*
X25400Y78100D01*
X25400Y78000D01*
X25400Y77900D01*
X25400Y77800D01*
X25400Y77700D01*
X25400Y77600D01*
X25400Y77500D01*
X25400Y77400D01*
X25400Y77300D01*
X25400Y77200D01*
X25400Y77100D01*
X25400Y77000D01*
X25400Y76900D01*
X25400Y76800D01*
X25400Y76700D01*
X25400Y76600D01*
X25400Y76500D01*
X25400Y76400D01*
X25400Y76300D01*
X25400Y76200D01*
X25400Y76100D01*
X25400Y76000D01*
X25400Y75900D01*
X25400Y75800D01*
X25400Y75700D01*
X25400Y75600D01*
X25400Y75500D01*
X25400Y75400D01*
X25400Y75300D01*
X25400Y75200D01*
X25400Y75100D01*
X25400Y75000D01*
X25400Y74900D01*
X25400Y74800D01*
X25400Y74700D01*
X25400Y74600D01*
X25400Y74500D01*
X25400Y74400D01*
X25400Y74300D01*
X25400Y74200D01*
X25400Y74100D01*
X25400Y74000D01*
X25400Y73900D01*
X25400Y73800D01*
X25400Y73700D01*
X25400Y73600D01*
X25400Y73500D01*
X25400Y73400D01*
X25400Y73300D01*
X25400Y73200D01*
X25400Y73100D01*
X25400Y73000D01*
X25400Y72900D01*
X25400Y72800D01*
X25400Y72700D01*
X25400Y72600D01*
X25400Y72500D01*
X25400Y72400D01*
X25400Y72300D01*
X25400Y72200D01*
X25400Y72100D01*
X25400Y72000D01*
X25400Y71900D01*
X25400Y71800D01*
X25400Y71700D01*
X25400Y71600D01*
X25400Y71500D01*
X25400Y71400D01*
X25400Y71300D01*
X25400Y71200D01*
X25400Y71100D01*
X25400Y71000D01*
X25400Y70900D01*
X25400Y70800D01*
X25400Y70700D01*
X25400Y70600D01*
X25400Y70500D01*
X25400Y70400D01*
X25400Y70300D01*
X25400Y70200D01*
X25400Y70100D01*
X25400Y70000D01*
X25400Y69900D01*
X25400Y69800D01*
X25400Y69700D01*
X25400Y69600D01*
X25400Y69500D01*
X25400Y69400D01*
X25400Y69300D01*
X25400Y69200D01*
X25400Y69100D01*
X25400Y69000D01*
X25400Y68900D01*
X25400Y68800D01*
X25400Y68700D01*
X25400Y68600D01*
X25400Y68500D01*
X25400Y68400D01*
X25400Y68300D01*
X25400Y68200D01*
X25400Y68100D01*
X25400Y68000D01*
X25400Y67900D01*
X25400Y67800D01*
X25400Y67700D01*
X25400Y67600D01*
X25400Y67500D01*
X25400Y67400D01*
X25400Y67300D01*
X25400Y67200D01*
X25400Y67100D01*
X25400Y67000D01*
X25400Y66900D01*
X25400Y66800D01*
X25400Y66700D01*
X25400Y66600D01*
X25400Y66500D01*
X25400Y66400D01*
X25400Y66300D01*
X25400Y66200D01*
X25400Y66100D01*
X25400Y66000D01*
X25400Y65900D01*
X25400Y65800D01*
X25400Y65700D01*
X25400Y65600D01*
X25400Y65500D01*
X25400Y65400D01*
X25400Y65300D01*
X25400Y65200D01*
X25400Y65100D01*
X25400Y65000D01*
X25400Y64900D01*
X25400Y64800D01*
X25400Y64700D01*
X25400Y64600D01*
X25400Y64500D01*
X25400Y64400D01*
X25400Y64300D01*
X25400Y64200D01*
X25400Y64100D01*
X25400Y64000D01*
X25400Y63900D01*
X25400Y63800D01*
X25400Y63700D01*
X25400Y63600D01*
X25400Y63500D01*
X25400Y63400D01*
X25400Y63300D01*
X25400Y63200D01*
X25400Y63100D01*
X25400Y63000D01*
X25400Y62900D01*
X25400Y62800D01*
X25400Y62700D01*
X25400Y62600D01*
X25400Y62500D01*
X25400Y62400D01*
X25400Y62300D01*
X25400Y62200D01*
X25400Y62100D01*
X25400Y62000D01*
X25400Y61900D01*
X25400Y61800D01*
X25400Y61700D01*
X25400Y61600D01*
X25400Y61500D01*
X25400Y61400D01*
X25400Y61300D01*
X25400Y61200D01*
X25400Y61100D01*
X25400Y61000D01*
X25400Y60900D01*
X25400Y60800D01*
X25400Y60700D01*
X25400Y60600D01*
X25400Y60500D01*
X25400Y60400D01*
X25400Y60300D01*
X25400Y60200D01*
X25400Y60100D01*
X25400Y60000D01*
X25400Y59900D01*
X25400Y59800D01*
X25400Y59700D01*
X25400Y59600D01*
X25400Y59500D01*
X25400Y59400D01*
X25400Y59300D01*
X25400Y59200D01*
X25400Y59100D01*
X25400Y59000D01*
X25400Y58900D01*
X25400Y58800D01*
X25400Y58700D01*
X25400Y58600D01*
X25400Y58500D01*
X25400Y58400D01*
X25400Y58300D01*
X25400Y58200D01*
X25400Y58100D01*
X25400Y58000D01*
X25400Y57900D01*
X25400Y57800D01*
X25400Y57700D01*
X25400Y57600D01*
X25400Y57500D01*
X25400Y57400D01*
X25400Y57300D01*
X25400Y57200D01*
X25400Y57100D01*
X25400Y57000D01*
X25400Y56900D01*
X25400Y56800D01*
X25400Y56700D01*
X25400Y56600D01*
X25400Y56500D01*
X25400Y56400D01*
X25400Y56300D01*
X25400Y56200D01*
X25400Y56100D01*
X25400Y56000D01*
X25400Y55900D01*
X25400Y55800D01*
X25400Y55700D01*
X25400Y55600D01*
X25400Y55500D01*
X25400Y55400D01*
X25400Y55300D01*
X25400Y55200D01*
X25400Y55100D01*
X25400Y55000D01*
X25400Y54900D01*
X25400Y54800D01*
X25400Y54700D01*
X25400Y54600D01*
X25400Y54500D01*
X25400Y54400D01*
X25400Y54300D01*
X25400Y54200D01*
X25400Y54100D01*
X25400Y54000D01*
X25400Y53900D01*
X25400Y53800D01*
X25400Y53700D01*
X25400Y53600D01*
X25400Y53500D01*
X25400Y53400D01*
X25400Y53300D01*
X25400Y53200D01*
X25400Y53100D01*
X25400Y53000D01*
X25400Y52900D01*
X25400Y52800D01*
X25400Y52700D01*
X25400Y52600D01*
X25400Y52500D01*
X25400Y52400D01*
X25400Y52300D01*
X25400Y52200D01*
X25400Y52100D01*
X25400Y52000D01*
X25400Y51900D01*
X25400Y51800D01*
X25400Y51700D01*
X25400Y51600D01*
X25400Y51500D01*
X25400Y51400D01*
X25400Y51300D01*
X25400Y51200D01*
X25400Y51100D01*
X25400Y51000D01*
X25400Y50900D01*
X25400Y50800D01*
X25400Y50700D01*
X25400Y50600D01*
X25400Y50500D01*
X25400Y50400D01*
X25400Y50300D01*
X25400Y50200D01*
X25400Y50100D01*
X25400Y50000D01*
X25400Y49900D01*
X25400Y49800D01*
X25400Y49700D01*
X25400Y49600D01*
X25400Y49500D01*
X25400Y49400D01*
X25400Y49300D01*
X25400Y49200D01*
X25400Y49100D01*
X25400Y49000D01*
X25400Y48900D01*
X25400Y48800D01*
X25400Y48700D01*
X25400Y48600D01*
X25400Y48500D01*
X25400Y48400D01*
X25400Y48300D01*
X25400Y48200D01*
X25400Y48100D01*
X25400Y48000D01*
X25400Y47900D01*
X25400Y47800D01*
X25400Y47700D01*
X25400Y47600D01*
X25400Y47500D01*
X25400Y47400D01*
X25400Y47300D01*
X25400Y47200D01*
X25400Y47100D01*
X25400Y47000D01*
X25400Y46900D01*
X25400Y46800D01*
X25400Y46700D01*
X25400Y46600D01*
X25400Y46500D01*
X25400Y46400D01*
X25400Y46300D01*
X25400Y46200D01*
X25400Y46100D01*
X25400Y46000D01*
X25400Y45900D01*
X25400Y45800D01*
X25400Y45700D01*
X25400Y45600D01*
X25400Y45500D01*
X25400Y45400D01*
X25400Y45300D01*
X25400Y45200D01*
X25400Y45100D01*
X25400Y45000D01*
X25400Y44900D01*
X25400Y44800D01*
X25400Y44700D01*
X25400Y44600D01*
X25400Y44500D01*
X25400Y44400D01*
X25400Y44300D01*
X25400Y44200D01*
X25400Y44100D01*
X25400Y44000D01*
X25400Y43900D01*
X25400Y43800D01*
X25400Y43700D01*
X25400Y43600D01*
X25400Y43500D01*
X25400Y43400D01*
X25400Y43300D01*
X25400Y43200D01*
X25400Y43100D01*
X25400Y43000D01*
X25400Y42900D01*
X25400Y42800D01*
X25400Y42700D01*
X25400Y42600D01*
X25400Y42500D01*
X25400Y42400D01*
X25400Y42300D01*
X25400Y42200D01*
X25400Y42100D01*
X25400Y42000D01*
X25400Y41900D01*
X25400Y41800D01*
X25400Y41700D01*
X25400Y41600D01*
X25400Y41500D01*
X25400Y41400D01*
X25400Y41300D01*
X25400Y41200D01*
X25400Y41100D01*
X25400Y41000D01*
X25400Y40900D01*
X25400Y40800D01*
X25400Y40700D01*
X25400Y40600D01*
X25400Y40500D01*
X25400Y40400D01*
X25400Y40300D01*
X25400Y40200D01*
X25400Y40100D01*
X25400Y40000D01*
X25400Y39900D01*
X25400Y39800D01*
X25400Y39700D01*
X25400Y39600D01*
X25400Y39500D01*
X25400Y39400D01*
X25400Y39300D01*
X25400Y39200D01*
X25400Y39100D01*
X25400Y39000D01*
X25400Y38900D01*
X25400Y38800D01*
X25400Y38700D01*
X25400Y38600D01*
X25400Y38500D01*
X25400Y38400D01*
X25400Y38300D01*
X25400Y38200D01*
X25400Y38100D01*
X25400Y38000D01*
X25400Y37900D01*
X25400Y37800D01*
X25400Y37700D01*
X25400Y37600D01*
X25400Y37500D01*
X25400Y37400D01*
X25400Y37300D01*
X25400Y37200D01*
X25400Y37100D01*
X25400Y37000D01*
X25400Y36900D01*
X25400Y36800D01*
X25400Y36700D01*
X25400Y36600D01*
X25400Y36500D01*
X25400Y36400D01*
X25400Y36300D01*
X25400Y36200D01*
X25400Y36100D01*
X25400Y36000D01*
X25400Y35900D01*
X25400Y35800D01*
X25400Y35700D01*
X25400Y35600D01*
X25400Y35500D01*
X25400Y35400D01*
X25400Y35300D01*
X25400Y35200D01*
X25400Y35100D01*
X25400Y35000D01*
X25400Y34900D01*
X25400Y34800D01*
X25400Y34700D01*
X25400Y34600D01*
X25400Y34500D01*
X25400Y34400D01*
X25400Y34300D01*
X25400Y34200D01*
X25400Y34100D01*
X25400Y34000D01*
X25400Y33900D01*
X25400Y33800D01*
X25400Y33700D01*
X25400Y33600D01*
X25400Y33500D01*
X25400Y33400D01*
X25400Y33300D01*
X25400Y33200D01*
X25400Y33100D01*
X25400Y33000D01*
X25400Y32900D01*
X25400Y32800D01*
X25400Y32700D01*
X25400Y32600D01*
X25400Y32500D01*
X25400Y32400D01*
X25400Y32300D01*
X25400Y32200D01*
X25400Y32100D01*
X25400Y32000D01*
X25400Y31900D01*
X25400Y31800D01*
X25400Y31700D01*
X25400Y31600D01*
X25400Y31500D01*
X25400Y31400D01*
X25400Y31300D01*
X25400Y31200D01*
X25400Y31100D01*
X25400Y31000D01*
X25400Y30900D01*
X25400Y30800D01*
X25400Y30700D01*
X25400Y30600D01*
X25400Y30500D01*
X25400Y30400D01*
X25400Y30300D01*
X25400Y30200D01*
X25400Y30100D01*
X25400Y30000D01*
X25400Y29900D01*
X25400Y29800D01*
X25400Y29700D01*
X25400Y29600D01*
X25400Y29500D01*
X25400Y29400D01*
X25400Y29300D01*
X25400Y29200D01*
X25400Y29100D01*
X25400Y29000D01*
X25400Y28900D01*
X25400Y28800D01*
X25400Y28700D01*
X25400Y28600D01*
X25400Y28500D01*
X25400Y28400D01*
X25400Y28300D01*
X25400Y28200D01*
X25400Y28100D01*
X25400Y28000D01*
X25400Y27900D01*
X25400Y27800D01*
X25400Y27700D01*
X25400Y27600D01*
X25400Y27500D01*
X25400Y27400D01*
X25400Y27300D01*
X25400Y27200D01*
X25400Y27100D01*
X25400Y27000D01*
X25400Y26900D01*
X25400Y26800D01*
X25400Y26700D01*
X25400Y26600D01*
X25400Y26500D01*
X25400Y26400D01*
X25400Y26300D01*
X25400Y26200D01*
X25400Y26100D01*
X25400Y26000D01*
X25400Y25900D01*
X25400Y25800D01*
X25400Y25700D01*
X25400Y25600D01*
X25400Y25500D01*
X25400Y25400D01*
X25400Y25300D01*
X25400Y25200D01*
X25400Y25100D01*
X25400Y25000D01*
X25400Y24900D01*
X25400Y24800D01*
X25400Y24700D01*
X25400Y24600D01*
X25400Y24500D01*
X25400Y24400D01*
X25400Y24300D01*
X25400Y24200D01*
X25400Y24100D01*
X25400Y24000D01*
X25400Y23900D01*
X25400Y23800D01*
X25400Y23700D01*
X25400Y23600D01*
X25400Y23500D01*
X25400Y23400D01*
X25400Y23300D01*
X25400Y23200D01*
X25400Y23100D01*
X25400Y23000D01*
X25400Y22900D01*
X25400Y22800D01*
X25400Y22700D01*
X25400Y22600D01*
X25400Y22500D01*
X25400Y22400D01*
X25400Y22300D01*
X25400Y22200D01*
X25400Y22100D01*
X25400Y22000D01*
X25400Y21900D01*
X25400Y21800D01*
X25400Y21700D01*
X25400Y21600D01*
X25400Y21500D01*
X25400Y21400D01*
X25400Y21300D01*
X25400Y21200D01*
X25400Y21100D01*
X25400Y21000D01*
X25400Y20900D01*
X25400Y20800D01*
X25400Y20700D01*
X25400Y20600D01*
X25400Y20500D01*
X25400Y20400D01*
X25400Y20300D01*
X25400Y20200D01*
X25400Y20100D01*
X25400Y20000D01*
X25400Y19900D01*
X25400Y19800D01*
X25400Y19700D01*
X25400Y19600D01*
X25400Y19500D01*
X25400Y19400D01*
X25400Y19300D01*
X25400Y19200D01*
X25400Y19100D01*
X25400Y19000D01*
X25400Y18900D01*
X25400Y18800D01*
X25400Y18700D01*
X25400Y18600D01*
X25400Y18500D01*
X25400Y18400D01*
X25400Y18300D01*
X25400Y18200D01*
X25400Y18100D01*
X25400Y18000D01*
X25400Y17900D01*
X25400Y17800D01*
X25400Y17700D01*
X25400Y17600D01*
X25400Y17500D01*
X25400Y17400D01*
X25400Y17300D01*
X25400Y17200D01*
X25400Y17100D01*
X25400Y17000D01*
X25400Y16900D01*
X25400Y16800D01*
X25400Y16700D01*
X25400Y16600D01*
X25400Y16500D01*
X25400Y16400D01*
X25400Y16300D01*
X25400Y16200D01*
X25400Y16100D01*
X25400Y16000D01*
X25400Y15900D01*
X25400Y15800D01*
X25400Y15700D01*
X25400Y15600D01*
X25400Y15500D01*
X25400Y15400D01*
X25400Y15300D01*
X25400Y15200D01*
X25400Y15100D01*
X25400Y15000D01*
X25400Y14900D01*
X25400Y14800D01*
X25400Y14700D01*
X25400Y14600D01*
X25400Y14500D01*
X25400Y14400D01*
X25400Y14300D01*
X25400Y14200D01*
X25400Y14100D01*
X25400Y14000D01*
X25400Y13900D01*
X25400Y13800D01*
X25400Y13700D01*
X25400Y13600D01*
X25400Y13500D01*
X25400Y13400D01*
X25400Y13300D01*
X25400Y13200D01*
X25400Y13100D01*
X25400Y13000D01*
X25400Y12900D01*
X25400Y12800D01*
X25400Y12700D01*
X25400Y12600D01*
X25400Y12500D01*
X25400Y12400D01*
X25400Y12300D01*
X25400Y12200D01*
X25400Y12100D01*
X25400Y12000D01*
X25400Y11900D01*
X25400Y11800D01*
X25400Y11700D01*
X25400Y11600D01*
X25400Y11500D01*
X25400Y11400D01*
X25400Y11300D01*
X25400Y11200D01*
X25400Y11100D01*
X25400Y11000D01*
X25400Y10900D01*
X25400Y10800D01*
X25400Y10700D01*
X25400Y10600D01*
X25400Y10500D01*
X25400Y10400D01*
X25400Y10300D01*
X25400Y10200D01*
X25400Y10100D01*
X25400Y10000D01*
X25400Y9900D01*
X25400Y9800D01*
X25400Y9700D01*
X25400Y9600D01*
X25400Y9500D01*
X25400Y9400D01*
X25400Y9300D01*
X25400Y9200D01*
X25400Y9100D01*
X25400Y9000D01*
X25400Y8900D01*
X25400Y8800D01*
X25400Y8700D01*
X25400Y8600D01*
X25400Y8500D01*
X25400Y8400D01*
X25400Y8300D01*
X25400Y8200D01*
X25400Y8100D01*
X25400Y8000D01*
X25400Y7900D01*
X25400Y7800D01*
X25400Y7700D01*
X25400Y7600D01*
X25400Y7500D01*
X25400Y7400D01*
X25400Y7300D01*
X25400Y7200D01*
X25400Y7100D01*
X25400Y7000D01*
X25400Y6900D01*
X25400Y6800D01*
X25400Y6700D01*
X25400Y6600D01*
X25400Y6500D01*
X25400Y6400D01*
X25400Y6300D01*
X25400Y6200D01*
X25400Y6100D01*
X25400Y6000D01*
X25400Y5900D01*
X25400Y5800D01*
X25400Y5700D01*
X25400Y5600D01*
X25400Y5500D01*
X25400Y5400D01*
X25400Y5300D01*
X25400Y5200D01*
X25400Y5100D01*
X25400Y5000D01*
X25400Y4900D01*
X25400Y4800D01*
X25400Y4700D01*
X25400Y4600D01*
X25400Y4500D01*
X25400Y4400D01*
X25400Y4300D01*
X25400Y4200D01*
X25400Y4100D01*
X25400Y4000D01*
X25400Y3900D01*
X25400Y3800D01*
X25400Y3700D01*
X25400Y3600D01*
X25400Y3500D01*
X25400Y3400D01*
X25400Y3300D01*
X25400Y3200D01*
X25400Y3100D01*
X25400Y3000D01*
X25400Y2900D01*
X25400Y2800D01*
X25400Y2700D01*
X25400Y2600D01*
X25400Y2500D01*
X25400Y2400D01*
X25400Y2300D01*
X25400Y2200D01*
X25400Y2100D01*
X25400Y2000D01*
X25400Y1900D01*
X25400Y1800D01*
X25400Y1700D01*
X25400Y1600D01*
X25400Y1500D01*
X25400Y1400D01*
X25400Y1300D01*
X25400Y1200D01*
X25400Y1100D01*
X25400Y1000D01*
X25400Y900D01*
X25400Y800D01*
X25400Y700D01*
X25400Y600D01*
X25400Y500D01*
X25400Y400D01*
X25400Y300D01*
X25400Y200D01*
X25400Y100D01*
X25400Y0D01*
X25300Y0D01*
X25200Y0D01*
X25100Y0D01*
X25000Y0D01*
X24900Y0D01*
X24800Y0D01*
X24700Y0D01*
X24600Y0D01*
X24500Y0D01*
X24400Y0D01*
X24300Y0D01*
X24200Y0D01*
X24100Y0D01*
X24000Y0D01*
X23900Y0D01*
X23800Y0D01*
X23700Y0D01*
X23600Y0D01*
X23500Y0D01*
X23400Y0D01*
X23300Y0D01*
X23200Y0D01*
X23100Y0D01*
X23000Y0D01*
X22900Y0D01*
X22800Y0D01*
X22700Y0D01*
X22600Y0D01*
X22500Y0D01*
X22400Y0D01*
X22300Y0D01*
X22200Y0D01*
X22100Y0D01*
X22000Y0D01*
X21900Y0D01*
X21800Y0D01*
X21700Y0D01*
X21600Y0D01*
X21500Y0D01*
X21400Y0D01*
X21300Y0D01*
X21200Y0D01*
X21100Y0D01*
X21000Y0D01*
X20900Y0D01*
X20800Y0D01*
X20700Y0D01*
X20600Y0D01*
X20500Y0D01*
X20400Y0D01*
X20300Y0D01*
X20200Y0D01*
X20100Y0D01*
X20000Y0D01*
X19900Y0D01*
X19800Y0D01*
X19700Y0D01*
X19600Y0D01*
X19500Y0D01*
X19400Y0D01*
X19300Y0D01*
X19200Y0D01*
X19100Y0D01*
X19000Y0D01*
X18900Y0D01*
X18800Y0D01*
X18700Y0D01*
X18600Y0D01*
X18500Y0D01*
X18400Y0D01*
X18300Y0D01*
X18200Y0D01*
X18100Y0D01*
X18000Y0D01*
X17900Y0D01*
X17800Y0D01*
X17700Y0D01*
X17600Y0D01*
X17500Y0D01*
X17400Y0D01*
X17300Y0D01*
X17200Y0D01*
X17100Y0D01*
X17000Y0D01*
X16900Y0D01*
X16800Y0D01*
X16700Y0D01*
X16600Y0D01*
X16500Y0D01*
X16400Y0D01*
X16300Y0D01*
X16200Y0D01*
X16100Y0D01*
X16000Y0D01*
X15900Y0D01*
X15800Y0D01*
X15700Y0D01*
X15600Y0D01*
X15500Y0D01*
X15400Y0D01*
X15300Y0D01*
X15200Y0D01*
X15100Y0D01*
X15000Y0D01*
X14900Y0D01*
X14800Y0D01*
X14700Y0D01*
X14600Y0D01*
X14500Y0D01*
X14400Y0D01*
X14300Y0D01*
X14200Y0D01*
X14100Y0D01*
X14000Y0D01*
X13900Y0D01*
X13800Y0D01*
X13700Y0D01*
X13600Y0D01*
X13500Y0D01*
X13400Y0D01*
X13300Y0D01*
X13200Y0D01*
X13100Y0D01*
X13000Y0D01*
X12900Y0D01*
X12800Y0D01*
X12700Y0D01*
X12600Y0D01*
X12500Y0D01*
X12400Y0D01*
X12300Y0D01*
X12200Y0D01*
X12100Y0D01*
X12000Y0D01*
X11900Y0D01*
X11800Y0D01*
X11700Y0D01*
X11600Y0D01*
X11500Y0D01*
X11400Y0D01*
X11300Y0D01*
X11200Y0D01*
X11100Y0D01*
X11000Y0D01*
X10900Y0D01*
X10800Y0D01*
X10700Y0D01*
X10600Y0D01*
X10500Y0D01*
X10400Y0D01*
X10300Y0D01*
X10200Y0D01*
X10100Y0D01*
X10000Y0D01*
X9900Y0D01*
X9800Y0D01*
X9700Y0D01*
X9600Y0D01*
X9500Y0D01*
X9400Y0D01*
X9300Y0D01*
X9200Y0D01*
X9100Y0D01*
X9000Y0D01*
X8900Y0D01*
X8800Y0D01*
X8700Y0D01*
X8600Y0D01*
X8500Y0D01*
X8400Y0D01*
X8300Y0D01*
X8200Y0D01*
X8100Y0D01*
X8000Y0D01*
X7900Y0D01*
X7800Y0D01*
X7700Y0D01*
X7600Y0D01*
X7500Y0D01*
X7400Y0D01*
X7300Y0D01*
X7200Y0D01*
X7100Y0D01*
X7000Y0D01*
X6900Y0D01*
X6800Y0D01*
X6700Y0D01*
X6600Y0D01*
X6500Y0D01*
X6400Y0D01*
X6300Y0D01*
X6200Y0D01*
X6100Y0D01*
X6000Y0D01*
X5900Y0D01*
X5800Y0D01*
X5700Y0D01*
X5600Y0D01*
X5500Y0D01*
X5400Y0D01*
X5300Y0D01*
X5200Y0D01*
X5100Y0D01*
X5000Y0D01*
X4900Y0D01*
X4800Y0D01*
X4700Y0D01*
X4600Y0D01*
X4500Y0D01*
X4400Y0D01*
X4300Y0D01*
X4200Y0D01*
X4100Y0D01*
X4000Y0D01*
X3900Y0D01*
X3800Y0D01*
X3700Y0D01*
X3600Y0D01*
X3500Y0D01*
X3400Y0D01*
X3300Y0D01*
X3200Y0D01*
X3100Y0D01*
X3000Y0D01*
X2900Y0D01*
X2800Y0D01*
X2700Y0D01*
X2600Y0D01*
X2500Y0D01*
X2400Y0D01*
X2300Y0D01*
X2200Y0D01*
X2100Y0D01*
X2000Y0D01*
X1900Y0D01*
X1800Y0D01*
X1700Y0D01*
X1600Y0D01*
X1500Y0D01*
X1400Y0D01*
X1300Y0D01*
X1200Y0D01*
X1100Y0D01*
X1000Y0D01*
X900Y0D01*
X800Y0D01*
X700Y0D01*
X600Y0D01*
X500Y0D01*
X400Y0D01*
X300Y0D01*
X200Y0D01*
X100Y0D01*
X0Y0D01*
X0Y0D01*
D11*
X11444Y91901D02*
X11444Y92568D01*
X11388Y92568D01*
X11305Y92457D01*
D11*
X11305Y91901D02*
X11555Y91901D01*
D10*
X22875Y98984D02*
X22875Y85484D01*
X2375Y85484D01*
X2375Y98984D01*
X22875Y98984D01*
D10*
X5741Y98082D02*
X5642Y98081D01*
X5543Y98076D01*
X5444Y98067D01*
X5345Y98055D01*
X5247Y98039D01*
X5149Y98020D01*
X5053Y97998D01*
X4957Y97972D01*
X4862Y97942D01*
X4769Y97909D01*
X4676Y97872D01*
X4585Y97832D01*
X4496Y97789D01*
X4408Y97742D01*
X4322Y97693D01*
X4238Y97640D01*
X4156Y97584D01*
X4076Y97525D01*
X3998Y97463D01*
X3923Y97399D01*
X3850Y97331D01*
X3779Y97261D01*
X3711Y97189D01*
X3646Y97114D01*
X3583Y97037D01*
X3523Y96958D01*
X3466Y96877D01*
X3412Y96794D01*
X3361Y96709D01*
X3313Y96622D01*
X3267Y96533D01*
X3226Y96443D01*
X3187Y96352D01*
X3152Y96259D01*
X3120Y96165D01*
X3091Y96070D01*
X3066Y95974D01*
X3044Y95877D01*
X3026Y95779D01*
X3011Y95681D01*
X3000Y95582D01*
X2992Y95483D01*
X2988Y95384D01*
X2988Y95285D01*
X2992Y95185D01*
X2999Y95086D01*
X3010Y94988D01*
X3024Y94889D01*
X3042Y94792D01*
X3064Y94695D01*
X3089Y94599D01*
X3118Y94504D01*
X3150Y94410D01*
X3185Y94317D01*
X3224Y94226D01*
X3266Y94136D01*
X3311Y94047D01*
X3360Y93960D01*
X3411Y93875D01*
X3465Y93792D01*
X3522Y93711D01*
X3582Y93631D01*
X3645Y93555D01*
X3711Y93480D01*
X3779Y93408D01*
X3850Y93338D01*
X3923Y93271D01*
X3999Y93207D01*
X4077Y93145D01*
X4157Y93087D01*
X4239Y93031D01*
X4323Y92978D01*
X4409Y92929D01*
X4497Y92882D01*
X4586Y92839D01*
X4677Y92799D01*
X4769Y92762D01*
X4863Y92728D01*
X4957Y92698D01*
X5053Y92672D01*
X5150Y92649D01*
X5247Y92629D01*
X5345Y92613D01*
X5444Y92600D01*
X5543Y92592D01*
X5642Y92586D01*
X5741Y92584D01*
X5840Y92586D01*
X5939Y92591D01*
X6038Y92600D01*
X6137Y92612D01*
X6235Y92627D01*
X6333Y92646D01*
X6429Y92669D01*
X6525Y92695D01*
X6620Y92725D01*
X6713Y92758D01*
X6806Y92795D01*
X6897Y92834D01*
X6986Y92878D01*
X7074Y92924D01*
X7160Y92974D01*
X7244Y93027D01*
X7326Y93083D01*
X7406Y93142D01*
X7484Y93204D01*
X7559Y93268D01*
X7632Y93336D01*
X7703Y93405D01*
X7771Y93478D01*
X7836Y93552D01*
X7899Y93629D01*
X7959Y93709D01*
X8016Y93790D01*
X8070Y93873D01*
X8121Y93958D01*
X8169Y94045D01*
X8215Y94134D01*
X8256Y94224D01*
X8295Y94315D01*
X8330Y94408D01*
X8362Y94502D01*
X8391Y94597D01*
X8416Y94693D01*
X8438Y94790D01*
X8456Y94888D01*
X8471Y94986D01*
X8482Y95085D01*
X8490Y95184D01*
X8494Y95283D01*
X8494Y95382D01*
X8490Y95481D01*
X8483Y95580D01*
X8472Y95679D01*
X8458Y95777D01*
X8440Y95875D01*
X8418Y95972D01*
X8393Y96068D01*
X8364Y96163D01*
X8332Y96257D01*
X8297Y96350D01*
X8258Y96441D01*
X8216Y96531D01*
X8171Y96620D01*
X8122Y96707D01*
X8071Y96792D01*
X8017Y96875D01*
X7960Y96956D01*
X7900Y97035D01*
X7837Y97112D01*
X7771Y97187D01*
X7703Y97259D01*
X7632Y97328D01*
X7559Y97395D01*
X7483Y97460D01*
X7405Y97521D01*
X7325Y97580D01*
X7243Y97636D01*
X7159Y97688D01*
X7073Y97738D01*
X6985Y97785D01*
X6896Y97828D01*
X6805Y97868D01*
X6713Y97905D01*
X6619Y97938D01*
X6525Y97968D01*
X6429Y97995D01*
X6332Y98018D01*
X6235Y98038D01*
X6137Y98054D01*
X6038Y98066D01*
X5939Y98075D01*
X5840Y98081D01*
X5741Y98082D01*
X5741Y98082D01*
D10*
X19050Y98083D02*
X18951Y98082D01*
X18851Y98077D01*
X18752Y98068D01*
X18654Y98056D01*
X18556Y98040D01*
X18458Y98021D01*
X18361Y97999D01*
X18266Y97973D01*
X18171Y97943D01*
X18077Y97910D01*
X17985Y97873D01*
X17894Y97833D01*
X17804Y97790D01*
X17717Y97743D01*
X17631Y97693D01*
X17547Y97641D01*
X17465Y97585D01*
X17385Y97526D01*
X17307Y97464D01*
X17231Y97399D01*
X17158Y97332D01*
X17088Y97262D01*
X17019Y97190D01*
X16954Y97115D01*
X16891Y97038D01*
X16831Y96959D01*
X16774Y96877D01*
X16720Y96794D01*
X16669Y96709D01*
X16621Y96622D01*
X16576Y96534D01*
X16534Y96444D01*
X16495Y96352D01*
X16460Y96259D01*
X16428Y96165D01*
X16399Y96070D01*
X16374Y95974D01*
X16352Y95877D01*
X16334Y95779D01*
X16319Y95681D01*
X16308Y95582D01*
X16300Y95483D01*
X16296Y95384D01*
X16296Y95285D01*
X16300Y95185D01*
X16307Y95086D01*
X16318Y94987D01*
X16332Y94889D01*
X16350Y94792D01*
X16372Y94695D01*
X16397Y94598D01*
X16426Y94503D01*
X16458Y94409D01*
X16494Y94317D01*
X16532Y94225D01*
X16574Y94135D01*
X16620Y94047D01*
X16668Y93960D01*
X16719Y93875D01*
X16773Y93791D01*
X16830Y93710D01*
X16890Y93631D01*
X16953Y93554D01*
X17019Y93479D01*
X17087Y93407D01*
X17158Y93338D01*
X17231Y93271D01*
X17307Y93206D01*
X17385Y93145D01*
X17465Y93086D01*
X17547Y93030D01*
X17632Y92977D01*
X17718Y92928D01*
X17805Y92881D01*
X17895Y92838D01*
X17986Y92798D01*
X18078Y92761D01*
X18171Y92727D01*
X18266Y92697D01*
X18362Y92671D01*
X18459Y92648D01*
X18556Y92628D01*
X18654Y92612D01*
X18753Y92599D01*
X18851Y92591D01*
X18951Y92585D01*
X19050Y92583D01*
X19149Y92585D01*
X19249Y92590D01*
X19348Y92599D01*
X19446Y92611D01*
X19544Y92626D01*
X19642Y92645D01*
X19739Y92668D01*
X19834Y92694D01*
X19929Y92724D01*
X20023Y92757D01*
X20115Y92794D01*
X20206Y92834D01*
X20296Y92877D01*
X20383Y92923D01*
X20469Y92973D01*
X20553Y93026D01*
X20635Y93082D01*
X20715Y93141D01*
X20793Y93203D01*
X20869Y93268D01*
X20942Y93335D01*
X21012Y93405D01*
X21081Y93477D01*
X21146Y93552D01*
X21209Y93629D01*
X21269Y93708D01*
X21326Y93789D01*
X21380Y93873D01*
X21431Y93958D01*
X21479Y94045D01*
X21524Y94133D01*
X21566Y94223D01*
X21605Y94315D01*
X21640Y94408D01*
X21672Y94502D01*
X21701Y94597D01*
X21726Y94693D01*
X21748Y94790D01*
X21766Y94887D01*
X21781Y94986D01*
X21792Y95084D01*
X21800Y95183D01*
X21804Y95283D01*
X21804Y95382D01*
X21800Y95481D01*
X21793Y95581D01*
X21782Y95679D01*
X21768Y95778D01*
X21750Y95875D01*
X21728Y95972D01*
X21703Y96068D01*
X21674Y96163D01*
X21642Y96257D01*
X21606Y96350D01*
X21568Y96442D01*
X21526Y96532D01*
X21480Y96620D01*
X21432Y96707D01*
X21381Y96792D01*
X21327Y96875D01*
X21270Y96957D01*
X21210Y97036D01*
X21147Y97113D01*
X21081Y97187D01*
X21013Y97260D01*
X20942Y97329D01*
X20869Y97396D01*
X20793Y97461D01*
X20715Y97522D01*
X20635Y97581D01*
X20553Y97637D01*
X20468Y97689D01*
X20382Y97739D01*
X20295Y97786D01*
X20205Y97829D01*
X20114Y97869D01*
X20022Y97906D01*
X19929Y97939D01*
X19834Y97969D01*
X19738Y97996D01*
X19641Y98019D01*
X19544Y98039D01*
X19446Y98055D01*
X19347Y98067D01*
X19249Y98076D01*
X19149Y98082D01*
X19050Y98083D01*
X19050Y98083D01*
D10*
X21540Y89206D02*
X21540Y89031D01*
X21390Y89031D01*
X21290Y89131D01*
X21290Y89381D01*
X21390Y89481D01*
X21790Y89481D01*
X21890Y89381D01*
X21890Y89131D01*
X21790Y89031D01*
X21740Y89031D01*
D10*
X21290Y88831D02*
X21890Y88831D01*
D10*
X21840Y88831D02*
X21465Y88431D01*
D10*
X21290Y88431D02*
X21890Y88431D01*
D10*
X21290Y88231D02*
X21890Y88231D01*
X21890Y87881D01*
X21790Y87781D01*
X21390Y87781D01*
X21290Y87881D01*
X21290Y88231D01*
D10*
X18750Y89506D02*
X19350Y89506D01*
D10*
X18750Y89581D02*
X18750Y89431D01*
D10*
X19350Y89581D02*
X19350Y89431D01*
D10*
X18750Y89231D02*
X19350Y89231D01*
D10*
X19300Y89231D02*
X18925Y88831D01*
D10*
X18750Y88831D02*
X19350Y88831D01*
D10*
X18750Y88431D02*
X19350Y88431D01*
D10*
X19350Y88631D02*
X19350Y88231D01*
D10*
X19250Y88031D02*
X19275Y88031D01*
X19350Y87956D01*
X19350Y87756D01*
X19275Y87681D01*
X19100Y87681D01*
X18750Y88031D01*
X18750Y87681D01*
D10*
X16210Y89444D02*
X16810Y89444D01*
D10*
X16210Y89519D02*
X16210Y89369D01*
D10*
X16810Y89519D02*
X16810Y89369D01*
D10*
X16210Y89169D02*
X16810Y89169D01*
D10*
X16760Y89169D02*
X16385Y88769D01*
D10*
X16210Y88769D02*
X16810Y88769D01*
D10*
X16210Y88369D02*
X16810Y88369D01*
D10*
X16810Y88569D02*
X16810Y88169D01*
D10*
X16210Y87844D02*
X16810Y87844D01*
X16810Y87894D01*
X16710Y87969D01*
D10*
X16210Y87969D02*
X16210Y87744D01*
D10*
X13770Y89506D02*
X13670Y89406D01*
X13670Y89156D01*
X13770Y89056D01*
X13870Y89056D01*
X13970Y89156D01*
X13970Y89406D01*
X14070Y89506D01*
X14170Y89506D01*
X14270Y89406D01*
X14270Y89156D01*
X14170Y89056D01*
D10*
X13670Y88856D02*
X14270Y88856D01*
X14270Y88506D01*
X14170Y88406D01*
X13770Y88406D01*
X13670Y88506D01*
X13670Y88856D01*
D10*
X13670Y88206D02*
X13970Y88206D01*
X14270Y88006D01*
X14270Y87956D01*
X13970Y87756D01*
X13670Y87756D01*
D10*
X13820Y88206D02*
X13820Y87756D01*
D10*
X11230Y89456D02*
X11130Y89356D01*
X11130Y89106D01*
X11230Y89006D01*
X11330Y89006D01*
X11430Y89106D01*
X11430Y89356D01*
X11530Y89456D01*
X11630Y89456D01*
X11730Y89356D01*
X11730Y89106D01*
X11630Y89006D01*
D10*
X11280Y88356D02*
X11230Y88356D01*
X11130Y88456D01*
X11130Y88706D01*
X11230Y88806D01*
X11630Y88806D01*
X11730Y88706D01*
X11730Y88456D01*
X11630Y88356D01*
X11580Y88356D01*
D10*
X11130Y87806D02*
X11130Y88156D01*
X11730Y88156D01*
D10*
X8690Y89456D02*
X8590Y89356D01*
X8590Y89106D01*
X8690Y89006D01*
X8790Y89006D01*
X8890Y89106D01*
X8890Y89356D01*
X8990Y89456D01*
X9090Y89456D01*
X9190Y89356D01*
X9190Y89106D01*
X9090Y89006D01*
D10*
X8590Y88806D02*
X8890Y88806D01*
X9190Y88606D01*
X9190Y88556D01*
X8890Y88356D01*
X8590Y88356D01*
D10*
X8740Y88806D02*
X8740Y88356D01*
D10*
X8590Y88081D02*
X8665Y88156D01*
X9115Y88156D01*
X9190Y88081D01*
X9190Y87881D01*
X9115Y87806D01*
X8665Y87806D01*
X8590Y87881D01*
X8590Y88081D01*
D10*
X8740Y88156D02*
X9040Y87806D01*
D10*
X6200Y88731D02*
X6150Y88731D01*
X6050Y88831D01*
X6050Y89081D01*
X6150Y89181D01*
X6550Y89181D01*
X6650Y89081D01*
X6650Y88831D01*
X6550Y88731D01*
X6500Y88731D01*
D10*
X6150Y88531D02*
X6050Y88431D01*
X6050Y88181D01*
X6150Y88081D01*
X6250Y88081D01*
X6350Y88181D01*
X6350Y88431D01*
X6450Y88531D01*
X6550Y88531D01*
X6650Y88431D01*
X6650Y88181D01*
X6550Y88081D01*
D10*
X4110Y89481D02*
X3760Y89481D01*
X3510Y89281D01*
X3760Y89081D01*
X4110Y89081D01*
D10*
X3660Y88431D02*
X3610Y88431D01*
X3510Y88531D01*
X3510Y88781D01*
X3610Y88881D01*
X4010Y88881D01*
X4110Y88781D01*
X4110Y88531D01*
X4010Y88431D01*
X3960Y88431D01*
D10*
X3660Y87781D02*
X3610Y87781D01*
X3510Y87881D01*
X3510Y88131D01*
X3610Y88231D01*
X4010Y88231D01*
X4110Y88131D01*
X4110Y87881D01*
X4010Y87781D01*
X3960Y87781D01*
D11*
X12506Y20120D02*
X12506Y20148D01*
X12589Y20231D01*
X12811Y20231D01*
X12894Y20148D01*
X12894Y19953D01*
X12506Y19564D01*
X12894Y19564D01*
D10*
X3450Y30398D02*
X21950Y30398D01*
X21950Y9398D01*
X3450Y9398D01*
X3450Y30398D01*
D10*
X14490Y11506D02*
X14490Y12106D01*
X14790Y12106D01*
X14890Y12006D01*
X14890Y11906D01*
X14790Y11806D01*
X14490Y11806D01*
D10*
X15090Y12006D02*
X15090Y12031D01*
X15165Y12106D01*
X15365Y12106D01*
X15440Y12031D01*
X15440Y11856D01*
X15090Y11506D01*
X15440Y11506D01*
D10*
X15915Y11806D02*
X15990Y11731D01*
X15990Y11581D01*
X15915Y11506D01*
X15715Y11506D01*
X15640Y11581D01*
X15640Y11731D01*
X15715Y11806D01*
X15915Y11806D01*
X15990Y11881D01*
X15990Y12031D01*
X15915Y12106D01*
X15715Y12106D01*
X15640Y12031D01*
X15640Y11881D01*
X15715Y11806D01*
D10*
X16838Y11506D02*
X16838Y12106D01*
X17138Y12106D01*
X17238Y12006D01*
X17238Y11906D01*
X17138Y11806D01*
X16838Y11806D01*
D10*
X17438Y12006D02*
X17438Y12031D01*
X17513Y12106D01*
X17713Y12106D01*
X17788Y12031D01*
X17788Y11856D01*
X17438Y11506D01*
X17788Y11506D01*
D10*
X18338Y11806D02*
X18063Y11806D01*
X17988Y11881D01*
X17988Y12031D01*
X18063Y12106D01*
X18263Y12106D01*
X18338Y12031D01*
X18338Y11581D01*
X18263Y11506D01*
X18063Y11506D01*
D10*
X12013Y11359D02*
X12013Y11959D01*
X12313Y11959D01*
X12413Y11859D01*
X12413Y11759D01*
X12313Y11659D01*
X12013Y11659D01*
D10*
X12738Y11359D02*
X12738Y11959D01*
X12688Y11959D01*
X12613Y11859D01*
D10*
X12613Y11359D02*
X12838Y11359D01*
D10*
X13038Y11459D02*
X13038Y11434D01*
X13113Y11359D01*
X13313Y11359D01*
X13388Y11434D01*
X13388Y11609D01*
X13313Y11684D01*
X13038Y11684D01*
X13038Y11959D01*
X13338Y11959D01*
D10*
X9360Y11359D02*
X9360Y11959D01*
X9660Y11959D01*
X9760Y11859D01*
X9760Y11759D01*
X9660Y11659D01*
X9360Y11659D01*
D10*
X10060Y11359D02*
X9960Y11459D01*
X9960Y11859D01*
X10060Y11959D01*
X10310Y11959D01*
X10410Y11859D01*
X10410Y11459D01*
X10310Y11359D01*
X10060Y11359D01*
D10*
X10960Y11859D02*
X10960Y11884D01*
X10885Y11959D01*
X10685Y11959D01*
X10610Y11884D01*
X10610Y11434D01*
X10685Y11359D01*
X10885Y11359D01*
X10960Y11434D01*
X10960Y11584D01*
X10885Y11659D01*
X10610Y11659D01*
D10*
X7047Y11359D02*
X7047Y11959D01*
X7347Y11959D01*
X7447Y11859D01*
X7447Y11759D01*
X7347Y11659D01*
X7047Y11659D01*
D10*
X7747Y11359D02*
X7647Y11459D01*
X7647Y11859D01*
X7747Y11959D01*
X7997Y11959D01*
X8097Y11859D01*
X8097Y11459D01*
X7997Y11359D01*
X7747Y11359D01*
D10*
X8447Y11359D02*
X8447Y11559D01*
X8647Y11859D01*
X8647Y11959D01*
X8297Y11959D01*
D10*
X18194Y13646D02*
X18194Y13296D01*
X18394Y13046D01*
X18594Y13296D01*
X18594Y13646D01*
D10*
X18869Y13046D02*
X18869Y13646D01*
D10*
X18794Y13046D02*
X18944Y13046D01*
D10*
X18794Y13646D02*
X18944Y13646D01*
D10*
X19144Y13046D02*
X19144Y13646D01*
D10*
X19144Y13596D02*
X19544Y13221D01*
D10*
X19544Y13046D02*
X19544Y13646D01*
D10*
X17456Y14768D02*
X17631Y14768D01*
X17631Y14618D01*
X17531Y14518D01*
X17281Y14518D01*
X17181Y14618D01*
X17181Y15018D01*
X17281Y15118D01*
X17531Y15118D01*
X17631Y15018D01*
X17631Y14968D01*
D10*
X17831Y14518D02*
X17831Y15118D01*
D10*
X17831Y15068D02*
X18231Y14693D01*
D10*
X18231Y14518D02*
X18231Y15118D01*
D10*
X18431Y14518D02*
X18431Y15118D01*
X18781Y15118D01*
X18881Y15018D01*
X18881Y14618D01*
X18781Y14518D01*
X18431Y14518D01*
D10*
X17231Y17058D02*
X17231Y17658D01*
X17531Y17658D01*
X17631Y17558D01*
X17631Y17458D01*
X17531Y17358D01*
X17231Y17358D01*
D10*
X17931Y17058D02*
X17831Y17158D01*
X17831Y17558D01*
X17931Y17658D01*
X18181Y17658D01*
X18281Y17558D01*
X18281Y17158D01*
X18181Y17058D01*
X17931Y17058D01*
D10*
X18481Y17158D02*
X18481Y17133D01*
X18556Y17058D01*
X18756Y17058D01*
X18831Y17133D01*
X18831Y17308D01*
X18756Y17383D01*
X18481Y17383D01*
X18481Y17658D01*
X18781Y17658D01*
D10*
X17281Y19598D02*
X17281Y20198D01*
X17581Y20198D01*
X17681Y20098D01*
X17681Y19998D01*
X17581Y19898D01*
X17281Y19898D01*
D10*
X17956Y19598D02*
X17881Y19673D01*
X17881Y20123D01*
X17956Y20198D01*
X18156Y20198D01*
X18231Y20123D01*
X18231Y19673D01*
X18156Y19598D01*
X17956Y19598D01*
D10*
X17881Y19748D02*
X18231Y20048D01*
D10*
X18731Y19598D02*
X18731Y20198D01*
X18681Y20198D01*
X18431Y19823D01*
X18431Y19723D01*
X18781Y19723D01*
D10*
X17306Y22138D02*
X17306Y22738D01*
X17656Y22738D01*
X17756Y22638D01*
X17756Y22238D01*
X17656Y22138D01*
X17306Y22138D01*
D10*
X18031Y22138D02*
X18031Y22738D01*
D10*
X17956Y22138D02*
X18106Y22138D01*
D10*
X17956Y22738D02*
X18106Y22738D01*
D10*
X18406Y22138D02*
X18306Y22238D01*
X18306Y22638D01*
X18406Y22738D01*
X18656Y22738D01*
X18756Y22638D01*
X18756Y22238D01*
X18656Y22138D01*
X18406Y22138D01*
D10*
X16655Y24678D02*
X16655Y25278D01*
X17005Y25278D01*
X17105Y25178D01*
X17105Y24778D01*
X17005Y24678D01*
X16655Y24678D01*
D10*
X17755Y24828D02*
X17755Y24778D01*
X17655Y24678D01*
X17405Y24678D01*
X17305Y24778D01*
X17305Y25178D01*
X17405Y25278D01*
X17655Y25278D01*
X17755Y25178D01*
X17755Y25128D01*
D10*
X18305Y24678D02*
X17955Y24678D01*
X17955Y25278D01*
D10*
X18505Y24678D02*
X18505Y25278D01*
D10*
X18505Y24878D02*
X18905Y25253D01*
X18905Y25278D01*
D10*
X18905Y24678D02*
X18905Y24703D01*
X18655Y25003D01*
D10*
X6183Y13296D02*
X6358Y13296D01*
X6358Y13146D01*
X6258Y13046D01*
X6008Y13046D01*
X5908Y13146D01*
X5908Y13546D01*
X6008Y13646D01*
X6258Y13646D01*
X6358Y13546D01*
X6358Y13496D01*
D10*
X6558Y13046D02*
X6558Y13646D01*
D10*
X6558Y13596D02*
X6958Y13221D01*
D10*
X6958Y13046D02*
X6958Y13646D01*
D10*
X7158Y13046D02*
X7158Y13646D01*
X7508Y13646D01*
X7608Y13546D01*
X7608Y13146D01*
X7508Y13046D01*
X7158Y13046D01*
D10*
X6338Y14866D02*
X6438Y14766D01*
X6688Y14766D01*
X6788Y14866D01*
X6788Y14966D01*
X6688Y15066D01*
X6438Y15066D01*
X6338Y15166D01*
X6338Y15266D01*
X6438Y15366D01*
X6688Y15366D01*
X6788Y15266D01*
D10*
X7438Y14916D02*
X7438Y14866D01*
X7338Y14766D01*
X7088Y14766D01*
X6988Y14866D01*
X6988Y15266D01*
X7088Y15366D01*
X7338Y15366D01*
X7438Y15266D01*
X7438Y15216D01*
D10*
X7988Y14766D02*
X7638Y14766D01*
X7638Y15366D01*
D10*
X8838Y14766D02*
X8838Y15366D01*
X9138Y15366D01*
X9238Y15266D01*
X9238Y15166D01*
X9138Y15066D01*
X8838Y15066D01*
D10*
X9138Y15066D02*
X9238Y14966D01*
X9238Y14766D01*
D10*
X9638Y14766D02*
X9638Y15366D01*
D10*
X9438Y15366D02*
X9838Y15366D01*
D10*
X10038Y14866D02*
X10138Y14766D01*
X10388Y14766D01*
X10488Y14866D01*
X10488Y14966D01*
X10388Y15066D01*
X10138Y15066D01*
X10038Y15166D01*
X10038Y15266D01*
X10138Y15366D01*
X10388Y15366D01*
X10488Y15266D01*
D10*
X6334Y19598D02*
X6334Y20198D01*
D10*
X6134Y20198D02*
X6534Y20198D01*
D10*
X6734Y19598D02*
X6734Y19623D01*
X7184Y20173D01*
X7184Y20198D01*
D10*
X6734Y20198D02*
X6734Y20173D01*
X7184Y19623D01*
X7184Y19598D01*
D10*
X7384Y19598D02*
X7384Y20198D01*
X7734Y20198D01*
X7834Y20098D01*
X7834Y19698D01*
X7734Y19598D01*
X7384Y19598D01*
D10*
X8684Y19598D02*
X8684Y20198D01*
X9034Y20198D01*
X9134Y20098D01*
X9134Y19698D01*
X9034Y19598D01*
X8684Y19598D01*
D10*
X9459Y19598D02*
X9459Y20198D01*
X9409Y20198D01*
X9334Y20098D01*
D10*
X9334Y19598D02*
X9559Y19598D01*
D10*
X6243Y17058D02*
X6243Y17658D01*
X6543Y17658D01*
X6643Y17558D01*
X6643Y17458D01*
X6543Y17358D01*
X6243Y17358D01*
D10*
X6543Y17358D02*
X6643Y17258D01*
X6643Y17058D01*
D10*
X6843Y17058D02*
X6843Y17083D01*
X7293Y17633D01*
X7293Y17658D01*
D10*
X6843Y17658D02*
X6843Y17633D01*
X7293Y17083D01*
X7293Y17058D01*
D10*
X7493Y17058D02*
X7493Y17658D01*
X7843Y17658D01*
X7943Y17558D01*
X7943Y17158D01*
X7843Y17058D01*
X7493Y17058D01*
D10*
X8793Y17058D02*
X8793Y17658D01*
X9143Y17658D01*
X9243Y17558D01*
X9243Y17158D01*
X9143Y17058D01*
X8793Y17058D01*
D10*
X9518Y17058D02*
X9443Y17133D01*
X9443Y17583D01*
X9518Y17658D01*
X9718Y17658D01*
X9793Y17583D01*
X9793Y17133D01*
X9718Y17058D01*
X9518Y17058D01*
D10*
X9443Y17208D02*
X9793Y17508D01*
D10*
X6263Y22238D02*
X6363Y22138D01*
X6613Y22138D01*
X6713Y22238D01*
X6713Y22338D01*
X6613Y22438D01*
X6363Y22438D01*
X6263Y22538D01*
X6263Y22638D01*
X6363Y22738D01*
X6613Y22738D01*
X6713Y22638D01*
D10*
X6913Y22138D02*
X6913Y22738D01*
X7263Y22738D01*
X7363Y22638D01*
X7363Y22238D01*
X7263Y22138D01*
X6913Y22138D01*
D10*
X7563Y22138D02*
X7563Y22438D01*
X7763Y22738D01*
X7813Y22738D01*
X8013Y22438D01*
X8013Y22138D01*
D10*
X7563Y22288D02*
X8013Y22288D01*
D10*
X9313Y22288D02*
X9313Y22238D01*
X9213Y22138D01*
X8963Y22138D01*
X8863Y22238D01*
X8863Y22638D01*
X8963Y22738D01*
X9213Y22738D01*
X9313Y22638D01*
X9313Y22588D01*
D10*
X9713Y22138D02*
X9713Y22738D01*
D10*
X9513Y22738D02*
X9913Y22738D01*
D10*
X10113Y22238D02*
X10213Y22138D01*
X10463Y22138D01*
X10563Y22238D01*
X10563Y22338D01*
X10463Y22438D01*
X10213Y22438D01*
X10113Y22538D01*
X10113Y22638D01*
X10213Y22738D01*
X10463Y22738D01*
X10563Y22638D01*
D10*
X6297Y25278D02*
X6297Y24928D01*
X6497Y24678D01*
X6697Y24928D01*
X6697Y25278D01*
D10*
X6897Y24678D02*
X6897Y25278D01*
X7247Y25278D01*
X7347Y25178D01*
X7347Y24778D01*
X7247Y24678D01*
X6897Y24678D01*
D10*
X7547Y24678D02*
X7547Y25278D01*
X7897Y25278D01*
X7997Y25178D01*
X7997Y24778D01*
X7897Y24678D01*
X7547Y24678D01*
D11*
X12506Y71823D02*
X12506Y71851D01*
X12589Y71934D01*
X12811Y71934D01*
X12894Y71851D01*
X12894Y71740D01*
X12756Y71601D01*
X12894Y71462D01*
X12894Y71351D01*
X12811Y71268D01*
X12589Y71268D01*
X12506Y71351D01*
X12506Y71379D01*
D11*
X12672Y71601D02*
X12756Y71601D01*
D10*
X3850Y81351D02*
X21550Y81351D01*
X21550Y61851D01*
X3850Y61851D01*
X3850Y81351D01*
D10*
X5867Y73841D02*
X5867Y74441D01*
X6217Y74441D01*
X6317Y74341D01*
X6317Y74241D01*
X6217Y74141D01*
X5867Y74141D01*
D10*
X6217Y74141D02*
X6317Y74041D01*
X6317Y73941D01*
X6217Y73841D01*
X5867Y73841D01*
D10*
X6517Y73841D02*
X6517Y74441D01*
D10*
X6517Y74416D02*
X6792Y74216D01*
X7067Y74416D01*
D10*
X7067Y74441D02*
X7067Y73841D01*
D10*
X7267Y73841D02*
X7267Y74441D01*
X7567Y74441D01*
X7667Y74341D01*
X7667Y74241D01*
X7567Y74141D01*
X7267Y74141D01*
D10*
X8642Y73841D02*
X8642Y74441D01*
X8592Y74441D01*
X8517Y74341D01*
D10*
X8517Y73841D02*
X8742Y73841D01*
D10*
X9217Y74141D02*
X9292Y74066D01*
X9292Y73916D01*
X9217Y73841D01*
X9017Y73841D01*
X8942Y73916D01*
X8942Y74066D01*
X9017Y74141D01*
X9217Y74141D01*
X9292Y74216D01*
X9292Y74366D01*
X9217Y74441D01*
X9017Y74441D01*
X8942Y74366D01*
X8942Y74216D01*
X9017Y74141D01*
D10*
X9567Y73841D02*
X9492Y73916D01*
X9492Y74366D01*
X9567Y74441D01*
X9767Y74441D01*
X9842Y74366D01*
X9842Y73916D01*
X9767Y73841D01*
X9567Y73841D01*
D10*
X9492Y73991D02*
X9842Y74291D01*
D10*
X10692Y73841D02*
X10692Y74441D01*
X10992Y74441D01*
X11092Y74341D01*
X11092Y74241D01*
X10992Y74141D01*
X10692Y74141D01*
D10*
X11292Y73841D02*
X11292Y74291D01*
D10*
X11292Y74091D02*
X11467Y74291D01*
X11667Y74291D01*
X11742Y74216D01*
X11742Y74191D01*
D10*
X12342Y73841D02*
X12067Y73841D01*
X11942Y73966D01*
X11942Y74166D01*
X12067Y74291D01*
X12267Y74291D01*
X12392Y74166D01*
X12392Y74066D01*
X11942Y74066D01*
D10*
X12592Y73941D02*
X12592Y73916D01*
X12667Y73841D01*
X12967Y73841D01*
X13042Y73916D01*
X13042Y73991D01*
X12967Y74066D01*
X12667Y74066D01*
X12592Y74141D01*
X12592Y74216D01*
X12667Y74291D01*
X12967Y74291D01*
X13042Y74216D01*
X13042Y74191D01*
D10*
X13242Y73941D02*
X13242Y73916D01*
X13317Y73841D01*
X13617Y73841D01*
X13692Y73916D01*
X13692Y73991D01*
X13617Y74066D01*
X13317Y74066D01*
X13242Y74141D01*
X13242Y74216D01*
X13317Y74291D01*
X13617Y74291D01*
X13692Y74216D01*
X13692Y74191D01*
D10*
X14342Y74291D02*
X14342Y73841D01*
D10*
X13892Y74291D02*
X13892Y73966D01*
X14017Y73841D01*
X14217Y73841D01*
X14342Y73966D01*
D10*
X14542Y73841D02*
X14542Y74291D01*
D10*
X14542Y74091D02*
X14717Y74291D01*
X14917Y74291D01*
X14992Y74216D01*
X14992Y74191D01*
D10*
X15592Y73841D02*
X15317Y73841D01*
X15192Y73966D01*
X15192Y74166D01*
X15317Y74291D01*
X15517Y74291D01*
X15642Y74166D01*
X15642Y74066D01*
X15192Y74066D01*
D10*
X16492Y73941D02*
X16592Y73841D01*
X16842Y73841D01*
X16942Y73941D01*
X16942Y74041D01*
X16842Y74141D01*
X16592Y74141D01*
X16492Y74241D01*
X16492Y74341D01*
X16592Y74441D01*
X16842Y74441D01*
X16942Y74341D01*
D10*
X17542Y73841D02*
X17267Y73841D01*
X17142Y73966D01*
X17142Y74166D01*
X17267Y74291D01*
X17467Y74291D01*
X17592Y74166D01*
X17592Y74066D01*
X17142Y74066D01*
D10*
X17792Y73841D02*
X17792Y74291D01*
D10*
X17792Y74141D02*
X17942Y74291D01*
X18117Y74291D01*
X18242Y74166D01*
X18242Y73841D01*
D10*
X18442Y73941D02*
X18442Y73916D01*
X18517Y73841D01*
X18817Y73841D01*
X18892Y73916D01*
X18892Y73991D01*
X18817Y74066D01*
X18517Y74066D01*
X18442Y74141D01*
X18442Y74216D01*
X18517Y74291D01*
X18817Y74291D01*
X18892Y74216D01*
X18892Y74191D01*
D10*
X19092Y73966D02*
X19092Y74166D01*
X19217Y74291D01*
X19417Y74291D01*
X19542Y74166D01*
X19542Y73966D01*
X19417Y73841D01*
X19217Y73841D01*
X19092Y73966D01*
D10*
X19742Y73841D02*
X19742Y74291D01*
D10*
X19742Y74091D02*
X19917Y74291D01*
X20117Y74291D01*
X20192Y74216D01*
X20192Y74191D01*
D10*
X17822Y65089D02*
X17922Y64989D01*
X18172Y64989D01*
X18272Y65089D01*
X18272Y65189D01*
X18172Y65289D01*
X17922Y65289D01*
X17822Y65389D01*
X17822Y65489D01*
X17922Y65589D01*
X18172Y65589D01*
X18272Y65489D01*
D10*
X18472Y64989D02*
X18472Y65589D01*
X18822Y65589D01*
X18922Y65489D01*
X18922Y65089D01*
X18822Y64989D01*
X18472Y64989D01*
D10*
X19122Y64989D02*
X19122Y65289D01*
X19322Y65589D01*
X19372Y65589D01*
X19572Y65289D01*
X19572Y64989D01*
D10*
X19122Y65139D02*
X19572Y65139D01*
D10*
X15011Y65089D02*
X15111Y64989D01*
X15361Y64989D01*
X15461Y65089D01*
X15461Y65189D01*
X15361Y65289D01*
X15111Y65289D01*
X15011Y65389D01*
X15011Y65489D01*
X15111Y65589D01*
X15361Y65589D01*
X15461Y65489D01*
D10*
X16111Y65139D02*
X16111Y65089D01*
X16011Y64989D01*
X15761Y64989D01*
X15661Y65089D01*
X15661Y65489D01*
X15761Y65589D01*
X16011Y65589D01*
X16111Y65489D01*
X16111Y65439D01*
D10*
X16661Y64989D02*
X16311Y64989D01*
X16311Y65589D01*
D10*
X12125Y65239D02*
X12300Y65239D01*
X12300Y65089D01*
X12200Y64989D01*
X11950Y64989D01*
X11850Y65089D01*
X11850Y65489D01*
X11950Y65589D01*
X12200Y65589D01*
X12300Y65489D01*
X12300Y65439D01*
D10*
X12500Y64989D02*
X12500Y65589D01*
D10*
X12500Y65539D02*
X12900Y65164D01*
D10*
X12900Y64989D02*
X12900Y65589D01*
D10*
X13100Y64989D02*
X13100Y65589D01*
X13450Y65589D01*
X13550Y65489D01*
X13550Y65089D01*
X13450Y64989D01*
X13100Y64989D01*
D10*
X9173Y65489D02*
X9173Y65514D01*
X9248Y65589D01*
X9448Y65589D01*
X9523Y65514D01*
X9523Y65414D01*
X9398Y65289D01*
X9523Y65164D01*
X9523Y65064D01*
X9448Y64989D01*
X9248Y64989D01*
X9173Y65064D01*
X9173Y65089D01*
D10*
X9323Y65289D02*
X9398Y65289D01*
D10*
X9723Y65589D02*
X9723Y65239D01*
X9923Y64989D01*
X10123Y65239D01*
X10123Y65589D01*
D10*
X10323Y65114D02*
X10323Y65314D01*
X10448Y65439D01*
X10648Y65439D01*
X10773Y65314D01*
X10773Y65114D01*
X10648Y64989D01*
X10448Y64989D01*
X10323Y65114D01*
D10*
X5867Y65589D02*
X5867Y65239D01*
X6067Y64989D01*
X6267Y65239D01*
X6267Y65589D01*
D10*
X6542Y64989D02*
X6542Y65589D01*
D10*
X6467Y64989D02*
X6617Y64989D01*
D10*
X6467Y65589D02*
X6617Y65589D01*
D10*
X6817Y64989D02*
X6817Y65589D01*
D10*
X6817Y65539D02*
X7217Y65164D01*
D10*
X7217Y64989D02*
X7217Y65589D01*
D11*
X11569Y49786D02*
X11569Y50452D01*
X11513Y50452D01*
X11236Y50036D01*
X11236Y49925D01*
X11624Y49925D01*
D10*
X2652Y57869D02*
X22652Y57869D01*
X22652Y42369D01*
X2652Y42369D01*
X2652Y57869D01*
D10*
X17784Y55199D02*
X17786Y55099D01*
X17793Y55000D01*
X17805Y54901D01*
X17822Y54802D01*
X17844Y54705D01*
X17871Y54609D01*
X17902Y54514D01*
X17938Y54421D01*
X17979Y54330D01*
X18025Y54241D01*
X18075Y54155D01*
X18129Y54071D01*
X18188Y53991D01*
X18250Y53913D01*
X18316Y53838D01*
X18386Y53767D01*
X18460Y53699D01*
X18536Y53636D01*
X18616Y53575D01*
X18698Y53519D01*
X18784Y53467D01*
X18871Y53420D01*
X18961Y53376D01*
X19053Y53337D01*
X19146Y53303D01*
X19242Y53273D01*
X19338Y53248D01*
X19436Y53228D01*
X19535Y53212D01*
X19634Y53202D01*
X19733Y53197D01*
X19833Y53197D01*
X19933Y53202D01*
X20032Y53212D01*
X20131Y53227D01*
X20229Y53247D01*
X20325Y53272D01*
X20420Y53301D01*
X20514Y53336D01*
X20606Y53375D01*
X20695Y53419D01*
X20783Y53467D01*
X20868Y53518D01*
X20951Y53575D01*
X21030Y53635D01*
X21107Y53699D01*
X21180Y53767D01*
X21250Y53838D01*
X21316Y53913D01*
X21378Y53991D01*
X21436Y54072D01*
X21490Y54156D01*
X21540Y54242D01*
X21586Y54331D01*
X21627Y54422D01*
X21663Y54515D01*
X21695Y54609D01*
X21722Y54705D01*
X21744Y54803D01*
X21762Y54901D01*
X21774Y55000D01*
X21782Y55099D01*
X21784Y55199D01*
X21782Y55299D01*
X21775Y55398D01*
X21763Y55497D01*
X21746Y55596D01*
X21724Y55693D01*
X21697Y55789D01*
X21666Y55884D01*
X21630Y55977D01*
X21589Y56068D01*
X21543Y56157D01*
X21493Y56243D01*
X21439Y56327D01*
X21380Y56408D01*
X21318Y56485D01*
X21252Y56560D01*
X21182Y56631D01*
X21108Y56699D01*
X21032Y56763D01*
X20952Y56823D01*
X20870Y56879D01*
X20784Y56931D01*
X20697Y56979D01*
X20607Y57022D01*
X20515Y57061D01*
X20422Y57096D01*
X20326Y57125D01*
X20230Y57150D01*
X20132Y57171D01*
X20033Y57186D01*
X19934Y57196D01*
X19835Y57201D01*
X19735Y57202D01*
X19635Y57197D01*
X19536Y57187D01*
X19437Y57172D01*
X19339Y57152D01*
X19243Y57127D01*
X19148Y57097D01*
X19054Y57062D01*
X18962Y57023D01*
X18873Y56979D01*
X18785Y56932D01*
X18700Y56880D01*
X18617Y56824D01*
X18538Y56763D01*
X18461Y56699D01*
X18388Y56631D01*
X18318Y56560D01*
X18252Y56485D01*
X18190Y56407D01*
X18132Y56326D01*
X18078Y56242D01*
X18028Y56156D01*
X17982Y56067D01*
X17941Y55976D01*
X17905Y55883D01*
X17873Y55789D01*
X17846Y55693D01*
X17824Y55596D01*
X17806Y55497D01*
X17794Y55398D01*
X17786Y55299D01*
X17784Y55199D01*
X17784Y55199D01*
D10*
X3447Y55199D02*
X3449Y55099D01*
X3456Y55000D01*
X3468Y54901D01*
X3485Y54802D01*
X3507Y54705D01*
X3534Y54609D01*
X3565Y54514D01*
X3601Y54421D01*
X3642Y54330D01*
X3688Y54241D01*
X3738Y54155D01*
X3792Y54071D01*
X3851Y53991D01*
X3913Y53913D01*
X3979Y53838D01*
X4049Y53767D01*
X4123Y53699D01*
X4199Y53636D01*
X4279Y53575D01*
X4361Y53519D01*
X4447Y53467D01*
X4534Y53420D01*
X4624Y53376D01*
X4716Y53337D01*
X4809Y53303D01*
X4905Y53273D01*
X5001Y53248D01*
X5099Y53228D01*
X5198Y53212D01*
X5297Y53202D01*
X5396Y53197D01*
X5496Y53197D01*
X5596Y53202D01*
X5695Y53212D01*
X5794Y53227D01*
X5892Y53247D01*
X5988Y53272D01*
X6083Y53301D01*
X6177Y53336D01*
X6269Y53375D01*
X6358Y53419D01*
X6446Y53467D01*
X6531Y53518D01*
X6614Y53575D01*
X6693Y53635D01*
X6770Y53699D01*
X6843Y53767D01*
X6913Y53838D01*
X6979Y53913D01*
X7041Y53991D01*
X7099Y54072D01*
X7153Y54156D01*
X7203Y54242D01*
X7249Y54331D01*
X7290Y54422D01*
X7326Y54515D01*
X7358Y54609D01*
X7385Y54705D01*
X7407Y54803D01*
X7425Y54901D01*
X7437Y55000D01*
X7445Y55099D01*
X7447Y55199D01*
X7445Y55299D01*
X7438Y55398D01*
X7426Y55497D01*
X7409Y55596D01*
X7387Y55693D01*
X7360Y55789D01*
X7329Y55884D01*
X7293Y55977D01*
X7252Y56068D01*
X7206Y56157D01*
X7156Y56243D01*
X7102Y56327D01*
X7043Y56408D01*
X6981Y56485D01*
X6915Y56560D01*
X6845Y56631D01*
X6771Y56699D01*
X6695Y56763D01*
X6615Y56823D01*
X6533Y56879D01*
X6447Y56931D01*
X6360Y56979D01*
X6270Y57022D01*
X6178Y57061D01*
X6085Y57096D01*
X5989Y57125D01*
X5893Y57150D01*
X5795Y57171D01*
X5696Y57186D01*
X5597Y57196D01*
X5498Y57201D01*
X5398Y57202D01*
X5298Y57197D01*
X5199Y57187D01*
X5100Y57172D01*
X5002Y57152D01*
X4906Y57127D01*
X4811Y57097D01*
X4717Y57062D01*
X4625Y57023D01*
X4536Y56979D01*
X4448Y56932D01*
X4363Y56880D01*
X4280Y56824D01*
X4201Y56763D01*
X4124Y56699D01*
X4051Y56631D01*
X3981Y56560D01*
X3915Y56485D01*
X3853Y56407D01*
X3795Y56326D01*
X3741Y56242D01*
X3691Y56156D01*
X3645Y56067D01*
X3604Y55976D01*
X3568Y55883D01*
X3536Y55789D01*
X3509Y55693D01*
X3487Y55596D01*
X3469Y55497D01*
X3457Y55398D01*
X3449Y55299D01*
X3447Y55199D01*
X3447Y55199D01*
D10*
X21090Y46177D02*
X21090Y46477D01*
X21290Y46777D01*
X21340Y46777D01*
X21540Y46477D01*
X21540Y46177D01*
D10*
X21090Y46327D02*
X21540Y46327D01*
D10*
X21815Y46177D02*
X21740Y46252D01*
X21740Y46702D01*
X21815Y46777D01*
X22015Y46777D01*
X22090Y46702D01*
X22090Y46252D01*
X22015Y46177D01*
X21815Y46177D01*
D10*
X21740Y46327D02*
X22090Y46627D01*
D10*
X18613Y46177D02*
X18613Y46477D01*
X18813Y46777D01*
X18863Y46777D01*
X19063Y46477D01*
X19063Y46177D01*
D10*
X18613Y46327D02*
X19063Y46327D01*
D10*
X19388Y46177D02*
X19388Y46777D01*
X19338Y46777D01*
X19263Y46677D01*
D10*
X19263Y46177D02*
X19488Y46177D01*
D10*
X16010Y46177D02*
X16010Y46477D01*
X16210Y46777D01*
X16260Y46777D01*
X16460Y46477D01*
X16460Y46177D01*
D10*
X16010Y46327D02*
X16460Y46327D01*
D10*
X16660Y46677D02*
X16660Y46702D01*
X16735Y46777D01*
X16935Y46777D01*
X17010Y46702D01*
X17010Y46527D01*
X16660Y46177D01*
X17010Y46177D01*
D10*
X13095Y46277D02*
X13195Y46177D01*
X13445Y46177D01*
X13545Y46277D01*
X13545Y46377D01*
X13445Y46477D01*
X13195Y46477D01*
X13095Y46577D01*
X13095Y46677D01*
X13195Y46777D01*
X13445Y46777D01*
X13545Y46677D01*
D10*
X13745Y46177D02*
X13745Y46777D01*
X14095Y46777D01*
X14195Y46677D01*
X14195Y46277D01*
X14095Y46177D01*
X13745Y46177D01*
D10*
X14395Y46177D02*
X14395Y46477D01*
X14595Y46777D01*
X14645Y46777D01*
X14845Y46477D01*
X14845Y46177D01*
D10*
X14395Y46327D02*
X14845Y46327D01*
D10*
X10605Y46277D02*
X10705Y46177D01*
X10955Y46177D01*
X11055Y46277D01*
X11055Y46377D01*
X10955Y46477D01*
X10705Y46477D01*
X10605Y46577D01*
X10605Y46677D01*
X10705Y46777D01*
X10955Y46777D01*
X11055Y46677D01*
D10*
X11705Y46327D02*
X11705Y46277D01*
X11605Y46177D01*
X11355Y46177D01*
X11255Y46277D01*
X11255Y46677D01*
X11355Y46777D01*
X11605Y46777D01*
X11705Y46677D01*
X11705Y46627D01*
D10*
X12255Y46177D02*
X11905Y46177D01*
X11905Y46777D01*
D10*
X8315Y46777D02*
X8315Y46377D01*
X8465Y46177D01*
X8590Y46327D01*
X8715Y46177D01*
X8865Y46377D01*
X8865Y46777D01*
D10*
X8590Y46327D02*
X8590Y46477D01*
D10*
X9065Y46177D02*
X9065Y46777D01*
X9365Y46777D01*
X9465Y46677D01*
X9465Y46577D01*
X9365Y46477D01*
X9065Y46477D01*
D10*
X5775Y46427D02*
X5950Y46427D01*
X5950Y46277D01*
X5850Y46177D01*
X5600Y46177D01*
X5500Y46277D01*
X5500Y46677D01*
X5600Y46777D01*
X5850Y46777D01*
X5950Y46677D01*
X5950Y46627D01*
D10*
X6150Y46177D02*
X6150Y46777D01*
D10*
X6150Y46727D02*
X6550Y46352D01*
D10*
X6550Y46177D02*
X6550Y46777D01*
D10*
X6750Y46177D02*
X6750Y46777D01*
X7100Y46777D01*
X7200Y46677D01*
X7200Y46277D01*
X7100Y46177D01*
X6750Y46177D01*
D10*
X3164Y46777D02*
X3164Y46427D01*
X3364Y46177D01*
X3564Y46427D01*
X3564Y46777D01*
D10*
X4214Y46327D02*
X4214Y46277D01*
X4114Y46177D01*
X3864Y46177D01*
X3764Y46277D01*
X3764Y46677D01*
X3864Y46777D01*
X4114Y46777D01*
X4214Y46677D01*
X4214Y46627D01*
D10*
X4864Y46327D02*
X4864Y46277D01*
X4764Y46177D01*
X4514Y46177D01*
X4414Y46277D01*
X4414Y46677D01*
X4514Y46777D01*
X4764Y46777D01*
X4864Y46677D01*
X4864Y46627D01*
D10*
X8950Y55020D02*
X8950Y55620D01*
D10*
X8875Y55020D02*
X9025Y55020D01*
D10*
X8875Y55620D02*
X9025Y55620D01*
D10*
X9225Y55520D02*
X9225Y55545D01*
X9300Y55620D01*
X9500Y55620D01*
X9575Y55545D01*
X9575Y55370D01*
X9225Y55020D01*
X9575Y55020D01*
D10*
X10225Y55170D02*
X10225Y55120D01*
X10125Y55020D01*
X9875Y55020D01*
X9775Y55120D01*
X9775Y55520D01*
X9875Y55620D01*
X10125Y55620D01*
X10225Y55520D01*
X10225Y55470D01*
D10*
X11075Y55020D02*
X11075Y55620D01*
X11425Y55620D01*
D10*
X11375Y55320D02*
X11075Y55320D01*
D10*
X11625Y55020D02*
X11625Y55620D01*
X11925Y55620D01*
X12025Y55520D01*
X12025Y55420D01*
X11925Y55320D01*
X11625Y55320D01*
D10*
X11925Y55320D02*
X12025Y55220D01*
X12025Y55020D01*
D10*
X12225Y55020D02*
X12225Y55320D01*
X12425Y55620D01*
X12475Y55620D01*
X12675Y55320D01*
X12675Y55020D01*
D10*
X12225Y55170D02*
X12675Y55170D01*
D10*
X12875Y55020D02*
X12875Y55620D01*
D10*
X12875Y55595D02*
X13150Y55395D01*
X13425Y55595D01*
D10*
X13425Y55620D02*
X13425Y55020D01*
D11*
X5864Y35227D02*
X5864Y35893D01*
X6253Y35893D01*
X6364Y35782D01*
X6364Y35338D01*
X6253Y35227D01*
X5864Y35227D01*
D11*
X6725Y35227D02*
X6725Y35893D01*
X6669Y35893D01*
X6586Y35782D01*
D11*
X6586Y35227D02*
X6836Y35227D01*
D12*
X6350Y37592D02*
X6449Y37590D01*
X6547Y37582D01*
X6646Y37570D01*
X6743Y37554D01*
X6840Y37532D01*
X6935Y37506D01*
X7029Y37475D01*
X7121Y37440D01*
X7212Y37400D01*
X7300Y37356D01*
X7387Y37308D01*
X7470Y37255D01*
X7552Y37199D01*
X7630Y37138D01*
X7705Y37074D01*
X7777Y37006D01*
X7846Y36935D01*
X7911Y36861D01*
D12*
X4557Y36516D02*
X4606Y36603D01*
X4660Y36687D01*
X4717Y36769D01*
X4778Y36848D01*
X4843Y36924D01*
X4912Y36996D01*
X4984Y37065D01*
X5060Y37130D01*
X5139Y37191D01*
X5220Y37249D01*
X5305Y37302D01*
X5391Y37352D01*
X5481Y37397D01*
X5572Y37437D01*
X5665Y37473D01*
X5760Y37504D01*
X5856Y37531D01*
X5953Y37553D01*
X6052Y37570D01*
X6151Y37582D01*
X6250Y37590D01*
X6350Y37592D01*
D12*
X6350Y33528D02*
X6448Y33530D01*
X6546Y33537D01*
X6643Y33549D01*
X6740Y33566D01*
X6836Y33587D01*
X6930Y33613D01*
X7023Y33643D01*
X7115Y33678D01*
X7205Y33717D01*
X7293Y33760D01*
X7379Y33808D01*
X7462Y33859D01*
X7543Y33915D01*
X7621Y33974D01*
X7696Y34037D01*
X7768Y34104D01*
X7836Y34174D01*
X7901Y34247D01*
D12*
X4586Y34552D02*
X4636Y34469D01*
X4690Y34388D01*
X4748Y34310D01*
X4809Y34235D01*
X4874Y34163D01*
X4943Y34094D01*
X5015Y34028D01*
X5089Y33966D01*
X5167Y33908D01*
X5247Y33853D01*
X5330Y33802D01*
X5415Y33756D01*
X5503Y33713D01*
X5592Y33675D01*
X5683Y33641D01*
X5775Y33611D01*
X5869Y33586D01*
X5964Y33565D01*
X6060Y33549D01*
X6156Y33537D01*
X6253Y33530D01*
X6350Y33528D01*
D13*
X7925Y36855D02*
X7925Y36347D01*
D13*
X7925Y34265D02*
X7925Y34722D01*
D11*
X12144Y3607D02*
X12144Y4273D01*
X12533Y4273D01*
X12644Y4162D01*
X12644Y3718D01*
X12533Y3607D01*
X12144Y3607D01*
D11*
X12867Y4162D02*
X12867Y4190D01*
X12950Y4273D01*
X13172Y4273D01*
X13256Y4190D01*
X13256Y4079D01*
X13117Y3940D01*
X13256Y3801D01*
X13256Y3690D01*
X13172Y3607D01*
X12950Y3607D01*
X12867Y3690D01*
X12867Y3718D01*
D11*
X13033Y3940D02*
X13117Y3940D01*
D12*
X12700Y5972D02*
X12799Y5970D01*
X12897Y5963D01*
X12996Y5951D01*
X13093Y5934D01*
X13190Y5912D01*
X13285Y5886D01*
X13379Y5855D01*
X13471Y5820D01*
X13562Y5780D01*
X13650Y5736D01*
X13737Y5688D01*
X13820Y5635D01*
X13902Y5579D01*
X13980Y5518D01*
X14055Y5454D01*
X14127Y5387D01*
X14196Y5315D01*
X14261Y5241D01*
D12*
X10907Y4896D02*
X10956Y4983D01*
X11010Y5068D01*
X11067Y5149D01*
X11128Y5228D01*
X11193Y5304D01*
X11262Y5376D01*
X11334Y5445D01*
X11410Y5510D01*
X11489Y5572D01*
X11570Y5629D01*
X11655Y5683D01*
X11741Y5732D01*
X11831Y5777D01*
X11922Y5817D01*
X12015Y5853D01*
X12110Y5885D01*
X12206Y5911D01*
X12303Y5933D01*
X12402Y5950D01*
X12501Y5962D01*
X12600Y5970D01*
X12700Y5972D01*
D12*
X12700Y1908D02*
X12798Y1911D01*
X12896Y1918D01*
X12993Y1929D01*
X13090Y1946D01*
X13186Y1967D01*
X13280Y1993D01*
X13373Y2023D01*
X13465Y2058D01*
X13555Y2097D01*
X13643Y2140D01*
X13729Y2188D01*
X13812Y2239D01*
X13893Y2295D01*
X13971Y2354D01*
X14046Y2418D01*
X14118Y2484D01*
X14186Y2554D01*
X14251Y2628D01*
D12*
X10936Y2932D02*
X10986Y2849D01*
X11040Y2768D01*
X11098Y2690D01*
X11159Y2615D01*
X11224Y2543D01*
X11293Y2474D01*
X11365Y2408D01*
X11439Y2346D01*
X11517Y2288D01*
X11597Y2233D01*
X11680Y2183D01*
X11765Y2136D01*
X11853Y2093D01*
X11942Y2055D01*
X12033Y2021D01*
X12125Y1991D01*
X12219Y1966D01*
X12314Y1945D01*
X12410Y1929D01*
X12506Y1917D01*
X12603Y1910D01*
X12700Y1908D01*
D13*
X14275Y5236D02*
X14275Y4728D01*
D13*
X14275Y2645D02*
X14275Y3102D01*
D11*
X17224Y35227D02*
X17224Y35893D01*
X17613Y35893D01*
X17724Y35782D01*
X17724Y35338D01*
X17613Y35227D01*
X17224Y35227D01*
D11*
X17947Y35782D02*
X17947Y35810D01*
X18030Y35893D01*
X18252Y35893D01*
X18336Y35810D01*
X18336Y35616D01*
X17947Y35227D01*
X18336Y35227D01*
D12*
X17780Y37592D02*
X17879Y37590D01*
X17977Y37582D01*
X18076Y37570D01*
X18173Y37554D01*
X18270Y37532D01*
X18365Y37506D01*
X18459Y37475D01*
X18551Y37440D01*
X18642Y37400D01*
X18730Y37356D01*
X18817Y37308D01*
X18900Y37255D01*
X18982Y37199D01*
X19060Y37138D01*
X19135Y37074D01*
X19207Y37006D01*
X19276Y36935D01*
X19341Y36861D01*
D12*
X15987Y36516D02*
X16036Y36603D01*
X16090Y36687D01*
X16147Y36769D01*
X16208Y36848D01*
X16273Y36924D01*
X16342Y36996D01*
X16414Y37065D01*
X16490Y37130D01*
X16569Y37191D01*
X16650Y37249D01*
X16735Y37302D01*
X16821Y37352D01*
X16911Y37397D01*
X17002Y37437D01*
X17095Y37473D01*
X17190Y37504D01*
X17286Y37531D01*
X17383Y37553D01*
X17482Y37570D01*
X17581Y37582D01*
X17680Y37590D01*
X17780Y37592D01*
D12*
X17780Y33528D02*
X17878Y33530D01*
X17976Y33537D01*
X18073Y33549D01*
X18170Y33566D01*
X18266Y33587D01*
X18360Y33613D01*
X18453Y33643D01*
X18545Y33678D01*
X18635Y33717D01*
X18723Y33760D01*
X18809Y33808D01*
X18892Y33859D01*
X18973Y33915D01*
X19051Y33974D01*
X19126Y34037D01*
X19198Y34104D01*
X19266Y34174D01*
X19331Y34247D01*
D12*
X16016Y34552D02*
X16066Y34469D01*
X16120Y34388D01*
X16178Y34310D01*
X16239Y34235D01*
X16304Y34163D01*
X16373Y34094D01*
X16445Y34028D01*
X16519Y33966D01*
X16597Y33908D01*
X16677Y33853D01*
X16760Y33802D01*
X16845Y33756D01*
X16933Y33713D01*
X17022Y33675D01*
X17113Y33641D01*
X17205Y33611D01*
X17299Y33586D01*
X17394Y33565D01*
X17490Y33549D01*
X17586Y33537D01*
X17683Y33530D01*
X17780Y33528D01*
D13*
X19355Y36855D02*
X19355Y36347D01*
D13*
X19355Y34265D02*
X19355Y34722D01*
M02*
