G75*
G71*
%OFA0B0*%
%FSLAX23Y23*%
%IPPOS*%
%LPD*%
%ADD10C,0.1*%
%LPD*%D10*
X0Y0D02*
X0Y100D01*
X0Y200D01*
X0Y300D01*
X0Y400D01*
X0Y500D01*
X0Y600D01*
X0Y700D01*
X0Y800D01*
X0Y900D01*
X0Y1000D01*
X0Y1100D01*
X0Y1200D01*
X0Y1300D01*
X0Y1400D01*
X0Y1500D01*
X0Y1600D01*
X0Y1700D01*
X0Y1800D01*
X0Y1900D01*
X0Y2000D01*
X0Y2100D01*
X0Y2200D01*
X0Y2300D01*
X0Y2400D01*
X0Y2500D01*
X0Y2600D01*
X0Y2700D01*
X0Y2800D01*
X0Y2900D01*
X0Y3000D01*
X0Y3100D01*
X0Y3200D01*
X0Y3300D01*
X0Y3400D01*
X0Y3500D01*
X0Y3600D01*
X0Y3700D01*
X0Y3800D01*
X0Y3900D01*
X0Y4000D01*
X0Y4100D01*
X0Y4200D01*
X0Y4300D01*
X0Y4400D01*
X0Y4500D01*
X0Y4600D01*
X0Y4700D01*
X0Y4800D01*
X0Y4900D01*
X0Y5000D01*
X0Y5100D01*
X0Y5200D01*
X0Y5300D01*
X0Y5400D01*
X0Y5500D01*
X0Y5600D01*
X0Y5700D01*
X0Y5800D01*
X0Y5900D01*
X0Y6000D01*
X0Y6100D01*
X0Y6200D01*
X0Y6300D01*
X0Y6400D01*
X0Y6500D01*
X0Y6600D01*
X0Y6700D01*
X0Y6800D01*
X0Y6900D01*
X0Y7000D01*
X0Y7100D01*
X0Y7200D01*
X0Y7300D01*
X0Y7400D01*
X0Y7500D01*
X0Y7600D01*
X0Y7700D01*
X0Y7800D01*
X0Y7900D01*
X0Y8000D01*
X0Y8100D01*
X0Y8200D01*
X0Y8300D01*
X0Y8400D01*
X0Y8500D01*
X0Y8600D01*
X0Y8700D01*
X0Y8800D01*
X0Y8900D01*
X0Y9000D01*
X0Y9100D01*
X0Y9200D01*
X0Y9300D01*
X0Y9400D01*
X0Y9500D01*
X0Y9600D01*
X0Y9700D01*
X0Y9800D01*
X0Y9900D01*
X0Y10000D01*
X0Y10100D01*
X0Y10200D01*
X0Y10300D01*
X0Y10400D01*
X0Y10500D01*
X0Y10600D01*
X0Y10700D01*
X0Y10800D01*
X0Y10900D01*
X0Y11000D01*
X0Y11100D01*
X0Y11200D01*
X0Y11300D01*
X0Y11400D01*
X0Y11500D01*
X0Y11600D01*
X0Y11700D01*
X0Y11800D01*
X0Y11900D01*
X0Y12000D01*
X0Y12100D01*
X0Y12200D01*
X0Y12300D01*
X0Y12400D01*
X0Y12500D01*
X0Y12600D01*
X0Y12700D01*
X0Y12800D01*
X0Y12900D01*
X0Y13000D01*
X0Y13100D01*
X0Y13200D01*
X0Y13300D01*
X0Y13400D01*
X0Y13500D01*
X0Y13600D01*
X0Y13700D01*
X0Y13800D01*
X0Y13900D01*
X0Y14000D01*
X0Y14100D01*
X0Y14200D01*
X0Y14300D01*
X0Y14400D01*
X0Y14500D01*
X0Y14600D01*
X0Y14700D01*
X0Y14800D01*
X0Y14900D01*
X0Y15000D01*
X0Y15100D01*
X0Y15200D01*
X0Y15300D01*
X0Y15400D01*
X0Y15500D01*
X0Y15600D01*
X0Y15700D01*
X0Y15800D01*
X0Y15900D01*
X0Y16000D01*
X0Y16100D01*
X0Y16200D01*
X0Y16300D01*
X0Y16400D01*
X0Y16500D01*
X0Y16600D01*
X0Y16700D01*
X0Y16800D01*
X0Y16900D01*
X0Y17000D01*
X0Y17100D01*
X0Y17200D01*
X0Y17300D01*
X0Y17400D01*
X0Y17500D01*
X0Y17600D01*
X0Y17700D01*
X0Y17800D01*
X0Y17900D01*
X0Y18000D01*
X0Y18100D01*
X0Y18200D01*
X0Y18300D01*
X0Y18400D01*
X0Y18500D01*
X0Y18600D01*
X0Y18700D01*
X0Y18800D01*
X0Y18900D01*
X0Y19000D01*
X0Y19100D01*
X0Y19200D01*
X0Y19300D01*
X0Y19400D01*
X0Y19500D01*
X0Y19600D01*
X0Y19700D01*
X0Y19800D01*
X0Y19900D01*
X0Y20000D01*
X0Y20100D01*
X0Y20200D01*
X0Y20300D01*
X0Y20400D01*
X0Y20500D01*
X0Y20600D01*
X0Y20700D01*
X0Y20800D01*
X0Y20900D01*
X0Y21000D01*
X0Y21100D01*
X0Y21200D01*
X0Y21300D01*
X0Y21400D01*
X0Y21500D01*
X0Y21600D01*
X0Y21700D01*
X0Y21800D01*
X0Y21900D01*
X0Y22000D01*
X0Y22100D01*
X0Y22200D01*
X0Y22300D01*
X0Y22400D01*
X0Y22500D01*
X0Y22600D01*
X0Y22700D01*
X0Y22800D01*
X0Y22900D01*
X0Y23000D01*
X0Y23100D01*
X0Y23200D01*
X0Y23300D01*
X0Y23400D01*
X0Y23500D01*
X0Y23600D01*
X0Y23700D01*
X0Y23800D01*
X0Y23900D01*
X0Y24000D01*
X0Y24100D01*
X0Y24200D01*
X0Y24300D01*
X0Y24400D01*
X0Y24500D01*
X0Y24600D01*
X0Y24700D01*
X0Y24800D01*
X0Y24900D01*
X0Y25000D01*
X0Y25100D01*
X0Y25200D01*
X0Y25300D01*
X0Y25400D01*
X0Y25500D01*
X0Y25600D01*
X0Y25700D01*
X0Y25800D01*
X0Y25900D01*
X0Y26000D01*
X0Y26100D01*
X0Y26200D01*
X0Y26300D01*
X0Y26400D01*
X0Y26500D01*
X0Y26600D01*
X0Y26700D01*
X0Y26800D01*
X0Y26900D01*
X0Y27000D01*
X0Y27100D01*
X0Y27200D01*
X0Y27300D01*
X0Y27400D01*
X0Y27500D01*
X0Y27600D01*
X0Y27700D01*
X0Y27800D01*
X0Y27900D01*
X0Y28000D01*
X0Y28100D01*
X0Y28200D01*
X0Y28300D01*
X0Y28400D01*
X0Y28500D01*
X0Y28600D01*
X0Y28700D01*
X0Y28800D01*
X0Y28900D01*
X0Y29000D01*
X0Y29100D01*
X0Y29200D01*
X0Y29300D01*
X0Y29400D01*
X0Y29500D01*
X0Y29600D01*
X0Y29700D01*
X0Y29800D01*
X0Y29900D01*
X0Y30000D01*
X0Y30100D01*
X0Y30200D01*
X0Y30300D01*
X0Y30400D01*
X0Y30500D01*
X0Y30600D01*
X0Y30700D01*
X0Y30800D01*
X0Y30900D01*
X0Y31000D01*
X0Y31100D01*
X0Y31200D01*
X0Y31300D01*
X0Y31400D01*
X0Y31500D01*
X0Y31600D01*
X0Y31700D01*
X0Y31800D01*
X0Y31900D01*
X0Y32000D01*
X0Y32100D01*
X0Y32200D01*
X0Y32300D01*
X0Y32400D01*
X0Y32500D01*
X0Y32600D01*
X0Y32700D01*
X0Y32800D01*
X0Y32900D01*
X0Y33000D01*
X0Y33100D01*
X0Y33200D01*
X0Y33300D01*
X0Y33400D01*
X0Y33500D01*
X0Y33600D01*
X0Y33700D01*
X0Y33800D01*
X0Y33900D01*
X0Y34000D01*
X0Y34100D01*
X0Y34200D01*
X0Y34300D01*
X0Y34400D01*
X0Y34500D01*
X0Y34600D01*
X0Y34700D01*
X0Y34800D01*
X0Y34900D01*
X0Y35000D01*
X0Y35100D01*
X0Y35200D01*
X0Y35300D01*
X0Y35400D01*
X0Y35500D01*
X0Y35600D01*
X0Y35700D01*
X0Y35800D01*
X0Y35900D01*
X0Y36000D01*
X0Y36100D01*
X0Y36200D01*
X0Y36300D01*
X0Y36400D01*
X0Y36500D01*
X0Y36600D01*
X0Y36700D01*
X0Y36800D01*
X0Y36900D01*
X0Y37000D01*
X0Y37100D01*
X0Y37200D01*
X0Y37300D01*
X0Y37400D01*
X0Y37500D01*
X0Y37600D01*
X0Y37700D01*
X0Y37800D01*
X0Y37900D01*
X0Y38000D01*
X0Y38100D01*
X0Y38200D01*
X0Y38300D01*
X0Y38400D01*
X0Y38500D01*
X0Y38600D01*
X0Y38700D01*
X0Y38800D01*
X0Y38900D01*
X0Y39000D01*
X0Y39100D01*
X0Y39200D01*
X0Y39300D01*
X0Y39400D01*
X0Y39500D01*
X0Y39600D01*
X0Y39700D01*
X0Y39800D01*
X0Y39900D01*
X0Y40000D01*
X0Y40100D01*
X0Y40200D01*
X0Y40300D01*
X0Y40400D01*
X0Y40500D01*
X0Y40600D01*
X0Y40700D01*
X0Y40800D01*
X0Y40900D01*
X0Y41000D01*
X0Y41100D01*
X0Y41200D01*
X0Y41300D01*
X0Y41400D01*
X0Y41500D01*
X0Y41600D01*
X0Y41700D01*
X0Y41800D01*
X0Y41900D01*
X0Y42000D01*
X0Y42100D01*
X0Y42200D01*
X0Y42300D01*
X0Y42400D01*
X0Y42500D01*
X0Y42600D01*
X0Y42700D01*
X0Y42800D01*
X0Y42900D01*
X0Y43000D01*
X0Y43100D01*
X0Y43200D01*
X0Y43300D01*
X0Y43400D01*
X0Y43500D01*
X0Y43600D01*
X0Y43700D01*
X0Y43800D01*
X0Y43900D01*
X0Y44000D01*
X0Y44100D01*
X0Y44200D01*
X0Y44300D01*
X0Y44400D01*
X0Y44500D01*
X0Y44600D01*
X0Y44700D01*
X0Y44800D01*
X0Y44900D01*
X0Y45000D01*
X0Y45100D01*
X0Y45200D01*
X0Y45300D01*
X0Y45400D01*
X0Y45500D01*
X0Y45600D01*
X0Y45700D01*
X0Y45800D01*
X0Y45900D01*
X0Y46000D01*
X0Y46100D01*
X0Y46200D01*
X0Y46300D01*
X0Y46400D01*
X0Y46500D01*
X0Y46600D01*
X0Y46700D01*
X0Y46800D01*
X0Y46900D01*
X0Y47000D01*
X0Y47100D01*
X0Y47200D01*
X0Y47300D01*
X0Y47400D01*
X0Y47500D01*
X0Y47600D01*
X0Y47700D01*
X0Y47800D01*
X0Y47900D01*
X0Y48000D01*
X0Y48100D01*
X0Y48200D01*
X0Y48300D01*
X0Y48400D01*
X0Y48500D01*
X0Y48600D01*
X0Y48700D01*
X0Y48800D01*
X0Y48900D01*
X0Y49000D01*
X0Y49100D01*
X0Y49200D01*
X0Y49300D01*
X0Y49400D01*
X0Y49500D01*
X0Y49600D01*
X0Y49700D01*
X0Y49800D01*
X0Y49900D01*
X0Y50000D01*
X0Y50100D01*
X0Y50200D01*
X0Y50300D01*
X0Y50400D01*
X0Y50500D01*
X0Y50600D01*
X0Y50700D01*
X0Y50800D01*
X0Y50900D01*
X0Y51000D01*
X0Y51100D01*
X0Y51200D01*
X0Y51300D01*
X0Y51400D01*
X0Y51500D01*
X0Y51600D01*
X0Y51700D01*
X0Y51800D01*
X0Y51900D01*
X0Y52000D01*
X0Y52100D01*
X0Y52200D01*
X0Y52300D01*
X0Y52400D01*
X0Y52500D01*
X0Y52600D01*
X0Y52700D01*
X0Y52800D01*
X0Y52900D01*
X0Y53000D01*
X0Y53100D01*
X0Y53200D01*
X0Y53300D01*
X0Y53400D01*
X0Y53500D01*
X0Y53600D01*
X0Y53700D01*
X0Y53800D01*
X0Y53900D01*
X0Y54000D01*
X0Y54100D01*
X0Y54200D01*
X0Y54300D01*
X0Y54400D01*
X0Y54500D01*
X0Y54600D01*
X0Y54700D01*
X0Y54800D01*
X0Y54900D01*
X0Y55000D01*
X0Y55100D01*
X0Y55200D01*
X0Y55300D01*
X0Y55400D01*
X0Y55500D01*
X0Y55600D01*
X0Y55700D01*
X0Y55800D01*
X0Y55900D01*
X0Y56000D01*
X0Y56100D01*
X0Y56200D01*
X0Y56300D01*
X0Y56400D01*
X0Y56500D01*
X0Y56600D01*
X0Y56700D01*
X0Y56800D01*
X0Y56900D01*
X0Y57000D01*
X0Y57100D01*
X0Y57200D01*
X0Y57300D01*
X0Y57400D01*
X0Y57500D01*
X0Y57600D01*
X0Y57700D01*
X0Y57800D01*
X0Y57900D01*
X0Y58000D01*
X0Y58100D01*
X0Y58200D01*
X0Y58300D01*
X0Y58400D01*
X0Y58500D01*
X0Y58600D01*
X0Y58700D01*
X0Y58800D01*
X0Y58900D01*
X0Y59000D01*
X0Y59100D01*
X0Y59200D01*
X0Y59300D01*
X0Y59400D01*
X0Y59500D01*
X0Y59600D01*
X0Y59700D01*
X0Y59800D01*
X0Y59900D01*
X0Y60000D01*
X0Y60100D01*
X0Y60200D01*
X0Y60300D01*
X0Y60400D01*
X0Y60500D01*
X0Y60600D01*
X0Y60700D01*
X0Y60800D01*
X0Y60900D01*
X0Y61000D01*
X0Y61100D01*
X0Y61200D01*
X0Y61300D01*
X0Y61400D01*
X0Y61500D01*
X0Y61600D01*
X0Y61700D01*
X0Y61800D01*
X0Y61900D01*
X0Y62000D01*
X0Y62100D01*
X0Y62200D01*
X0Y62300D01*
X0Y62400D01*
X0Y62500D01*
X0Y62600D01*
X0Y62700D01*
X0Y62800D01*
X0Y62900D01*
X0Y63000D01*
X0Y63100D01*
X0Y63200D01*
X0Y63300D01*
X0Y63400D01*
X0Y63500D01*
X0Y63600D01*
X0Y63700D01*
X0Y63800D01*
X0Y63900D01*
X0Y64000D01*
X0Y64100D01*
X0Y64200D01*
X0Y64300D01*
X0Y64400D01*
X0Y64500D01*
X0Y64600D01*
X0Y64700D01*
X0Y64800D01*
X0Y64900D01*
X0Y65000D01*
X0Y65100D01*
X0Y65200D01*
X0Y65300D01*
X0Y65400D01*
X0Y65500D01*
X0Y65600D01*
X0Y65700D01*
X0Y65800D01*
X0Y65900D01*
X0Y66000D01*
X0Y66100D01*
X0Y66200D01*
X0Y66300D01*
X0Y66400D01*
X0Y66500D01*
X0Y66600D01*
X0Y66700D01*
X0Y66800D01*
X0Y66900D01*
X0Y67000D01*
X0Y67100D01*
X0Y67200D01*
X0Y67300D01*
X0Y67400D01*
X0Y67500D01*
X0Y67600D01*
X0Y67700D01*
X0Y67800D01*
X0Y67900D01*
X0Y68000D01*
X0Y68100D01*
X0Y68200D01*
X0Y68300D01*
X0Y68400D01*
X0Y68500D01*
X0Y68600D01*
X0Y68700D01*
X0Y68800D01*
X0Y68900D01*
X0Y69000D01*
X0Y69100D01*
X0Y69200D01*
X0Y69300D01*
X0Y69400D01*
X0Y69500D01*
X0Y69600D01*
X0Y69700D01*
X0Y69800D01*
X0Y69900D01*
X0Y70000D01*
X0Y70100D01*
X0Y70200D01*
X0Y70300D01*
X0Y70400D01*
X0Y70500D01*
X0Y70600D01*
X0Y70700D01*
X0Y70800D01*
X0Y70900D01*
X0Y71000D01*
X0Y71100D01*
X0Y71200D01*
X0Y71300D01*
X0Y71400D01*
X0Y71500D01*
X0Y71600D01*
X0Y71700D01*
X0Y71800D01*
X0Y71900D01*
X0Y72000D01*
X0Y72100D01*
X0Y72200D01*
X0Y72300D01*
X0Y72400D01*
X0Y72500D01*
X0Y72600D01*
X0Y72700D01*
X0Y72800D01*
X0Y72900D01*
X0Y73000D01*
X0Y73100D01*
X0Y73200D01*
X0Y73300D01*
X0Y73400D01*
X0Y73500D01*
X0Y73600D01*
X0Y73700D01*
X0Y73800D01*
X0Y73900D01*
X0Y74000D01*
X0Y74100D01*
X0Y74200D01*
X0Y74300D01*
X0Y74400D01*
X0Y74500D01*
X0Y74600D01*
X0Y74700D01*
X0Y74800D01*
X0Y74900D01*
X0Y75000D01*
X0Y75100D01*
X0Y75200D01*
X0Y75300D01*
X0Y75400D01*
X0Y75500D01*
X0Y75600D01*
X0Y75700D01*
X0Y75800D01*
X0Y75900D01*
X0Y76000D01*
X0Y76100D01*
X0Y76200D01*
X0Y76300D01*
X0Y76400D01*
X0Y76500D01*
X0Y76600D01*
X0Y76700D01*
X0Y76800D01*
X0Y76900D01*
X0Y77000D01*
X0Y77100D01*
X0Y77200D01*
X0Y77300D01*
X0Y77400D01*
X0Y77500D01*
X0Y77600D01*
X0Y77700D01*
X0Y77800D01*
X0Y77900D01*
X0Y78000D01*
X0Y78100D01*
X0Y78200D01*
X0Y78300D01*
X0Y78400D01*
X0Y78500D01*
X0Y78600D01*
X0Y78700D01*
X0Y78800D01*
X0Y78900D01*
X0Y79000D01*
X0Y79100D01*
X0Y79200D01*
X0Y79300D01*
X0Y79400D01*
X0Y79500D01*
X0Y79600D01*
X0Y79700D01*
X0Y79800D01*
X0Y79900D01*
X0Y80000D01*
X0Y80100D01*
X0Y80200D01*
X0Y80300D01*
X0Y80400D01*
X0Y80500D01*
X0Y80600D01*
X0Y80700D01*
X0Y80800D01*
X0Y80900D01*
X0Y81000D01*
X0Y81100D01*
X0Y81200D01*
X0Y81300D01*
X0Y81400D01*
X0Y81500D01*
X0Y81600D01*
X0Y81700D01*
X0Y81800D01*
X0Y81900D01*
X0Y82000D01*
X0Y82100D01*
X0Y82200D01*
X0Y82300D01*
X0Y82400D01*
X0Y82500D01*
X0Y82600D01*
X0Y82700D01*
X0Y82800D01*
X0Y82900D01*
X0Y83000D01*
X0Y83100D01*
X0Y83200D01*
X0Y83300D01*
X0Y83400D01*
X0Y83500D01*
X0Y83600D01*
X0Y83700D01*
X0Y83800D01*
X0Y83900D01*
X0Y84000D01*
X0Y84100D01*
X0Y84200D01*
X0Y84300D01*
X0Y84400D01*
X0Y84500D01*
X0Y84600D01*
X0Y84700D01*
X0Y84800D01*
X0Y84900D01*
X0Y85000D01*
X0Y85100D01*
X0Y85200D01*
X0Y85300D01*
X0Y85400D01*
X0Y85500D01*
X0Y85600D01*
X0Y85700D01*
X0Y85800D01*
X0Y85900D01*
X0Y86000D01*
X0Y86100D01*
X0Y86200D01*
X0Y86300D01*
X0Y86400D01*
X0Y86500D01*
X0Y86600D01*
X0Y86700D01*
X0Y86800D01*
X0Y86900D01*
X0Y87000D01*
X0Y87100D01*
X0Y87200D01*
X0Y87300D01*
X0Y87400D01*
X0Y87500D01*
X0Y87600D01*
X0Y87700D01*
X0Y87800D01*
X0Y87900D01*
X0Y88000D01*
X0Y88100D01*
X0Y88200D01*
X0Y88300D01*
X0Y88400D01*
X0Y88500D01*
X0Y88600D01*
X0Y88700D01*
X0Y88800D01*
X0Y88900D01*
X0Y89000D01*
X0Y89100D01*
X0Y89200D01*
X0Y89300D01*
X0Y89400D01*
X0Y89500D01*
X0Y89600D01*
X0Y89700D01*
X0Y89800D01*
X0Y89900D01*
X0Y90000D01*
X0Y90100D01*
X0Y90200D01*
X0Y90300D01*
X0Y90400D01*
X0Y90500D01*
X0Y90600D01*
X0Y90700D01*
X0Y90800D01*
X0Y90900D01*
X0Y91000D01*
X0Y91100D01*
X0Y91200D01*
X0Y91300D01*
X0Y91400D01*
X0Y91500D01*
X0Y91600D01*
X0Y91700D01*
X0Y91800D01*
X0Y91900D01*
X0Y92000D01*
X0Y92100D01*
X0Y92200D01*
X0Y92300D01*
X0Y92400D01*
X0Y92500D01*
X0Y92600D01*
X0Y92700D01*
X0Y92800D01*
X0Y92900D01*
X0Y93000D01*
X0Y93100D01*
X0Y93200D01*
X0Y93300D01*
X0Y93400D01*
X0Y93500D01*
X0Y93600D01*
X0Y93700D01*
X0Y93800D01*
X0Y93900D01*
X0Y94000D01*
X0Y94100D01*
X0Y94200D01*
X0Y94300D01*
X0Y94400D01*
X0Y94500D01*
X0Y94600D01*
X0Y94700D01*
X0Y94800D01*
X0Y94900D01*
X0Y95000D01*
X0Y95100D01*
X0Y95200D01*
X0Y95300D01*
X0Y95400D01*
X0Y95500D01*
X0Y95600D01*
X0Y95700D01*
X0Y95800D01*
X0Y95900D01*
X0Y96000D01*
X0Y96100D01*
X0Y96200D01*
X0Y96300D01*
X0Y96400D01*
X0Y96500D01*
X0Y96600D01*
X0Y96700D01*
X0Y96800D01*
X0Y96900D01*
X0Y97000D01*
X0Y97100D01*
X0Y97200D01*
X0Y97300D01*
X0Y97400D01*
X0Y97500D01*
X0Y97600D01*
X0Y97700D01*
X0Y97800D01*
X0Y97900D01*
X0Y98000D01*
X0Y98100D01*
X0Y98200D01*
X0Y98300D01*
X0Y98400D01*
X0Y98500D01*
X0Y98600D01*
X0Y98700D01*
X0Y98800D01*
X0Y98900D01*
X0Y99000D01*
X0Y99100D01*
X0Y99200D01*
X0Y99300D01*
X0Y99400D01*
X0Y99500D01*
X0Y99600D01*
X0Y99700D01*
X0Y99800D01*
X0Y99900D01*
X0Y100000D01*
X0Y100100D01*
X0Y100200D01*
X0Y100300D01*
X0Y100400D01*
X0Y100500D01*
X0Y100600D01*
X0Y100700D01*
X0Y100800D01*
X0Y100900D01*
X0Y101000D01*
X0Y101100D01*
X0Y101200D01*
X0Y101300D01*
X0Y101400D01*
X0Y101500D01*
X0Y101600D01*
X100Y101600D01*
X200Y101600D01*
X300Y101600D01*
X400Y101600D01*
X500Y101600D01*
X600Y101600D01*
X700Y101600D01*
X800Y101600D01*
X900Y101600D01*
X1000Y101600D01*
X1100Y101600D01*
X1200Y101600D01*
X1300Y101600D01*
X1400Y101600D01*
X1500Y101600D01*
X1600Y101600D01*
X1700Y101600D01*
X1800Y101600D01*
X1900Y101600D01*
X2000Y101600D01*
X2100Y101600D01*
X2200Y101600D01*
X2300Y101600D01*
X2400Y101600D01*
X2500Y101600D01*
X2600Y101600D01*
X2700Y101600D01*
X2800Y101600D01*
X2900Y101600D01*
X3000Y101600D01*
X3100Y101600D01*
X3200Y101600D01*
X3300Y101600D01*
X3400Y101600D01*
X3500Y101600D01*
X3600Y101600D01*
X3700Y101600D01*
X3800Y101600D01*
X3900Y101600D01*
X4000Y101600D01*
X4100Y101600D01*
X4200Y101600D01*
X4300Y101600D01*
X4400Y101600D01*
X4500Y101600D01*
X4600Y101600D01*
X4700Y101600D01*
X4800Y101600D01*
X4900Y101600D01*
X5000Y101600D01*
X5100Y101600D01*
X5200Y101600D01*
X5300Y101600D01*
X5400Y101600D01*
X5500Y101600D01*
X5600Y101600D01*
X5700Y101600D01*
X5800Y101600D01*
X5900Y101600D01*
X6000Y101600D01*
X6100Y101600D01*
X6200Y101600D01*
X6300Y101600D01*
X6400Y101600D01*
X6500Y101600D01*
X6600Y101600D01*
X6700Y101600D01*
X6800Y101600D01*
X6900Y101600D01*
X7000Y101600D01*
X7100Y101600D01*
X7200Y101600D01*
X7300Y101600D01*
X7400Y101600D01*
X7500Y101600D01*
X7600Y101600D01*
X7700Y101600D01*
X7800Y101600D01*
X7900Y101600D01*
X8000Y101600D01*
X8100Y101600D01*
X8200Y101600D01*
X8300Y101600D01*
X8400Y101600D01*
X8500Y101600D01*
X8600Y101600D01*
X8700Y101600D01*
X8800Y101600D01*
X8900Y101600D01*
X9000Y101600D01*
X9100Y101600D01*
X9200Y101600D01*
X9300Y101600D01*
X9400Y101600D01*
X9500Y101600D01*
X9600Y101600D01*
X9700Y101600D01*
X9800Y101600D01*
X9900Y101600D01*
X10000Y101600D01*
X10100Y101600D01*
X10200Y101600D01*
X10300Y101600D01*
X10400Y101600D01*
X10500Y101600D01*
X10600Y101600D01*
X10700Y101600D01*
X10800Y101600D01*
X10900Y101600D01*
X11000Y101600D01*
X11100Y101600D01*
X11200Y101600D01*
X11300Y101600D01*
X11400Y101600D01*
X11500Y101600D01*
X11600Y101600D01*
X11700Y101600D01*
X11800Y101600D01*
X11900Y101600D01*
X12000Y101600D01*
X12100Y101600D01*
X12200Y101600D01*
X12300Y101600D01*
X12400Y101600D01*
X12500Y101600D01*
X12600Y101600D01*
X12700Y101600D01*
X12800Y101600D01*
X12900Y101600D01*
X13000Y101600D01*
X13100Y101600D01*
X13200Y101600D01*
X13300Y101600D01*
X13400Y101600D01*
X13500Y101600D01*
X13600Y101600D01*
X13700Y101600D01*
X13800Y101600D01*
X13900Y101600D01*
X14000Y101600D01*
X14100Y101600D01*
X14200Y101600D01*
X14300Y101600D01*
X14400Y101600D01*
X14500Y101600D01*
X14600Y101600D01*
X14700Y101600D01*
X14800Y101600D01*
X14900Y101600D01*
X15000Y101600D01*
X15100Y101600D01*
X15200Y101600D01*
X15300Y101600D01*
X15400Y101600D01*
X15500Y101600D01*
X15600Y101600D01*
X15700Y101600D01*
X15800Y101600D01*
X15900Y101600D01*
X16000Y101600D01*
X16100Y101600D01*
X16200Y101600D01*
X16300Y101600D01*
X16400Y101600D01*
X16500Y101600D01*
X16600Y101600D01*
X16700Y101600D01*
X16800Y101600D01*
X16900Y101600D01*
X17000Y101600D01*
X17100Y101600D01*
X17200Y101600D01*
X17300Y101600D01*
X17400Y101600D01*
X17500Y101600D01*
X17600Y101600D01*
X17700Y101600D01*
X17800Y101600D01*
X17900Y101600D01*
X18000Y101600D01*
X18100Y101600D01*
X18200Y101600D01*
X18300Y101600D01*
X18400Y101600D01*
X18500Y101600D01*
X18600Y101600D01*
X18700Y101600D01*
X18800Y101600D01*
X18900Y101600D01*
X19000Y101600D01*
X19100Y101600D01*
X19200Y101600D01*
X19300Y101600D01*
X19400Y101600D01*
X19500Y101600D01*
X19600Y101600D01*
X19700Y101600D01*
X19800Y101600D01*
X19900Y101600D01*
X20000Y101600D01*
X20100Y101600D01*
X20200Y101600D01*
X20300Y101600D01*
X20400Y101600D01*
X20500Y101600D01*
X20600Y101600D01*
X20700Y101600D01*
X20800Y101600D01*
X20900Y101600D01*
X21000Y101600D01*
X21100Y101600D01*
X21200Y101600D01*
X21300Y101600D01*
X21400Y101600D01*
X21500Y101600D01*
X21600Y101600D01*
X21700Y101600D01*
X21800Y101600D01*
X21900Y101600D01*
X22000Y101600D01*
X22100Y101600D01*
X22200Y101600D01*
X22300Y101600D01*
X22400Y101600D01*
X22500Y101600D01*
X22600Y101600D01*
X22700Y101600D01*
X22800Y101600D01*
X22900Y101600D01*
X23000Y101600D01*
X23100Y101600D01*
X23200Y101600D01*
X23300Y101600D01*
X23400Y101600D01*
X23500Y101600D01*
X23600Y101600D01*
X23700Y101600D01*
X23800Y101600D01*
X23900Y101600D01*
X24000Y101600D01*
X24100Y101600D01*
X24200Y101600D01*
X24300Y101600D01*
X24400Y101600D01*
X24500Y101600D01*
X24600Y101600D01*
X24700Y101600D01*
X24800Y101600D01*
X24900Y101600D01*
X25000Y101600D01*
X25100Y101600D01*
X25200Y101600D01*
X25300Y101600D01*
X25400Y101600D01*
X25400Y101500D01*
X25400Y101400D01*
X25400Y101300D01*
X25400Y101200D01*
X25400Y101100D01*
X25400Y101000D01*
X25400Y100900D01*
X25400Y100800D01*
X25400Y100700D01*
X25400Y100600D01*
X25400Y100500D01*
X25400Y100400D01*
X25400Y100300D01*
X25400Y100200D01*
X25400Y100100D01*
X25400Y100000D01*
X25400Y99900D01*
X25400Y99800D01*
X25400Y99700D01*
X25400Y99600D01*
X25400Y99500D01*
X25400Y99400D01*
X25400Y99300D01*
X25400Y99200D01*
X25400Y99100D01*
X25400Y99000D01*
X25400Y98900D01*
X25400Y98800D01*
X25400Y98700D01*
X25400Y98600D01*
X25400Y98500D01*
X25400Y98400D01*
X25400Y98300D01*
X25400Y98200D01*
X25400Y98100D01*
X25400Y98000D01*
X25400Y97900D01*
X25400Y97800D01*
X25400Y97700D01*
X25400Y97600D01*
X25400Y97500D01*
X25400Y97400D01*
X25400Y97300D01*
X25400Y97200D01*
X25400Y97100D01*
X25400Y97000D01*
X25400Y96900D01*
X25400Y96800D01*
X25400Y96700D01*
X25400Y96600D01*
X25400Y96500D01*
X25400Y96400D01*
X25400Y96300D01*
X25400Y96200D01*
X25400Y96100D01*
X25400Y96000D01*
X25400Y95900D01*
X25400Y95800D01*
X25400Y95700D01*
X25400Y95600D01*
X25400Y95500D01*
X25400Y95400D01*
X25400Y95300D01*
X25400Y95200D01*
X25400Y95100D01*
X25400Y95000D01*
X25400Y94900D01*
X25400Y94800D01*
X25400Y94700D01*
X25400Y94600D01*
X25400Y94500D01*
X25400Y94400D01*
X25400Y94300D01*
X25400Y94200D01*
X25400Y94100D01*
X25400Y94000D01*
X25400Y93900D01*
X25400Y93800D01*
X25400Y93700D01*
X25400Y93600D01*
X25400Y93500D01*
X25400Y93400D01*
X25400Y93300D01*
X25400Y93200D01*
X25400Y93100D01*
X25400Y93000D01*
X25400Y92900D01*
X25400Y92800D01*
X25400Y92700D01*
X25400Y92600D01*
X25400Y92500D01*
X25400Y92400D01*
X25400Y92300D01*
X25400Y92200D01*
X25400Y92100D01*
X25400Y92000D01*
X25400Y91900D01*
X25400Y91800D01*
X25400Y91700D01*
X25400Y91600D01*
X25400Y91500D01*
X25400Y91400D01*
X25400Y91300D01*
X25400Y91200D01*
X25400Y91100D01*
X25400Y91000D01*
X25400Y90900D01*
X25400Y90800D01*
X25400Y90700D01*
X25400Y90600D01*
X25400Y90500D01*
X25400Y90400D01*
X25400Y90300D01*
X25400Y90200D01*
X25400Y90100D01*
X25400Y90000D01*
X25400Y89900D01*
X25400Y89800D01*
X25400Y89700D01*
X25400Y89600D01*
X25400Y89500D01*
X25400Y89400D01*
X25400Y89300D01*
X25400Y89200D01*
X25400Y89100D01*
X25400Y89000D01*
X25400Y88900D01*
X25400Y88800D01*
X25400Y88700D01*
X25400Y88600D01*
X25400Y88500D01*
X25400Y88400D01*
X25400Y88300D01*
X25400Y88200D01*
X25400Y88100D01*
X25400Y88000D01*
X25400Y87900D01*
X25400Y87800D01*
X25400Y87700D01*
X25400Y87600D01*
X25400Y87500D01*
X25400Y87400D01*
X25400Y87300D01*
X25400Y87200D01*
X25400Y87100D01*
X25400Y87000D01*
X25400Y86900D01*
X25400Y86800D01*
X25400Y86700D01*
X25400Y86600D01*
X25400Y86500D01*
X25400Y86400D01*
X25400Y86300D01*
X25400Y86200D01*
X25400Y86100D01*
X25400Y86000D01*
X25400Y85900D01*
X25400Y85800D01*
X25400Y85700D01*
X25400Y85600D01*
X25400Y85500D01*
X25400Y85400D01*
X25400Y85300D01*
X25400Y85200D01*
X25400Y85100D01*
X25400Y85000D01*
X25400Y84900D01*
X25400Y84800D01*
X25400Y84700D01*
X25400Y84600D01*
X25400Y84500D01*
X25400Y84400D01*
X25400Y84300D01*
X25400Y84200D01*
X25400Y84100D01*
X25400Y84000D01*
X25400Y83900D01*
X25400Y83800D01*
X25400Y83700D01*
X25400Y83600D01*
X25400Y83500D01*
X25400Y83400D01*
X25400Y83300D01*
X25400Y83200D01*
X25400Y83100D01*
X25400Y83000D01*
X25400Y82900D01*
X25400Y82800D01*
X25400Y82700D01*
X25400Y82600D01*
X25400Y82500D01*
X25400Y82400D01*
X25400Y82300D01*
X25400Y82200D01*
X25400Y82100D01*
X25400Y82000D01*
X25400Y81900D01*
X25400Y81800D01*
X25400Y81700D01*
X25400Y81600D01*
X25400Y81500D01*
X25400Y81400D01*
X25400Y81300D01*
X25400Y81200D01*
X25400Y81100D01*
X25400Y81000D01*
X25400Y80900D01*
X25400Y80800D01*
X25400Y80700D01*
X25400Y80600D01*
X25400Y80500D01*
X25400Y80400D01*
X25400Y80300D01*
X25400Y80200D01*
X25400Y80100D01*
X25400Y80000D01*
X25400Y79900D01*
X25400Y79800D01*
X25400Y79700D01*
X25400Y79600D01*
X25400Y79500D01*
X25400Y79400D01*
X25400Y79300D01*
X25400Y79200D01*
X25400Y79100D01*
X25400Y79000D01*
X25400Y78900D01*
X25400Y78800D01*
X25400Y78700D01*
X25400Y78600D01*
X25400Y78500D01*
X25400Y78400D01*
X25400Y78300D01*
X25400Y78200D01*
X25400Y78100D01*
X25400Y78000D01*
X25400Y77900D01*
X25400Y77800D01*
X25400Y77700D01*
X25400Y77600D01*
X25400Y77500D01*
X25400Y77400D01*
X25400Y77300D01*
X25400Y77200D01*
X25400Y77100D01*
X25400Y77000D01*
X25400Y76900D01*
X25400Y76800D01*
X25400Y76700D01*
X25400Y76600D01*
X25400Y76500D01*
X25400Y76400D01*
X25400Y76300D01*
X25400Y76200D01*
X25400Y76100D01*
X25400Y76000D01*
X25400Y75900D01*
X25400Y75800D01*
X25400Y75700D01*
X25400Y75600D01*
X25400Y75500D01*
X25400Y75400D01*
X25400Y75300D01*
X25400Y75200D01*
X25400Y75100D01*
X25400Y75000D01*
X25400Y74900D01*
X25400Y74800D01*
X25400Y74700D01*
X25400Y74600D01*
X25400Y74500D01*
X25400Y74400D01*
X25400Y74300D01*
X25400Y74200D01*
X25400Y74100D01*
X25400Y74000D01*
X25400Y73900D01*
X25400Y73800D01*
X25400Y73700D01*
X25400Y73600D01*
X25400Y73500D01*
X25400Y73400D01*
X25400Y73300D01*
X25400Y73200D01*
X25400Y73100D01*
X25400Y73000D01*
X25400Y72900D01*
X25400Y72800D01*
X25400Y72700D01*
X25400Y72600D01*
X25400Y72500D01*
X25400Y72400D01*
X25400Y72300D01*
X25400Y72200D01*
X25400Y72100D01*
X25400Y72000D01*
X25400Y71900D01*
X25400Y71800D01*
X25400Y71700D01*
X25400Y71600D01*
X25400Y71500D01*
X25400Y71400D01*
X25400Y71300D01*
X25400Y71200D01*
X25400Y71100D01*
X25400Y71000D01*
X25400Y70900D01*
X25400Y70800D01*
X25400Y70700D01*
X25400Y70600D01*
X25400Y70500D01*
X25400Y70400D01*
X25400Y70300D01*
X25400Y70200D01*
X25400Y70100D01*
X25400Y70000D01*
X25400Y69900D01*
X25400Y69800D01*
X25400Y69700D01*
X25400Y69600D01*
X25400Y69500D01*
X25400Y69400D01*
X25400Y69300D01*
X25400Y69200D01*
X25400Y69100D01*
X25400Y69000D01*
X25400Y68900D01*
X25400Y68800D01*
X25400Y68700D01*
X25400Y68600D01*
X25400Y68500D01*
X25400Y68400D01*
X25400Y68300D01*
X25400Y68200D01*
X25400Y68100D01*
X25400Y68000D01*
X25400Y67900D01*
X25400Y67800D01*
X25400Y67700D01*
X25400Y67600D01*
X25400Y67500D01*
X25400Y67400D01*
X25400Y67300D01*
X25400Y67200D01*
X25400Y67100D01*
X25400Y67000D01*
X25400Y66900D01*
X25400Y66800D01*
X25400Y66700D01*
X25400Y66600D01*
X25400Y66500D01*
X25400Y66400D01*
X25400Y66300D01*
X25400Y66200D01*
X25400Y66100D01*
X25400Y66000D01*
X25400Y65900D01*
X25400Y65800D01*
X25400Y65700D01*
X25400Y65600D01*
X25400Y65500D01*
X25400Y65400D01*
X25400Y65300D01*
X25400Y65200D01*
X25400Y65100D01*
X25400Y65000D01*
X25400Y64900D01*
X25400Y64800D01*
X25400Y64700D01*
X25400Y64600D01*
X25400Y64500D01*
X25400Y64400D01*
X25400Y64300D01*
X25400Y64200D01*
X25400Y64100D01*
X25400Y64000D01*
X25400Y63900D01*
X25400Y63800D01*
X25400Y63700D01*
X25400Y63600D01*
X25400Y63500D01*
X25400Y63400D01*
X25400Y63300D01*
X25400Y63200D01*
X25400Y63100D01*
X25400Y63000D01*
X25400Y62900D01*
X25400Y62800D01*
X25400Y62700D01*
X25400Y62600D01*
X25400Y62500D01*
X25400Y62400D01*
X25400Y62300D01*
X25400Y62200D01*
X25400Y62100D01*
X25400Y62000D01*
X25400Y61900D01*
X25400Y61800D01*
X25400Y61700D01*
X25400Y61600D01*
X25400Y61500D01*
X25400Y61400D01*
X25400Y61300D01*
X25400Y61200D01*
X25400Y61100D01*
X25400Y61000D01*
X25400Y60900D01*
X25400Y60800D01*
X25400Y60700D01*
X25400Y60600D01*
X25400Y60500D01*
X25400Y60400D01*
X25400Y60300D01*
X25400Y60200D01*
X25400Y60100D01*
X25400Y60000D01*
X25400Y59900D01*
X25400Y59800D01*
X25400Y59700D01*
X25400Y59600D01*
X25400Y59500D01*
X25400Y59400D01*
X25400Y59300D01*
X25400Y59200D01*
X25400Y59100D01*
X25400Y59000D01*
X25400Y58900D01*
X25400Y58800D01*
X25400Y58700D01*
X25400Y58600D01*
X25400Y58500D01*
X25400Y58400D01*
X25400Y58300D01*
X25400Y58200D01*
X25400Y58100D01*
X25400Y58000D01*
X25400Y57900D01*
X25400Y57800D01*
X25400Y57700D01*
X25400Y57600D01*
X25400Y57500D01*
X25400Y57400D01*
X25400Y57300D01*
X25400Y57200D01*
X25400Y57100D01*
X25400Y57000D01*
X25400Y56900D01*
X25400Y56800D01*
X25400Y56700D01*
X25400Y56600D01*
X25400Y56500D01*
X25400Y56400D01*
X25400Y56300D01*
X25400Y56200D01*
X25400Y56100D01*
X25400Y56000D01*
X25400Y55900D01*
X25400Y55800D01*
X25400Y55700D01*
X25400Y55600D01*
X25400Y55500D01*
X25400Y55400D01*
X25400Y55300D01*
X25400Y55200D01*
X25400Y55100D01*
X25400Y55000D01*
X25400Y54900D01*
X25400Y54800D01*
X25400Y54700D01*
X25400Y54600D01*
X25400Y54500D01*
X25400Y54400D01*
X25400Y54300D01*
X25400Y54200D01*
X25400Y54100D01*
X25400Y54000D01*
X25400Y53900D01*
X25400Y53800D01*
X25400Y53700D01*
X25400Y53600D01*
X25400Y53500D01*
X25400Y53400D01*
X25400Y53300D01*
X25400Y53200D01*
X25400Y53100D01*
X25400Y53000D01*
X25400Y52900D01*
X25400Y52800D01*
X25400Y52700D01*
X25400Y52600D01*
X25400Y52500D01*
X25400Y52400D01*
X25400Y52300D01*
X25400Y52200D01*
X25400Y52100D01*
X25400Y52000D01*
X25400Y51900D01*
X25400Y51800D01*
X25400Y51700D01*
X25400Y51600D01*
X25400Y51500D01*
X25400Y51400D01*
X25400Y51300D01*
X25400Y51200D01*
X25400Y51100D01*
X25400Y51000D01*
X25400Y50900D01*
X25400Y50800D01*
X25400Y50700D01*
X25400Y50600D01*
X25400Y50500D01*
X25400Y50400D01*
X25400Y50300D01*
X25400Y50200D01*
X25400Y50100D01*
X25400Y50000D01*
X25400Y49900D01*
X25400Y49800D01*
X25400Y49700D01*
X25400Y49600D01*
X25400Y49500D01*
X25400Y49400D01*
X25400Y49300D01*
X25400Y49200D01*
X25400Y49100D01*
X25400Y49000D01*
X25400Y48900D01*
X25400Y48800D01*
X25400Y48700D01*
X25400Y48600D01*
X25400Y48500D01*
X25400Y48400D01*
X25400Y48300D01*
X25400Y48200D01*
X25400Y48100D01*
X25400Y48000D01*
X25400Y47900D01*
X25400Y47800D01*
X25400Y47700D01*
X25400Y47600D01*
X25400Y47500D01*
X25400Y47400D01*
X25400Y47300D01*
X25400Y47200D01*
X25400Y47100D01*
X25400Y47000D01*
X25400Y46900D01*
X25400Y46800D01*
X25400Y46700D01*
X25400Y46600D01*
X25400Y46500D01*
X25400Y46400D01*
X25400Y46300D01*
X25400Y46200D01*
X25400Y46100D01*
X25400Y46000D01*
X25400Y45900D01*
X25400Y45800D01*
X25400Y45700D01*
X25400Y45600D01*
X25400Y45500D01*
X25400Y45400D01*
X25400Y45300D01*
X25400Y45200D01*
X25400Y45100D01*
X25400Y45000D01*
X25400Y44900D01*
X25400Y44800D01*
X25400Y44700D01*
X25400Y44600D01*
X25400Y44500D01*
X25400Y44400D01*
X25400Y44300D01*
X25400Y44200D01*
X25400Y44100D01*
X25400Y44000D01*
X25400Y43900D01*
X25400Y43800D01*
X25400Y43700D01*
X25400Y43600D01*
X25400Y43500D01*
X25400Y43400D01*
X25400Y43300D01*
X25400Y43200D01*
X25400Y43100D01*
X25400Y43000D01*
X25400Y42900D01*
X25400Y42800D01*
X25400Y42700D01*
X25400Y42600D01*
X25400Y42500D01*
X25400Y42400D01*
X25400Y42300D01*
X25400Y42200D01*
X25400Y42100D01*
X25400Y42000D01*
X25400Y41900D01*
X25400Y41800D01*
X25400Y41700D01*
X25400Y41600D01*
X25400Y41500D01*
X25400Y41400D01*
X25400Y41300D01*
X25400Y41200D01*
X25400Y41100D01*
X25400Y41000D01*
X25400Y40900D01*
X25400Y40800D01*
X25400Y40700D01*
X25400Y40600D01*
X25400Y40500D01*
X25400Y40400D01*
X25400Y40300D01*
X25400Y40200D01*
X25400Y40100D01*
X25400Y40000D01*
X25400Y39900D01*
X25400Y39800D01*
X25400Y39700D01*
X25400Y39600D01*
X25400Y39500D01*
X25400Y39400D01*
X25400Y39300D01*
X25400Y39200D01*
X25400Y39100D01*
X25400Y39000D01*
X25400Y38900D01*
X25400Y38800D01*
X25400Y38700D01*
X25400Y38600D01*
X25400Y38500D01*
X25400Y38400D01*
X25400Y38300D01*
X25400Y38200D01*
X25400Y38100D01*
X25400Y38000D01*
X25400Y37900D01*
X25400Y37800D01*
X25400Y37700D01*
X25400Y37600D01*
X25400Y37500D01*
X25400Y37400D01*
X25400Y37300D01*
X25400Y37200D01*
X25400Y37100D01*
X25400Y37000D01*
X25400Y36900D01*
X25400Y36800D01*
X25400Y36700D01*
X25400Y36600D01*
X25400Y36500D01*
X25400Y36400D01*
X25400Y36300D01*
X25400Y36200D01*
X25400Y36100D01*
X25400Y36000D01*
X25400Y35900D01*
X25400Y35800D01*
X25400Y35700D01*
X25400Y35600D01*
X25400Y35500D01*
X25400Y35400D01*
X25400Y35300D01*
X25400Y35200D01*
X25400Y35100D01*
X25400Y35000D01*
X25400Y34900D01*
X25400Y34800D01*
X25400Y34700D01*
X25400Y34600D01*
X25400Y34500D01*
X25400Y34400D01*
X25400Y34300D01*
X25400Y34200D01*
X25400Y34100D01*
X25400Y34000D01*
X25400Y33900D01*
X25400Y33800D01*
X25400Y33700D01*
X25400Y33600D01*
X25400Y33500D01*
X25400Y33400D01*
X25400Y33300D01*
X25400Y33200D01*
X25400Y33100D01*
X25400Y33000D01*
X25400Y32900D01*
X25400Y32800D01*
X25400Y32700D01*
X25400Y32600D01*
X25400Y32500D01*
X25400Y32400D01*
X25400Y32300D01*
X25400Y32200D01*
X25400Y32100D01*
X25400Y32000D01*
X25400Y31900D01*
X25400Y31800D01*
X25400Y31700D01*
X25400Y31600D01*
X25400Y31500D01*
X25400Y31400D01*
X25400Y31300D01*
X25400Y31200D01*
X25400Y31100D01*
X25400Y31000D01*
X25400Y30900D01*
X25400Y30800D01*
X25400Y30700D01*
X25400Y30600D01*
X25400Y30500D01*
X25400Y30400D01*
X25400Y30300D01*
X25400Y30200D01*
X25400Y30100D01*
X25400Y30000D01*
X25400Y29900D01*
X25400Y29800D01*
X25400Y29700D01*
X25400Y29600D01*
X25400Y29500D01*
X25400Y29400D01*
X25400Y29300D01*
X25400Y29200D01*
X25400Y29100D01*
X25400Y29000D01*
X25400Y28900D01*
X25400Y28800D01*
X25400Y28700D01*
X25400Y28600D01*
X25400Y28500D01*
X25400Y28400D01*
X25400Y28300D01*
X25400Y28200D01*
X25400Y28100D01*
X25400Y28000D01*
X25400Y27900D01*
X25400Y27800D01*
X25400Y27700D01*
X25400Y27600D01*
X25400Y27500D01*
X25400Y27400D01*
X25400Y27300D01*
X25400Y27200D01*
X25400Y27100D01*
X25400Y27000D01*
X25400Y26900D01*
X25400Y26800D01*
X25400Y26700D01*
X25400Y26600D01*
X25400Y26500D01*
X25400Y26400D01*
X25400Y26300D01*
X25400Y26200D01*
X25400Y26100D01*
X25400Y26000D01*
X25400Y25900D01*
X25400Y25800D01*
X25400Y25700D01*
X25400Y25600D01*
X25400Y25500D01*
X25400Y25400D01*
X25400Y25300D01*
X25400Y25200D01*
X25400Y25100D01*
X25400Y25000D01*
X25400Y24900D01*
X25400Y24800D01*
X25400Y24700D01*
X25400Y24600D01*
X25400Y24500D01*
X25400Y24400D01*
X25400Y24300D01*
X25400Y24200D01*
X25400Y24100D01*
X25400Y24000D01*
X25400Y23900D01*
X25400Y23800D01*
X25400Y23700D01*
X25400Y23600D01*
X25400Y23500D01*
X25400Y23400D01*
X25400Y23300D01*
X25400Y23200D01*
X25400Y23100D01*
X25400Y23000D01*
X25400Y22900D01*
X25400Y22800D01*
X25400Y22700D01*
X25400Y22600D01*
X25400Y22500D01*
X25400Y22400D01*
X25400Y22300D01*
X25400Y22200D01*
X25400Y22100D01*
X25400Y22000D01*
X25400Y21900D01*
X25400Y21800D01*
X25400Y21700D01*
X25400Y21600D01*
X25400Y21500D01*
X25400Y21400D01*
X25400Y21300D01*
X25400Y21200D01*
X25400Y21100D01*
X25400Y21000D01*
X25400Y20900D01*
X25400Y20800D01*
X25400Y20700D01*
X25400Y20600D01*
X25400Y20500D01*
X25400Y20400D01*
X25400Y20300D01*
X25400Y20200D01*
X25400Y20100D01*
X25400Y20000D01*
X25400Y19900D01*
X25400Y19800D01*
X25400Y19700D01*
X25400Y19600D01*
X25400Y19500D01*
X25400Y19400D01*
X25400Y19300D01*
X25400Y19200D01*
X25400Y19100D01*
X25400Y19000D01*
X25400Y18900D01*
X25400Y18800D01*
X25400Y18700D01*
X25400Y18600D01*
X25400Y18500D01*
X25400Y18400D01*
X25400Y18300D01*
X25400Y18200D01*
X25400Y18100D01*
X25400Y18000D01*
X25400Y17900D01*
X25400Y17800D01*
X25400Y17700D01*
X25400Y17600D01*
X25400Y17500D01*
X25400Y17400D01*
X25400Y17300D01*
X25400Y17200D01*
X25400Y17100D01*
X25400Y17000D01*
X25400Y16900D01*
X25400Y16800D01*
X25400Y16700D01*
X25400Y16600D01*
X25400Y16500D01*
X25400Y16400D01*
X25400Y16300D01*
X25400Y16200D01*
X25400Y16100D01*
X25400Y16000D01*
X25400Y15900D01*
X25400Y15800D01*
X25400Y15700D01*
X25400Y15600D01*
X25400Y15500D01*
X25400Y15400D01*
X25400Y15300D01*
X25400Y15200D01*
X25400Y15100D01*
X25400Y15000D01*
X25400Y14900D01*
X25400Y14800D01*
X25400Y14700D01*
X25400Y14600D01*
X25400Y14500D01*
X25400Y14400D01*
X25400Y14300D01*
X25400Y14200D01*
X25400Y14100D01*
X25400Y14000D01*
X25400Y13900D01*
X25400Y13800D01*
X25400Y13700D01*
X25400Y13600D01*
X25400Y13500D01*
X25400Y13400D01*
X25400Y13300D01*
X25400Y13200D01*
X25400Y13100D01*
X25400Y13000D01*
X25400Y12900D01*
X25400Y12800D01*
X25400Y12700D01*
X25400Y12600D01*
X25400Y12500D01*
X25400Y12400D01*
X25400Y12300D01*
X25400Y12200D01*
X25400Y12100D01*
X25400Y12000D01*
X25400Y11900D01*
X25400Y11800D01*
X25400Y11700D01*
X25400Y11600D01*
X25400Y11500D01*
X25400Y11400D01*
X25400Y11300D01*
X25400Y11200D01*
X25400Y11100D01*
X25400Y11000D01*
X25400Y10900D01*
X25400Y10800D01*
X25400Y10700D01*
X25400Y10600D01*
X25400Y10500D01*
X25400Y10400D01*
X25400Y10300D01*
X25400Y10200D01*
X25400Y10100D01*
X25400Y10000D01*
X25400Y9900D01*
X25400Y9800D01*
X25400Y9700D01*
X25400Y9600D01*
X25400Y9500D01*
X25400Y9400D01*
X25400Y9300D01*
X25400Y9200D01*
X25400Y9100D01*
X25400Y9000D01*
X25400Y8900D01*
X25400Y8800D01*
X25400Y8700D01*
X25400Y8600D01*
X25400Y8500D01*
X25400Y8400D01*
X25400Y8300D01*
X25400Y8200D01*
X25400Y8100D01*
X25400Y8000D01*
X25400Y7900D01*
X25400Y7800D01*
X25400Y7700D01*
X25400Y7600D01*
X25400Y7500D01*
X25400Y7400D01*
X25400Y7300D01*
X25400Y7200D01*
X25400Y7100D01*
X25400Y7000D01*
X25400Y6900D01*
X25400Y6800D01*
X25400Y6700D01*
X25400Y6600D01*
X25400Y6500D01*
X25400Y6400D01*
X25400Y6300D01*
X25400Y6200D01*
X25400Y6100D01*
X25400Y6000D01*
X25400Y5900D01*
X25400Y5800D01*
X25400Y5700D01*
X25400Y5600D01*
X25400Y5500D01*
X25400Y5400D01*
X25400Y5300D01*
X25400Y5200D01*
X25400Y5100D01*
X25400Y5000D01*
X25400Y4900D01*
X25400Y4800D01*
X25400Y4700D01*
X25400Y4600D01*
X25400Y4500D01*
X25400Y4400D01*
X25400Y4300D01*
X25400Y4200D01*
X25400Y4100D01*
X25400Y4000D01*
X25400Y3900D01*
X25400Y3800D01*
X25400Y3700D01*
X25400Y3600D01*
X25400Y3500D01*
X25400Y3400D01*
X25400Y3300D01*
X25400Y3200D01*
X25400Y3100D01*
X25400Y3000D01*
X25400Y2900D01*
X25400Y2800D01*
X25400Y2700D01*
X25400Y2600D01*
X25400Y2500D01*
X25400Y2400D01*
X25400Y2300D01*
X25400Y2200D01*
X25400Y2100D01*
X25400Y2000D01*
X25400Y1900D01*
X25400Y1800D01*
X25400Y1700D01*
X25400Y1600D01*
X25400Y1500D01*
X25400Y1400D01*
X25400Y1300D01*
X25400Y1200D01*
X25400Y1100D01*
X25400Y1000D01*
X25400Y900D01*
X25400Y800D01*
X25400Y700D01*
X25400Y600D01*
X25400Y500D01*
X25400Y400D01*
X25400Y300D01*
X25400Y200D01*
X25400Y100D01*
X25400Y0D01*
X25300Y0D01*
X25200Y0D01*
X25100Y0D01*
X25000Y0D01*
X24900Y0D01*
X24800Y0D01*
X24700Y0D01*
X24600Y0D01*
X24500Y0D01*
X24400Y0D01*
X24300Y0D01*
X24200Y0D01*
X24100Y0D01*
X24000Y0D01*
X23900Y0D01*
X23800Y0D01*
X23700Y0D01*
X23600Y0D01*
X23500Y0D01*
X23400Y0D01*
X23300Y0D01*
X23200Y0D01*
X23100Y0D01*
X23000Y0D01*
X22900Y0D01*
X22800Y0D01*
X22700Y0D01*
X22600Y0D01*
X22500Y0D01*
X22400Y0D01*
X22300Y0D01*
X22200Y0D01*
X22100Y0D01*
X22000Y0D01*
X21900Y0D01*
X21800Y0D01*
X21700Y0D01*
X21600Y0D01*
X21500Y0D01*
X21400Y0D01*
X21300Y0D01*
X21200Y0D01*
X21100Y0D01*
X21000Y0D01*
X20900Y0D01*
X20800Y0D01*
X20700Y0D01*
X20600Y0D01*
X20500Y0D01*
X20400Y0D01*
X20300Y0D01*
X20200Y0D01*
X20100Y0D01*
X20000Y0D01*
X19900Y0D01*
X19800Y0D01*
X19700Y0D01*
X19600Y0D01*
X19500Y0D01*
X19400Y0D01*
X19300Y0D01*
X19200Y0D01*
X19100Y0D01*
X19000Y0D01*
X18900Y0D01*
X18800Y0D01*
X18700Y0D01*
X18600Y0D01*
X18500Y0D01*
X18400Y0D01*
X18300Y0D01*
X18200Y0D01*
X18100Y0D01*
X18000Y0D01*
X17900Y0D01*
X17800Y0D01*
X17700Y0D01*
X17600Y0D01*
X17500Y0D01*
X17400Y0D01*
X17300Y0D01*
X17200Y0D01*
X17100Y0D01*
X17000Y0D01*
X16900Y0D01*
X16800Y0D01*
X16700Y0D01*
X16600Y0D01*
X16500Y0D01*
X16400Y0D01*
X16300Y0D01*
X16200Y0D01*
X16100Y0D01*
X16000Y0D01*
X15900Y0D01*
X15800Y0D01*
X15700Y0D01*
X15600Y0D01*
X15500Y0D01*
X15400Y0D01*
X15300Y0D01*
X15200Y0D01*
X15100Y0D01*
X15000Y0D01*
X14900Y0D01*
X14800Y0D01*
X14700Y0D01*
X14600Y0D01*
X14500Y0D01*
X14400Y0D01*
X14300Y0D01*
X14200Y0D01*
X14100Y0D01*
X14000Y0D01*
X13900Y0D01*
X13800Y0D01*
X13700Y0D01*
X13600Y0D01*
X13500Y0D01*
X13400Y0D01*
X13300Y0D01*
X13200Y0D01*
X13100Y0D01*
X13000Y0D01*
X12900Y0D01*
X12800Y0D01*
X12700Y0D01*
X12600Y0D01*
X12500Y0D01*
X12400Y0D01*
X12300Y0D01*
X12200Y0D01*
X12100Y0D01*
X12000Y0D01*
X11900Y0D01*
X11800Y0D01*
X11700Y0D01*
X11600Y0D01*
X11500Y0D01*
X11400Y0D01*
X11300Y0D01*
X11200Y0D01*
X11100Y0D01*
X11000Y0D01*
X10900Y0D01*
X10800Y0D01*
X10700Y0D01*
X10600Y0D01*
X10500Y0D01*
X10400Y0D01*
X10300Y0D01*
X10200Y0D01*
X10100Y0D01*
X10000Y0D01*
X9900Y0D01*
X9800Y0D01*
X9700Y0D01*
X9600Y0D01*
X9500Y0D01*
X9400Y0D01*
X9300Y0D01*
X9200Y0D01*
X9100Y0D01*
X9000Y0D01*
X8900Y0D01*
X8800Y0D01*
X8700Y0D01*
X8600Y0D01*
X8500Y0D01*
X8400Y0D01*
X8300Y0D01*
X8200Y0D01*
X8100Y0D01*
X8000Y0D01*
X7900Y0D01*
X7800Y0D01*
X7700Y0D01*
X7600Y0D01*
X7500Y0D01*
X7400Y0D01*
X7300Y0D01*
X7200Y0D01*
X7100Y0D01*
X7000Y0D01*
X6900Y0D01*
X6800Y0D01*
X6700Y0D01*
X6600Y0D01*
X6500Y0D01*
X6400Y0D01*
X6300Y0D01*
X6200Y0D01*
X6100Y0D01*
X6000Y0D01*
X5900Y0D01*
X5800Y0D01*
X5700Y0D01*
X5600Y0D01*
X5500Y0D01*
X5400Y0D01*
X5300Y0D01*
X5200Y0D01*
X5100Y0D01*
X5000Y0D01*
X4900Y0D01*
X4800Y0D01*
X4700Y0D01*
X4600Y0D01*
X4500Y0D01*
X4400Y0D01*
X4300Y0D01*
X4200Y0D01*
X4100Y0D01*
X4000Y0D01*
X3900Y0D01*
X3800Y0D01*
X3700Y0D01*
X3600Y0D01*
X3500Y0D01*
X3400Y0D01*
X3300Y0D01*
X3200Y0D01*
X3100Y0D01*
X3000Y0D01*
X2900Y0D01*
X2800Y0D01*
X2700Y0D01*
X2600Y0D01*
X2500Y0D01*
X2400Y0D01*
X2300Y0D01*
X2200Y0D01*
X2100Y0D01*
X2000Y0D01*
X1900Y0D01*
X1800Y0D01*
X1700Y0D01*
X1600Y0D01*
X1500Y0D01*
X1400Y0D01*
X1300Y0D01*
X1200Y0D01*
X1100Y0D01*
X1000Y0D01*
X900Y0D01*
X800Y0D01*
X700Y0D01*
X600Y0D01*
X500Y0D01*
X400Y0D01*
X300Y0D01*
X200Y0D01*
X100Y0D01*
X0Y0D01*
X0Y0D01*
G36*
X16594Y89546D02*
X10090Y89546D01*
X11215Y90936D01*
X10371Y91440D01*
X8793Y89393D01*
X8793Y88317D01*
X16594Y88317D01*
X16594Y89546D01*
G37*
G36*
X16594Y85965D02*
X15635Y85965D01*
X12971Y83355D01*
X12588Y83017D01*
X12185Y82714D01*
X11979Y82583D01*
X11771Y82470D01*
X11560Y82376D01*
X11348Y82306D01*
X11134Y82261D01*
X10922Y82245D01*
X10772Y82254D01*
X10632Y82277D01*
X10501Y82315D01*
X10376Y82367D01*
X10263Y82432D01*
X10159Y82507D01*
X10063Y82596D01*
X9977Y82693D01*
X9901Y82799D01*
X9835Y82914D01*
X9777Y83035D01*
X9731Y83162D01*
X9695Y83297D01*
X9668Y83434D01*
X9651Y83576D01*
X9646Y83720D01*
X9657Y83979D01*
X9687Y84231D01*
X9767Y84598D01*
X9837Y84835D01*
X10017Y85300D01*
X10173Y85638D01*
X9167Y85695D01*
X8971Y85188D01*
X8817Y84663D01*
X8757Y84393D01*
X8712Y84121D01*
X8685Y83846D01*
X8676Y83567D01*
X8683Y83312D01*
X8705Y83063D01*
X8743Y82820D01*
X8797Y82587D01*
X8865Y82362D01*
X8952Y82148D01*
X9056Y81948D01*
X9176Y81761D01*
X9315Y81592D01*
X9472Y81439D01*
X9646Y81306D01*
X9840Y81194D01*
X10054Y81102D01*
X10288Y81038D01*
X10542Y80996D01*
X10815Y80982D01*
X11078Y80998D01*
X11334Y81047D01*
X11587Y81124D01*
X11836Y81226D01*
X12078Y81351D01*
X12318Y81495D01*
X12780Y81829D01*
X15648Y84468D01*
X15648Y80854D01*
X16594Y80854D01*
X16594Y85965D01*
X16594Y85965D01*
G37*
G36*
X15414Y78970D02*
X15499Y78740D01*
X15572Y78504D01*
X15680Y78017D01*
X15745Y77529D01*
X15765Y77063D01*
X15759Y76871D01*
X15743Y76684D01*
X15716Y76502D01*
X15678Y76328D01*
X15628Y76158D01*
X15567Y76000D01*
X15493Y75851D01*
X15407Y75712D01*
X15310Y75586D01*
X15198Y75473D01*
X15074Y75374D01*
X14935Y75289D01*
X14784Y75223D01*
X14619Y75174D01*
X14439Y75144D01*
X14245Y75133D01*
X14066Y75144D01*
X13903Y75174D01*
X13757Y75225D01*
X13626Y75291D01*
X13507Y75376D01*
X13403Y75475D01*
X13313Y75588D01*
X13233Y75712D01*
X13167Y75847D01*
X13109Y75993D01*
X13064Y76148D01*
X13028Y76308D01*
X13001Y76473D01*
X12973Y76819D01*
X12969Y78022D01*
X12091Y78022D01*
X12087Y76945D01*
X12055Y76567D01*
X12026Y76390D01*
X11987Y76223D01*
X11938Y76067D01*
X11877Y75923D01*
X11807Y75790D01*
X11722Y75669D01*
X11627Y75563D01*
X11519Y75471D01*
X11395Y75394D01*
X11260Y75331D01*
X11107Y75288D01*
X10941Y75259D01*
X10758Y75250D01*
X10598Y75261D01*
X10454Y75289D01*
X10321Y75336D01*
X10202Y75401D01*
X10096Y75478D01*
X10000Y75572D01*
X9918Y75678D01*
X9846Y75793D01*
X9785Y75921D01*
X9732Y76056D01*
X9689Y76198D01*
X9655Y76346D01*
X9630Y76498D01*
X9603Y76811D01*
X9606Y77184D01*
X9657Y77634D01*
X9752Y78094D01*
X9891Y78544D01*
X9973Y78760D01*
X9015Y78830D01*
X8869Y78334D01*
X8763Y77830D01*
X8698Y77315D01*
X8676Y76793D01*
X8700Y76281D01*
X8730Y76027D01*
X8773Y75781D01*
X8833Y75540D01*
X8907Y75307D01*
X8997Y75088D01*
X9103Y74883D01*
X9227Y74694D01*
X9369Y74521D01*
X9531Y74372D01*
X9713Y74242D01*
X9914Y74140D01*
X10137Y74062D01*
X10384Y74014D01*
X10652Y73998D01*
X10835Y74007D01*
X11008Y74028D01*
X11172Y74064D01*
X11328Y74115D01*
X11474Y74179D01*
X11612Y74255D01*
X11742Y74343D01*
X11863Y74442D01*
X11972Y74554D01*
X12075Y74674D01*
X12168Y74805D01*
X12253Y74946D01*
X12328Y75095D01*
X12395Y75252D01*
X12453Y75417D01*
X12501Y75590D01*
X12530Y75412D01*
X12573Y75239D01*
X12625Y75072D01*
X12690Y74912D01*
X12764Y74760D01*
X12850Y74617D01*
X12947Y74482D01*
X13054Y74357D01*
X13170Y74246D01*
X13296Y74145D01*
X13433Y74057D01*
X13581Y73983D01*
X13735Y73926D01*
X13899Y73883D01*
X14074Y73856D01*
X14255Y73847D01*
X14570Y73865D01*
X14862Y73917D01*
X15130Y74003D01*
X15376Y74118D01*
X15601Y74262D01*
X15803Y74431D01*
X15982Y74626D01*
X16143Y74840D01*
X16283Y75072D01*
X16402Y75322D01*
X16502Y75588D01*
X16583Y75865D01*
X16645Y76151D01*
X16690Y76446D01*
X16715Y76747D01*
X16715Y77443D01*
X16672Y77945D01*
X16589Y78432D01*
X16529Y78674D01*
X16420Y79041D01*
X15414Y78970D01*
X15414Y78970D01*
X15414Y78970D01*
G37*
G36*
X12118Y65337D02*
X11684Y65387D01*
X11281Y65472D01*
X10909Y65589D01*
X10569Y65738D01*
X10258Y65918D01*
X9977Y66128D01*
X9727Y66369D01*
X9507Y66641D01*
X9317Y66940D01*
X9155Y67267D01*
X9025Y67623D01*
X8923Y68005D01*
X8851Y68413D01*
X8808Y68849D01*
X8793Y71706D01*
X12555Y71706D01*
X12555Y70430D01*
X9740Y70430D01*
X9752Y69102D01*
X9788Y68789D01*
X9849Y68498D01*
X9932Y68226D01*
X10038Y67976D01*
X10168Y67748D01*
X10319Y67541D01*
X10490Y67355D01*
X10684Y67192D01*
X10896Y67050D01*
X11130Y66927D01*
X11384Y66828D01*
X11656Y66753D01*
X11947Y66697D01*
X12257Y66663D01*
X12582Y66652D01*
X12958Y66665D01*
X13309Y66704D01*
X13635Y66769D01*
X13935Y66859D01*
X14210Y66974D01*
X14462Y67114D01*
X14689Y67278D01*
X14892Y67465D01*
X15070Y67677D01*
X15223Y67911D01*
X15353Y68169D01*
X15459Y68449D01*
X15542Y68751D01*
X15601Y69075D01*
X15635Y69421D01*
X15648Y70430D01*
X12555Y70430D01*
X12555Y71706D01*
X16594Y71706D01*
X16580Y69185D01*
X16533Y68733D01*
X16457Y68302D01*
X16349Y67895D01*
X16211Y67512D01*
X16042Y67154D01*
X15840Y66825D01*
X15606Y66524D01*
X15342Y66253D01*
X15045Y66013D01*
X14716Y65806D01*
X14354Y65635D01*
X13960Y65499D01*
X13534Y65400D01*
X13075Y65339D01*
X12582Y65319D01*
X12118Y65337D01*
G37*
G36*
X9543Y62390D02*
X9450Y62404D01*
X9362Y62428D01*
X9275Y62458D01*
X9194Y62498D01*
X9117Y62545D01*
X9045Y62599D01*
X8979Y62660D01*
X8917Y62726D01*
X8863Y62798D01*
X8817Y62876D01*
X8779Y62958D01*
X8746Y63043D01*
X8723Y63133D01*
X8709Y63226D01*
X8705Y63322D01*
X8709Y63417D01*
X8723Y63511D01*
X8746Y63601D01*
X8779Y63687D01*
X8817Y63768D01*
X8863Y63845D01*
X8917Y63917D01*
X8979Y63984D01*
X9045Y64045D01*
X9117Y64099D01*
X9194Y64146D01*
X9275Y64185D01*
X9362Y64218D01*
X9450Y64239D01*
X9543Y64254D01*
X9639Y64259D01*
X9639Y64106D01*
X9558Y64103D01*
X9479Y64090D01*
X9403Y64072D01*
X9329Y64045D01*
X9261Y64013D01*
X9194Y63973D01*
X9133Y63928D01*
X9076Y63878D01*
X9024Y63822D01*
X8979Y63763D01*
X8937Y63698D01*
X8905Y63629D01*
X8876Y63556D01*
X8856Y63480D01*
X8845Y63403D01*
X8840Y63322D01*
X8845Y63241D01*
X8856Y63163D01*
X8878Y63088D01*
X8905Y63016D01*
X8939Y62948D01*
X8979Y62883D01*
X9025Y62822D01*
X9078Y62766D01*
X9133Y62715D01*
X9196Y62670D01*
X9261Y62633D01*
X9331Y62599D01*
X9405Y62573D01*
X9481Y62554D01*
X9558Y62543D01*
X9639Y62537D01*
X9720Y62543D01*
X9799Y62554D01*
X9875Y62573D01*
X9948Y62599D01*
X10018Y62633D01*
X10085Y62670D01*
X10146Y62715D01*
X10204Y62766D01*
X10256Y62822D01*
X10303Y62883D01*
X10344Y62948D01*
X10378Y63016D01*
X10405Y63088D01*
X10425Y63163D01*
X10438Y63241D01*
X10441Y63322D01*
X10441Y63363D01*
X10438Y63403D01*
X10425Y63480D01*
X10405Y63556D01*
X10378Y63629D01*
X10344Y63698D01*
X10303Y63763D01*
X10256Y63822D01*
X10206Y63878D01*
X10146Y63928D01*
X10083Y63973D01*
X10017Y64013D01*
X9946Y64045D01*
X9875Y64072D01*
X9797Y64090D01*
X9720Y64103D01*
X9639Y64106D01*
X9639Y64259D01*
X9711Y64256D01*
X9781Y64248D01*
X9851Y64236D01*
X9918Y64218D01*
X9982Y64194D01*
X10045Y64167D01*
X10107Y64135D01*
X10164Y64099D01*
X10218Y64059D01*
X10270Y64016D01*
X10319Y63969D01*
X10364Y63919D01*
X10405Y63865D01*
X10441Y63809D01*
X10475Y63750D01*
X10504Y63687D01*
X10537Y63601D01*
X10560Y63509D01*
X10574Y63417D01*
X10578Y63322D01*
X10573Y63226D01*
X10558Y63133D01*
X10537Y63043D01*
X10504Y62958D01*
X10465Y62876D01*
X10418Y62798D01*
X10364Y62726D01*
X10303Y62660D01*
X10236Y62599D01*
X10162Y62545D01*
X10085Y62498D01*
X10004Y62458D01*
X9918Y62428D01*
X9828Y62404D01*
X9734Y62390D01*
X9639Y62386D01*
X9543Y62390D01*
G37*
G36*
X9785Y63054D02*
X9758Y63068D01*
X9734Y63082D01*
X9713Y63099D01*
X9695Y63117D01*
X9678Y63138D01*
X9664Y63162D01*
X9653Y63190D01*
X9646Y63221D01*
X9633Y63169D01*
X9615Y63118D01*
X9590Y63072D01*
X9558Y63032D01*
X9522Y62998D01*
X9479Y62971D01*
X9432Y62955D01*
X9382Y62948D01*
X9310Y62957D01*
X9250Y62978D01*
X9202Y63012D01*
X9162Y63059D01*
X9131Y63113D01*
X9112Y63176D01*
X9099Y63244D01*
X9095Y63316D01*
X9095Y63647D01*
X9398Y63647D01*
X9398Y63507D01*
X9220Y63507D01*
X9221Y63333D01*
X9227Y63280D01*
X9234Y63232D01*
X9248Y63189D01*
X9270Y63151D01*
X9299Y63122D01*
X9337Y63104D01*
X9383Y63099D01*
X9434Y63104D01*
X9475Y63122D01*
X9507Y63151D01*
X9531Y63187D01*
X9549Y63230D01*
X9561Y63279D01*
X9567Y63329D01*
X9569Y63507D01*
X9398Y63507D01*
X9398Y63647D01*
X10188Y63647D01*
X10188Y63507D01*
X9695Y63507D01*
X9696Y63361D01*
X9702Y63322D01*
X9711Y63289D01*
X9725Y63261D01*
X9745Y63239D01*
X9770Y63217D01*
X9801Y63199D01*
X10188Y63021D01*
X10188Y62870D01*
X9785Y63054D01*
X9785Y63054D01*
G37*
G36*
X16384Y52225D02*
X16470Y52441D01*
X16540Y52669D01*
X16600Y52910D01*
X16681Y53407D01*
X16718Y53898D01*
X16724Y54132D01*
X16706Y54587D01*
X16654Y55021D01*
X16567Y55434D01*
X16447Y55823D01*
X16294Y56188D01*
X16110Y56528D01*
X15896Y56841D01*
X15650Y57126D01*
X15376Y57383D01*
X15072Y57608D01*
X14743Y57802D01*
X14385Y57964D01*
X14000Y58092D01*
X13591Y58185D01*
X13158Y58241D01*
X12699Y58261D01*
X12262Y58241D01*
X11841Y58182D01*
X11442Y58085D01*
X11064Y57951D01*
X10709Y57784D01*
X10378Y57584D01*
X10072Y57352D01*
X9794Y57091D01*
X9542Y56802D01*
X9320Y56487D01*
X9128Y56147D01*
X8970Y55784D01*
X8842Y55399D01*
X8750Y54994D01*
X8694Y54571D01*
X8676Y54132D01*
X8694Y53664D01*
X8748Y53173D01*
X8838Y52691D01*
X8899Y52462D01*
X8968Y52248D01*
X9997Y52318D01*
X9919Y52506D01*
X9853Y52705D01*
X9797Y52914D01*
X9714Y53348D01*
X9675Y53781D01*
X9669Y53992D01*
X9686Y54324D01*
X9729Y54641D01*
X9801Y54940D01*
X9898Y55220D01*
X10022Y55481D01*
X10170Y55722D01*
X10339Y55944D01*
X10531Y56143D01*
X10743Y56323D01*
X10976Y56480D01*
X11224Y56615D01*
X11490Y56726D01*
X11773Y56813D01*
X12069Y56876D01*
X12379Y56915D01*
X12699Y56928D01*
X13030Y56915D01*
X13347Y56879D01*
X13649Y56818D01*
X13933Y56733D01*
X14201Y56627D01*
X14450Y56496D01*
X14680Y56343D01*
X14890Y56169D01*
X15079Y55972D01*
X15245Y55755D01*
X15389Y55515D01*
X15509Y55255D01*
X15605Y54974D01*
X15673Y54673D01*
X15714Y54355D01*
X15729Y54015D01*
X15711Y53569D01*
X15651Y53130D01*
X15605Y52914D01*
X15547Y52702D01*
X15434Y52396D01*
X15391Y52295D01*
X16384Y52225D01*
X16384Y52225D01*
G37*
G36*
X16594Y50528D02*
X8793Y50528D01*
X8793Y49255D01*
X16594Y49255D01*
X16594Y50528D01*
X16594Y50528D01*
G37*
G36*
X13753Y42715D02*
X13545Y42808D01*
X13356Y42916D01*
X13268Y42974D01*
X13185Y43035D01*
X13107Y43102D01*
X13036Y43170D01*
X12969Y43242D01*
X12910Y43319D01*
X12856Y43398D01*
X12809Y43483D01*
X12767Y43571D01*
X12733Y43665D01*
X12706Y43760D01*
X12688Y43861D01*
X12652Y43679D01*
X12606Y43503D01*
X12546Y43332D01*
X12474Y43166D01*
X12391Y43012D01*
X12296Y42864D01*
X12192Y42726D01*
X12075Y42598D01*
X11949Y42483D01*
X11812Y42378D01*
X11666Y42288D01*
X11512Y42213D01*
X11348Y42153D01*
X11175Y42109D01*
X10994Y42082D01*
X10805Y42073D01*
X10510Y42089D01*
X10245Y42136D01*
X10006Y42213D01*
X9795Y42317D01*
X9606Y42447D01*
X9443Y42600D01*
X9301Y42772D01*
X9180Y42963D01*
X9078Y43168D01*
X8995Y43389D01*
X8926Y43622D01*
X8876Y43863D01*
X8811Y44366D01*
X8793Y47195D01*
X10940Y47195D01*
X10940Y45944D01*
X9716Y45944D01*
X9727Y44759D01*
X9759Y44437D01*
X9788Y44285D01*
X9826Y44142D01*
X9873Y44008D01*
X9930Y43884D01*
X10000Y43773D01*
X10083Y43672D01*
X10179Y43584D01*
X10290Y43508D01*
X10416Y43449D01*
X10558Y43406D01*
X10718Y43379D01*
X10898Y43370D01*
X11076Y43380D01*
X11240Y43411D01*
X11389Y43461D01*
X11524Y43528D01*
X11645Y43611D01*
X11753Y43708D01*
X11848Y43818D01*
X11933Y43938D01*
X12003Y44070D01*
X12064Y44210D01*
X12114Y44357D01*
X12154Y44510D01*
X12183Y44667D01*
X12204Y44827D01*
X12221Y45944D01*
X10940Y45944D01*
X10940Y47195D01*
X16594Y47195D01*
X16594Y45944D01*
X13156Y45944D01*
X13167Y45032D01*
X13181Y44910D01*
X13203Y44796D01*
X13232Y44692D01*
X13268Y44597D01*
X13313Y44509D01*
X13367Y44426D01*
X13430Y44350D01*
X13502Y44278D01*
X13584Y44212D01*
X13680Y44147D01*
X13784Y44086D01*
X14030Y43967D01*
X16594Y42949D01*
X16594Y41556D01*
X13753Y42715D01*
X13753Y42715D01*
G37*
G36*
X16384Y34655D02*
X16470Y34871D01*
X16540Y35099D01*
X16600Y35340D01*
X16681Y35837D01*
X16718Y36328D01*
X16724Y36562D01*
X16706Y37017D01*
X16654Y37451D01*
X16567Y37864D01*
X16447Y38253D01*
X16294Y38618D01*
X16110Y38958D01*
X15896Y39271D01*
X15650Y39557D01*
X15376Y39813D01*
X15072Y40038D01*
X14743Y40234D01*
X14385Y40394D01*
X14000Y40524D01*
X13591Y40615D01*
X13158Y40673D01*
X12699Y40691D01*
X12262Y40671D01*
X11841Y40612D01*
X11442Y40515D01*
X11064Y40381D01*
X10709Y40214D01*
X10378Y40014D01*
X10072Y39782D01*
X9794Y39521D01*
X9542Y39232D01*
X9320Y38917D01*
X9128Y38577D01*
X8970Y38213D01*
X8842Y37828D01*
X8750Y37425D01*
X8694Y37001D01*
X8676Y36562D01*
X8694Y36094D01*
X8748Y35603D01*
X8838Y35121D01*
X8899Y34892D01*
X8968Y34678D01*
X9997Y34748D01*
X9919Y34935D01*
X9853Y35135D01*
X9797Y35344D01*
X9714Y35777D01*
X9675Y36211D01*
X9669Y36422D01*
X9686Y36756D01*
X9729Y37071D01*
X9801Y37370D01*
X9898Y37650D01*
X10022Y37911D01*
X10170Y38152D01*
X10339Y38374D01*
X10531Y38573D01*
X10743Y38753D01*
X10976Y38910D01*
X11224Y39045D01*
X11490Y39156D01*
X11773Y39243D01*
X12069Y39306D01*
X12379Y39345D01*
X12699Y39358D01*
X13030Y39345D01*
X13347Y39309D01*
X13649Y39248D01*
X13933Y39163D01*
X14201Y39057D01*
X14450Y38926D01*
X14680Y38773D01*
X14890Y38598D01*
X15079Y38402D01*
X15245Y38185D01*
X15389Y37945D01*
X15509Y37685D01*
X15605Y37404D01*
X15673Y37103D01*
X15714Y36785D01*
X15729Y36333D01*
X15700Y35887D01*
X15630Y35452D01*
X15578Y35238D01*
X15513Y35029D01*
X15391Y34725D01*
X16384Y34655D01*
X16384Y34655D01*
G37*
G36*
X13764Y31778D02*
X13973Y31771D01*
X14174Y31751D01*
X14367Y31715D01*
X14550Y31667D01*
X14723Y31605D01*
X14885Y31528D01*
X15034Y31438D01*
X15173Y31334D01*
X15297Y31215D01*
X15407Y31082D01*
X15502Y30932D01*
X15581Y30771D01*
X15644Y30594D01*
X15691Y30404D01*
X15720Y30197D01*
X15729Y29977D01*
X15720Y29756D01*
X15691Y29549D01*
X15646Y29356D01*
X15583Y29180D01*
X15504Y29016D01*
X15410Y28869D01*
X15301Y28734D01*
X15176Y28613D01*
X15040Y28507D01*
X14890Y28416D01*
X14728Y28338D01*
X14554Y28275D01*
X14370Y28227D01*
X14178Y28191D01*
X13975Y28171D01*
X8793Y28164D01*
X8793Y26888D01*
X14097Y26902D01*
X14421Y26947D01*
X14727Y27018D01*
X15011Y27117D01*
X15275Y27239D01*
X15520Y27388D01*
X15743Y27559D01*
X15945Y27753D01*
X16123Y27969D01*
X16279Y28205D01*
X16414Y28461D01*
X16524Y28734D01*
X16610Y29024D01*
X16673Y29331D01*
X16711Y29653D01*
X16724Y29988D01*
X16711Y30323D01*
X16675Y30643D01*
X16616Y30949D01*
X16531Y31237D01*
X16425Y31508D01*
X16294Y31760D01*
X16141Y31992D01*
X15966Y32204D01*
X15768Y32395D01*
X15549Y32564D01*
X15308Y32710D01*
X15045Y32831D01*
X14763Y32926D01*
X14457Y32996D01*
X14133Y33039D01*
X8793Y33054D01*
X8793Y31778D01*
X13764Y31778D01*
X13764Y31778D01*
G37*
G36*
X16594Y24747D02*
X8793Y24747D01*
X8793Y23472D01*
X16594Y23472D01*
X16594Y24747D01*
X16594Y24747D01*
G37*
G36*
X16594Y19683D02*
X9846Y19683D01*
X9846Y22057D01*
X8793Y22057D01*
X8793Y16021D01*
X9846Y16021D01*
X9846Y18407D01*
X16594Y18407D01*
X16594Y19683D01*
G37*
G36*
X15320Y14805D02*
X15430Y14577D01*
X15522Y14352D01*
X15599Y14127D01*
X15660Y13899D01*
X15707Y13665D01*
X15740Y13425D01*
X15765Y12922D01*
X15759Y12781D01*
X15747Y12641D01*
X15725Y12504D01*
X15695Y12371D01*
X15655Y12242D01*
X15605Y12119D01*
X15543Y12000D01*
X15472Y11893D01*
X15391Y11792D01*
X15295Y11700D01*
X15191Y11621D01*
X15074Y11553D01*
X14944Y11499D01*
X14802Y11457D01*
X14646Y11432D01*
X14478Y11423D01*
X14343Y11430D01*
X14219Y11452D01*
X14104Y11486D01*
X13994Y11533D01*
X13894Y11590D01*
X13798Y11659D01*
X13710Y11736D01*
X13627Y11824D01*
X13548Y11921D01*
X13401Y12135D01*
X12710Y13519D01*
X12555Y13789D01*
X12381Y14037D01*
X12284Y14152D01*
X12181Y14260D01*
X12071Y14359D01*
X11952Y14449D01*
X11827Y14530D01*
X11690Y14600D01*
X11544Y14660D01*
X11388Y14706D01*
X11222Y14741D01*
X11042Y14762D01*
X10851Y14769D01*
X10573Y14753D01*
X10315Y14710D01*
X10078Y14638D01*
X9860Y14541D01*
X9662Y14420D01*
X9484Y14280D01*
X9326Y14120D01*
X9185Y13945D01*
X9061Y13755D01*
X8957Y13553D01*
X8869Y13341D01*
X8799Y13121D01*
X8745Y12896D01*
X8707Y12666D01*
X8683Y12438D01*
X8685Y11851D01*
X8723Y11396D01*
X8791Y10961D01*
X8921Y10441D01*
X9950Y10511D01*
X9873Y10703D01*
X9808Y10903D01*
X9754Y11108D01*
X9677Y11524D01*
X9639Y11938D01*
X9639Y12261D01*
X9650Y12385D01*
X9666Y12510D01*
X9693Y12634D01*
X9727Y12753D01*
X9770Y12869D01*
X9822Y12981D01*
X9883Y13085D01*
X9955Y13182D01*
X10038Y13269D01*
X10132Y13348D01*
X10238Y13415D01*
X10355Y13467D01*
X10484Y13508D01*
X10627Y13533D01*
X10781Y13541D01*
X10898Y13535D01*
X11006Y13517D01*
X11107Y13490D01*
X11202Y13452D01*
X11289Y13404D01*
X11371Y13348D01*
X11447Y13283D01*
X11519Y13211D01*
X11587Y13134D01*
X11652Y13049D01*
X11769Y12866D01*
X12444Y11473D01*
X12624Y11162D01*
X12719Y11018D01*
X12821Y10881D01*
X12931Y10756D01*
X13050Y10639D01*
X13176Y10532D01*
X13313Y10439D01*
X13462Y10356D01*
X13622Y10288D01*
X13797Y10234D01*
X13984Y10194D01*
X14189Y10169D01*
X14408Y10160D01*
X14696Y10174D01*
X14964Y10216D01*
X15212Y10282D01*
X15441Y10372D01*
X15650Y10486D01*
X15839Y10621D01*
X16009Y10775D01*
X16162Y10950D01*
X16296Y11142D01*
X16411Y11349D01*
X16506Y11572D01*
X16585Y11808D01*
X16646Y12058D01*
X16690Y12317D01*
X16715Y12585D01*
X16722Y12977D01*
X16695Y13461D01*
X16628Y13969D01*
X16519Y14483D01*
X16407Y14863D01*
X15320Y14805D01*
X15320Y14805D01*
G37*
M02*
