%
M48
METRIC,TZ,000.000
ICI,OFF
T1C1
T2C0.813
%
T1
X58624Y11860
T1
X58624Y9320
T1
X58624Y6780
T1
X58624Y24560
T1
X58624Y14400
T1
X58624Y22020
T1
X58624Y19480
T1
X58624Y16940
T1
X15334Y19480
T1
X15334Y11860
T1
X15316Y9320
T1
X15379Y24560
T1
X15316Y14400
T1
X15379Y22020
T1
X15316Y16940
T1
X15240Y6780
T1
X40640Y13130
T1
X40640Y10590
T1
X40599Y18210
T1
X40640Y20750
T1
X40640Y15670
T1
X91089Y7620
T1
X91089Y22860
T1
X78389Y22860
T1
X80929Y7620
T1
X88549Y7620
T1
X88549Y22860
T1
X83469Y7620
T1
X80929Y22860
T1
X86009Y7620
T1
X83469Y22860
T1
X78389Y7620
T1
X86009Y22860
T2
X67822Y8890
T2
X67822Y11430
T2
X67822Y19480
T2
X67822Y22020
T2
X99710Y13130
T2
X99710Y15670
M30
